<svg width="684" height="203" viewBox="0 0 684 203" fill="none" xmlns="http://www.w3.org/2000/svg">
<path d="M338.761 6.53253L370.792 5.39565C371.55 5.4286 371.929 5.84051 371.929 6.63138L370.643 16.7644C370.578 17.2587 370.462 17.6047 370.297 17.8025C370.166 18.0002 369.869 18.1155 369.408 18.1485L359.818 18.4945L352.602 81.616C352.503 82.4068 352.074 82.8188 351.316 82.8517L341.035 83.1977C340.376 83.1977 340.047 82.8847 340.047 82.2586L347.313 18.8899L337.476 19.1865C336.652 19.1535 336.24 18.7746 336.24 18.0496L337.476 7.76826C337.509 6.97739 337.938 6.56548 338.761 6.53253ZM392.246 7.17511L386.562 57.8404C386.1 61.7288 385.87 64.4969 385.87 66.1445C385.87 67.7922 386.331 69.1927 387.254 70.346C388.176 71.4994 389.676 72.0761 391.752 72.0761C393.828 72.0761 395.41 71.0381 396.497 68.962C397.585 66.886 398.392 63.5577 398.919 58.9773L404.702 7.47169C404.801 6.74672 405.246 6.36776 406.037 6.33481L416.022 5.93937C416.846 5.97232 417.257 6.36776 417.257 7.12568L411.573 57.8404C410.42 68.2206 407.751 75.3219 403.565 79.1445C400.171 82.2091 395.739 83.7414 390.269 83.7414C384.832 83.7414 380.663 82.3245 377.763 79.4905C374.896 76.6236 373.463 72.4056 373.463 66.8365C373.463 64.1674 373.628 61.3828 373.957 58.483L379.79 7.47169C379.856 7.0433 379.955 6.7632 380.086 6.63138C380.251 6.46662 380.564 6.36776 381.026 6.33481L391.01 5.9888C391.834 6.02175 392.246 6.41719 392.246 7.17511ZM472.079 49.1902L456.706 49.7834L454.383 70.0495L473.314 69.4069C474.171 69.4398 474.6 69.8682 474.6 70.692L473.314 80.924C473.249 81.616 472.82 82.0444 472.029 82.2091L441.63 83.1977C440.905 83.1977 440.543 82.8847 440.543 82.2586L449.094 7.47169C449.226 6.77967 449.654 6.40071 450.379 6.33481L477.467 5.39565C478.29 5.49451 478.702 5.93937 478.702 6.73024L477.467 16.9622C477.368 17.786 476.939 18.2308 476.181 18.2968L460.265 18.7416L458.14 37.1294L473.364 36.5857C474.221 36.6186 474.649 37.047 474.649 37.8708L473.364 47.9545C473.232 48.7124 472.804 49.1243 472.079 49.1902ZM482.214 83.7414C481.39 83.7414 480.978 83.346 480.978 82.5551L482.214 72.2244C482.346 71.4994 482.774 71.104 483.499 71.0381C488.64 70.5108 492.034 69.7035 493.681 68.616C495.329 67.4956 496.153 65.2878 496.153 61.9925C496.153 58.6972 495.313 54.4133 493.632 49.1408C491.951 43.8353 490.864 40.3094 490.37 38.5629C488.788 32.9608 487.997 28.3804 487.997 24.8214C487.997 21.2296 488.574 18.1649 489.727 15.6276C490.88 13.0902 492.528 11.0636 494.67 9.54773C498.822 6.64786 504.408 5.19793 511.427 5.19793C512.316 5.19793 512.761 5.60984 512.761 6.43367L511.427 16.6656C511.295 17.4894 510.883 17.9343 510.191 18.0002C503.798 18.4286 500.602 20.3234 500.602 23.6846C500.602 26.7822 501.953 32.8785 504.655 41.9735C507.39 51.0356 508.757 57.5273 508.757 61.4487C508.757 76.3105 499.91 83.7414 482.214 83.7414ZM556.214 7.17511L549.145 70L568.077 69.2586C568.934 69.2915 569.362 69.7199 569.362 70.5438L568.077 80.7757C567.978 81.6324 567.55 82.0773 566.792 82.1103L536.343 83.1977C535.651 83.1977 535.305 82.8847 535.305 82.2586L543.757 7.47169C543.823 7.07625 543.922 6.79615 544.054 6.63138C544.219 6.46662 544.532 6.36776 544.993 6.33481L554.929 5.9888C555.785 6.02175 556.214 6.41719 556.214 7.17511ZM608.611 49.1902L593.238 49.7834L590.915 70.0495L609.847 69.4069C610.703 69.4398 611.132 69.8682 611.132 70.692L609.847 80.924C609.781 81.616 609.352 82.0444 608.562 82.2091L578.162 83.1977C577.437 83.1977 577.075 82.8847 577.075 82.2586L585.626 7.47169C585.758 6.77967 586.186 6.40071 586.911 6.33481L613.999 5.39565C614.823 5.49451 615.235 5.93937 615.235 6.73024L613.999 16.9622C613.9 17.786 613.472 18.2308 612.714 18.2968L596.797 18.7416L594.672 37.1294L609.896 36.5857C610.753 36.6186 611.181 37.047 611.181 37.8708L609.896 47.9545C609.764 48.7124 609.336 49.1243 608.611 49.1902ZM208.829 122.51C208.829 132.33 205.039 139.102 197.46 142.825C200.03 143.913 202.041 145.593 203.491 147.867C204.94 150.108 205.665 152.991 205.665 156.517C205.665 160.043 205.138 163.388 204.084 166.551C203.062 169.715 201.464 172.582 199.289 175.152C194.676 180.622 187.344 183.522 177.293 183.852L166.666 184.198C165.941 184.132 165.578 183.819 165.578 183.259L174.08 108.867C174.146 108.274 174.294 107.879 174.525 107.681C174.756 107.45 176.815 107.203 180.704 106.939C184.592 106.643 188.299 106.495 191.825 106.495C197.757 106.495 202.074 107.928 204.776 110.795C207.478 113.629 208.829 117.534 208.829 122.51ZM184.757 147.719C183.406 147.719 182.516 147.735 182.088 147.768L179.418 171.84C184.131 171.84 187.69 170.341 190.095 167.342C192.534 164.344 193.753 160.406 193.753 155.529C193.753 153.222 192.962 151.344 191.38 149.894C189.799 148.444 187.591 147.719 184.757 147.719ZM182.928 139.909C192.385 139.843 197.114 134.834 197.114 124.882C197.114 119.643 194.412 117.023 189.008 117.023C187.492 117.023 186.306 117.072 185.449 117.171L182.928 139.909ZM234.485 108.175L227.416 171L246.348 170.259C247.205 170.292 247.633 170.72 247.633 171.544L246.348 181.776C246.249 182.632 245.821 183.077 245.063 183.11L214.614 184.198C213.922 184.198 213.576 183.885 213.576 183.259L222.029 108.472C222.095 108.076 222.193 107.796 222.325 107.631C222.49 107.467 222.803 107.368 223.264 107.335L233.2 106.989C234.056 107.022 234.485 107.417 234.485 108.175ZM276.354 108.175L270.669 158.84C270.208 162.729 269.977 165.497 269.977 167.145C269.977 168.792 270.439 170.193 271.361 171.346C272.284 172.499 273.783 173.076 275.859 173.076C277.935 173.076 279.517 172.038 280.605 169.962C281.692 167.886 282.499 164.558 283.027 159.977L288.81 108.472C288.909 107.747 289.354 107.368 290.144 107.335L300.129 106.939C300.953 106.972 301.365 107.368 301.365 108.126L295.681 158.84C294.527 169.221 291.858 176.322 287.673 180.144C284.279 183.209 279.847 184.741 274.376 184.741C268.939 184.741 264.771 183.324 261.871 180.491C259.004 177.624 257.57 173.406 257.57 167.837C257.57 165.167 257.735 162.383 258.065 159.483L263.897 108.472C263.963 108.043 264.062 107.763 264.194 107.631C264.359 107.467 264.672 107.368 265.133 107.335L275.118 106.989C275.942 107.022 276.354 107.417 276.354 108.175ZM337.846 150.685L322.029 151.228L318.47 182.418C318.338 183.176 317.909 183.588 317.184 183.654L307.002 184.198C306.277 184.198 305.914 183.885 305.914 183.259L314.515 108.472C314.647 107.78 315.075 107.401 315.8 107.335L342.888 106.198C343.712 106.297 344.124 106.742 344.124 107.533L342.888 117.764C342.789 118.621 342.361 119.066 341.603 119.099L325.686 119.643L323.511 138.624L339.131 138.08C339.988 138.113 340.416 138.541 340.416 139.365L339.131 149.449C338.999 150.207 338.571 150.619 337.846 150.685ZM379.814 150.685L363.996 151.228L360.437 182.418C360.305 183.176 359.877 183.588 359.152 183.654L348.97 184.198C348.245 184.198 347.882 183.885 347.882 183.259L356.483 108.472C356.615 107.78 357.043 107.401 357.768 107.335L384.855 106.198C385.679 106.297 386.091 106.742 386.091 107.533L384.855 117.764C384.757 118.621 384.328 119.066 383.57 119.099L367.654 119.643L365.479 138.624L381.099 138.08C381.956 138.113 382.384 138.541 382.384 139.365L381.099 149.449C380.967 150.207 380.539 150.619 379.814 150.685ZM421.386 150.19L406.013 150.783L403.69 171.049L422.622 170.407C423.478 170.44 423.907 170.868 423.907 171.692L422.622 181.924C422.556 182.616 422.127 183.044 421.336 183.209L390.937 184.198C390.212 184.198 389.85 183.885 389.85 183.259L398.401 108.472C398.533 107.78 398.961 107.401 399.686 107.335L426.774 106.396C427.597 106.495 428.009 106.939 428.009 107.73L426.774 117.962C426.675 118.786 426.246 119.231 425.488 119.297L409.572 119.742L407.447 138.129L422.671 137.586C423.528 137.619 423.956 138.047 423.956 138.871L422.671 148.954C422.539 149.712 422.111 150.124 421.386 150.19ZM474.673 182.814C474.673 183.473 474.228 183.802 473.338 183.802L462.217 184.198C461.722 184.165 461.36 183.852 461.129 183.259L448.722 151.821L445.262 182.616C445.163 183.407 444.751 183.819 444.026 183.852L433.696 184.198C432.971 184.132 432.608 183.819 432.608 183.259L441.16 108.867C441.225 108.274 441.374 107.879 441.604 107.681C441.835 107.45 443.582 107.203 446.844 106.939C450.106 106.643 454.456 106.495 459.893 106.495C465.331 106.495 469.516 107.944 472.448 110.844C475.414 113.711 476.897 117.418 476.897 121.966C476.897 126.513 476.353 130.534 475.266 134.027C474.179 137.487 472.383 140.601 469.878 143.369C467.374 146.137 464.243 148.197 460.487 149.548L474.525 182.221C474.623 182.418 474.673 182.616 474.673 182.814ZM452.528 118.012L449.76 142.578C455.857 142.216 460.058 139.448 462.365 134.274C463.617 131.44 464.243 128.573 464.243 125.673C464.243 122.74 463.634 120.697 462.414 119.544C461.228 118.358 459.498 117.764 457.224 117.764C454.95 117.764 453.385 117.847 452.528 118.012ZM522.525 105.852L515.16 161.164C515.061 161.987 514.649 162.416 513.924 162.449L505.274 162.795C504.549 162.762 504.186 162.416 504.186 161.757L509.475 106.148C509.508 105.456 509.936 105.061 510.76 104.962L521.289 104.616C522.113 104.649 522.525 105.061 522.525 105.852ZM507.3 184.544C505.158 184.544 503.412 183.868 502.061 182.517C500.743 181.133 500.084 179.387 500.084 177.278C500.084 175.136 500.957 173.224 502.703 171.544C504.45 169.863 506.394 169.023 508.536 169.023C510.711 169.023 512.457 169.698 513.776 171.049C515.094 172.401 515.753 174.164 515.753 176.338C515.753 178.48 514.879 180.392 513.133 182.072C511.386 183.72 509.442 184.544 507.3 184.544Z" fill="#1C1C1E"/>
<g filter="url(#filter0_d_2057_1615)">
<path d="M74.3071 81.962L68.5733 7.52112C68.5733 6.7632 69.0182 6.36776 69.9079 6.33481L80.1892 5.9888C80.9142 5.9888 81.2767 6.30185 81.2767 6.92796L83.5999 62.6845L96.6987 7.52112C96.7976 7.09273 96.9129 6.79615 97.0447 6.63138C97.2095 6.46662 97.4896 6.36776 97.885 6.33481L108.117 5.93937C108.842 5.93937 109.204 6.25242 109.204 6.87853L87.5048 81.616C87.2741 82.4068 86.8787 82.8023 86.3185 82.8023L75.3946 83.1977C74.7355 83.1648 74.373 82.7529 74.3071 81.962ZM130.115 7.17511L121.663 81.616C121.564 82.4068 121.135 82.8188 120.377 82.8517L110.195 83.1977C109.47 83.1977 109.107 82.8847 109.107 82.2586L117.659 7.47169C117.791 6.77967 118.219 6.40071 118.944 6.33481L128.83 5.9888C129.687 6.02175 130.115 6.41719 130.115 7.17511ZM152.855 83.7414C147.318 83.7414 143.133 82.0938 140.3 78.7985C137.466 75.5032 136.049 71.3841 136.049 66.4411C136.049 53.8531 137.317 41.4133 139.855 29.1218C141.865 19.4666 144.649 13.0078 148.208 9.74544C151.569 6.71377 156.002 5.19793 161.505 5.19793C167.041 5.19793 171.226 6.86206 174.06 10.1903C176.927 13.5186 178.36 17.6212 178.36 22.4983C178.36 27.3424 178.047 33.2245 177.421 40.1446C176.795 47.0318 176.021 52.7986 175.098 57.4449C174.175 62.0584 173.384 65.436 172.725 67.578C172.099 69.687 171.226 71.8289 170.106 74.0038C168.985 76.1787 167.683 77.9252 166.201 79.2434C162.872 82.2421 158.424 83.7414 152.855 83.7414ZM154.14 72.0761C158.325 72.0761 161.01 68.2206 162.197 60.5096C162.988 55.4018 163.779 49.0419 164.569 41.4298C165.36 33.8176 165.756 28.4628 165.756 25.3652C165.756 22.2676 165.245 20.0762 164.223 18.791C163.235 17.5059 161.818 16.8633 159.972 16.8633C156.15 16.8633 153.563 20.7353 152.212 28.4792C151.421 33.0268 150.63 39.2054 149.839 47.0153C149.049 54.7922 148.653 60.2789 148.653 63.4753C148.653 66.6718 149.164 68.9126 150.185 70.1978C151.24 71.45 152.558 72.0761 154.14 72.0761ZM205.351 7.17511L198.282 70L217.214 69.2586C218.071 69.2915 218.499 69.7199 218.499 70.5438L217.214 80.7757C217.115 81.6324 216.687 82.0773 215.929 82.1103L185.48 83.1977C184.788 83.1977 184.442 82.8847 184.442 82.2586L192.894 7.47169C192.96 7.07625 193.059 6.79615 193.191 6.63138C193.356 6.46662 193.669 6.36776 194.13 6.33481L204.066 5.9888C204.922 6.02175 205.351 6.41719 205.351 7.17511ZM257.748 49.1902L242.375 49.7834L240.052 70.0495L258.984 69.4069C259.841 69.4398 260.269 69.8682 260.269 70.692L258.984 80.924C258.918 81.616 258.489 82.0444 257.699 82.2091L227.299 83.1977C226.574 83.1977 226.212 82.8847 226.212 82.2586L234.763 7.47169C234.895 6.77967 235.323 6.40071 236.048 6.33481L263.136 5.39565C263.96 5.49451 264.372 5.93937 264.372 6.73024L263.136 16.9622C263.037 17.786 262.609 18.2308 261.851 18.2968L245.934 18.7416L243.809 37.1294L259.033 36.5857C259.89 36.6186 260.318 37.047 260.318 37.8708L259.033 47.9545C258.901 48.7124 258.473 49.1243 257.748 49.1902ZM273.617 6.53253L305.647 5.39565C306.405 5.4286 306.784 5.84051 306.784 6.63138L305.499 16.7644C305.433 17.2587 305.318 17.6047 305.153 17.8025C305.021 18.0002 304.725 18.1155 304.263 18.1485L294.674 18.4945L287.457 81.616C287.358 82.4068 286.93 82.8188 286.172 82.8517L275.891 83.1977C275.232 83.1977 274.902 82.8847 274.902 82.2586L282.168 18.8899L272.332 19.1865C271.508 19.1535 271.096 18.7746 271.096 18.0496L272.332 7.76826C272.365 6.97739 272.793 6.56548 273.617 6.53253Z" fill="#EFEBE2"/>
<path d="M74.3071 81.962L73.3101 82.0388L73.3106 82.045L74.3071 81.962ZM68.5733 7.52112L67.5733 7.52112L67.5733 7.55957L67.5763 7.59791L68.5733 7.52112ZM69.9079 6.33481L69.8743 5.33537L69.8709 5.33549L69.9079 6.33481ZM80.1892 5.9888L80.1892 4.9888H80.1724L80.1556 4.98937L80.1892 5.9888ZM81.2767 6.92796H80.2767L80.2767 6.94879L80.2776 6.96959L81.2767 6.92796ZM83.5999 62.6845L82.6007 62.7261L84.5728 62.9155L83.5999 62.6845ZM96.6987 7.52112L97.6717 7.75215L97.6731 7.74598L96.6987 7.52112ZM97.0447 6.63138L96.3376 5.92428L96.2984 5.96344L96.2638 6.00669L97.0447 6.63138ZM97.885 6.33481L97.8464 5.33555L97.8242 5.33641L97.802 5.33826L97.885 6.33481ZM108.117 5.93937L108.117 4.93937H108.098L108.078 4.94012L108.117 5.93937ZM109.204 6.87853L110.165 7.15736L110.204 7.02077L110.204 6.87853H109.204ZM87.5048 81.616L88.4648 81.896L88.4652 81.8948L87.5048 81.616ZM86.3185 82.8023L86.3185 81.8023H86.3004L86.2823 81.8029L86.3185 82.8023ZM75.3946 83.1977L75.3446 84.1965L75.3877 84.1986L75.4308 84.1971L75.3946 83.1977ZM75.3042 81.8852L69.5704 7.44432L67.5763 7.59791L73.3101 82.0388L75.3042 81.8852ZM69.5733 7.52112C69.5733 7.42774 69.5872 7.38715 69.5897 7.38051C69.5902 7.37918 69.5839 7.39232 69.5713 7.40351C69.5523 7.42038 69.6213 7.34611 69.9449 7.33412L69.8709 5.33549C69.3048 5.35646 68.7064 5.49638 68.2426 5.90869C67.7513 6.34539 67.5733 6.94006 67.5733 7.52112L69.5733 7.52112ZM69.9415 7.33424L80.2229 6.98823L80.1556 4.98937L69.8743 5.33537L69.9415 7.33424ZM80.1892 6.9888C80.3018 6.9888 80.3635 7.00131 80.3884 7.00847C80.4103 7.01478 80.3881 7.01225 80.3512 6.98041C80.3334 6.96502 80.3166 6.94654 80.3025 6.92622C80.2885 6.9061 80.2802 6.88864 80.2758 6.87715C80.2674 6.85545 80.2767 6.86562 80.2767 6.92796H82.2767C82.2767 6.41942 82.1227 5.86768 81.6584 5.46677C81.2223 5.09008 80.6729 4.9888 80.1892 4.9888L80.1892 6.9888ZM80.2776 6.96959L82.6007 62.7261L84.599 62.6428L82.2758 6.88633L80.2776 6.96959ZM84.5728 62.9155L97.6717 7.75215L95.7258 7.29008L82.6269 62.4534L84.5728 62.9155ZM97.6731 7.74598C97.7155 7.56233 97.7563 7.43009 97.7914 7.33984C97.8289 7.24321 97.8465 7.22987 97.8256 7.25608L96.2638 6.00669C95.9822 6.3588 95.828 6.84674 95.7243 7.29626L97.6731 7.74598ZM97.7518 7.33849C97.7037 7.38657 97.6745 7.3896 97.7112 7.37666C97.7488 7.36337 97.829 7.34294 97.9681 7.33135L97.802 5.33826C97.3224 5.37822 96.7525 5.5094 96.3376 5.92428L97.7518 7.33849ZM97.9236 7.33406L108.156 6.93862L108.078 4.94012L97.8464 5.33555L97.9236 7.33406ZM108.117 6.93937C108.229 6.93937 108.291 6.95188 108.316 6.95904C108.338 6.96535 108.316 6.96282 108.279 6.93098C108.261 6.91559 108.244 6.89711 108.23 6.87679C108.216 6.85667 108.208 6.83921 108.203 6.82772C108.195 6.80603 108.204 6.81619 108.204 6.87853H110.204C110.204 6.36999 110.05 5.81825 109.586 5.41734C109.15 5.04065 108.601 4.93937 108.117 4.93937L108.117 6.93937ZM108.244 6.5997L86.5445 81.3371L88.4652 81.8948L110.165 7.15736L108.244 6.5997ZM86.5448 81.336C86.4559 81.6409 86.3639 81.7628 86.3281 81.7986C86.3146 81.8121 86.3138 81.8089 86.3254 81.8041C86.337 81.7993 86.3384 81.8023 86.3185 81.8023L86.3185 83.8023C86.8633 83.8023 87.3567 83.5984 87.7423 83.2128C88.102 82.8531 88.3231 82.3819 88.4648 81.896L86.5448 81.336ZM86.2823 81.8029L75.3584 82.1984L75.4308 84.1971L86.3547 83.8016L86.2823 81.8029ZM75.4445 82.199C75.3785 82.1957 75.354 82.1846 75.3552 82.1851C75.3599 82.1872 75.3713 82.1945 75.3791 82.2034C75.3905 82.2163 75.3265 82.1524 75.3037 81.8789L73.3106 82.045C73.3537 82.5624 73.5039 83.0999 73.8777 83.5247C74.2727 83.9736 74.8042 84.1694 75.3446 84.1965L75.4445 82.199ZM130.115 7.17511L131.109 7.28793L131.115 7.2317L131.115 7.17511H130.115ZM121.663 81.616L122.655 81.74L122.656 81.7288L121.663 81.616ZM120.377 82.8517L120.411 83.8512L120.421 83.8508L120.377 82.8517ZM110.195 83.1977L110.195 84.1977H110.212L110.229 84.1971L110.195 83.1977ZM109.107 82.2586L108.114 82.145L108.107 82.2016L108.107 82.2586H109.107ZM117.659 7.47169L116.676 7.28457L116.669 7.32112L116.665 7.35808L117.659 7.47169ZM118.944 6.33481L118.909 5.33542L118.881 5.33639L118.853 5.33891L118.944 6.33481ZM128.83 5.9888L128.868 4.98954L128.832 4.98813L128.795 4.98941L128.83 5.9888ZM129.121 7.06229L120.669 81.5032L122.656 81.7288L131.109 7.28793L129.121 7.06229ZM120.67 81.4919C120.64 81.7376 120.574 81.7969 120.574 81.7972C120.571 81.7997 120.562 81.8086 120.533 81.8196C120.501 81.8318 120.438 81.8481 120.334 81.8527L120.421 83.8508C120.974 83.8267 121.526 83.6561 121.96 83.2389C122.388 82.8273 122.587 82.2852 122.655 81.74L120.67 81.4919ZM120.343 81.8523L110.161 82.1983L110.229 84.1971L120.411 83.8511L120.343 81.8523ZM110.195 82.1977C110.082 82.1977 110.021 82.1852 109.996 82.178C109.974 82.1717 109.996 82.1743 110.033 82.2061C110.051 82.2215 110.068 82.24 110.082 82.2603C110.096 82.2804 110.104 82.2979 110.108 82.3094C110.117 82.3311 110.107 82.3209 110.107 82.2586H108.107C108.107 82.7671 108.262 83.3188 108.726 83.7197C109.162 84.0964 109.711 84.1977 110.195 84.1977L110.195 82.1977ZM110.101 82.3722L118.652 7.58529L116.665 7.35808L108.114 82.145L110.101 82.3722ZM118.641 7.6588C118.675 7.47873 118.729 7.42884 118.742 7.41745C118.757 7.40345 118.826 7.34966 119.035 7.3307L118.853 5.33891C118.337 5.38586 117.829 5.55451 117.416 5.91946C117.001 6.28703 116.774 6.77263 116.676 7.28457L118.641 7.6588ZM118.979 7.3342L128.865 6.98819L128.795 4.98941L118.909 5.33542L118.979 7.3342ZM128.791 6.98806C129.091 6.99958 129.143 7.06987 129.115 7.0449C129.101 7.03116 129.095 7.01774 129.097 7.02282C129.101 7.03308 129.115 7.07787 129.115 7.17511H131.115C131.115 6.60546 130.948 6.01494 130.472 5.57529C130.017 5.15488 129.426 5.01097 128.868 4.98954L128.791 6.98806ZM140.3 78.7985L139.541 79.4505L140.3 78.7985ZM139.855 29.1218L138.876 28.918L138.875 28.9196L139.855 29.1218ZM148.208 9.74544L147.538 9.00285L147.533 9.00829L148.208 9.74544ZM174.06 10.1903L173.298 10.8386L173.302 10.843L174.06 10.1903ZM177.421 40.1446L178.417 40.2351L178.417 40.2347L177.421 40.1446ZM175.098 57.4449L176.078 57.6411L176.079 57.6397L175.098 57.4449ZM172.725 67.578L171.769 67.2839L171.767 67.2934L172.725 67.578ZM166.201 79.2434L165.536 78.4959L165.531 78.5004L166.201 79.2434ZM162.197 60.5096L161.209 60.3566L161.208 60.3575L162.197 60.5096ZM164.223 18.791L163.431 19.4008L163.436 19.4071L163.441 19.4133L164.223 18.791ZM152.212 28.4792L151.227 28.3074L151.227 28.3079L152.212 28.4792ZM149.839 47.0153L150.834 47.1165L150.834 47.1161L149.839 47.0153ZM150.185 70.1978L149.403 70.82L149.411 70.8311L149.42 70.8419L150.185 70.1978ZM152.855 82.7414C147.524 82.7414 143.652 81.1632 141.058 78.1465L139.541 79.4505C142.615 83.0244 147.113 84.7414 152.855 84.7414L152.855 82.7414ZM141.058 78.1465C138.401 75.0574 137.049 71.1797 137.049 66.4411H135.049C135.049 71.5884 136.53 75.949 139.541 79.4505L141.058 78.1465ZM137.049 66.4411C137.049 53.9208 138.31 41.5488 140.834 29.324L138.875 28.9196C136.324 41.2778 135.049 53.7853 135.049 66.4411H137.049ZM140.834 29.3256C142.838 19.6993 145.574 13.5172 148.884 10.4826L147.533 9.00829C143.725 12.4984 140.892 19.2339 138.876 28.918L140.834 29.3256ZM148.878 10.488C152.018 7.65609 156.193 6.19793 161.505 6.19793L161.505 4.19793C155.81 4.19793 151.121 5.77144 147.538 9.00287L148.878 10.488ZM161.505 6.19793C166.832 6.19793 170.703 7.79057 173.298 10.8386L174.821 9.54201C171.749 5.93354 167.25 4.19793 161.505 4.19793L161.505 6.19793ZM173.302 10.843C175.995 13.9694 177.36 17.8325 177.36 22.4983H179.36C179.36 17.41 177.858 13.0678 174.818 9.53767L173.302 10.843ZM177.36 22.4983C177.36 27.3025 177.05 33.1527 176.425 40.0545L178.417 40.2347C179.045 33.2963 179.36 27.3822 179.36 22.4983H177.36ZM176.425 40.0541C175.801 46.9206 175.031 52.6499 174.117 57.2502L176.079 57.6397C177.011 52.9472 177.789 47.143 178.417 40.2351L176.425 40.0541ZM174.117 57.2488C173.196 61.8568 172.413 65.193 171.769 67.2839L173.681 67.8721C174.356 65.6791 175.155 62.2599 176.078 57.6411L174.117 57.2488ZM171.767 67.2934C171.16 69.3363 170.311 71.4204 169.217 73.5459L170.994 74.4618C172.14 72.2375 173.038 70.0376 173.684 67.8626L171.767 67.2934ZM169.217 73.5459C168.14 75.6359 166.908 77.2763 165.536 78.4959L166.865 79.9908C168.459 78.5742 169.83 76.7215 170.994 74.4618L169.217 73.5459ZM165.531 78.5004C162.428 81.2961 158.239 82.7414 152.855 82.7414L152.855 84.7414C158.608 84.7414 163.316 83.1881 166.87 79.9863L165.531 78.5004ZM154.14 73.0761C156.603 73.0761 158.61 71.9139 160.113 69.756C161.583 67.6465 162.582 64.5805 163.185 60.6616L161.208 60.3575C160.625 64.1496 159.688 66.8669 158.472 68.6129C157.29 70.3105 155.861 71.0761 154.14 71.0761L154.14 73.0761ZM163.185 60.6626C163.979 55.5326 164.772 49.1548 165.564 41.5331L163.575 41.3264C162.785 48.929 161.996 55.2711 161.209 60.3566L163.185 60.6626ZM165.564 41.5331C166.355 33.922 166.756 28.5204 166.756 25.3652H164.756C164.756 28.4051 164.366 33.7133 163.575 41.3264L165.564 41.5331ZM166.756 25.3652C166.756 22.2152 166.248 19.7307 165.006 18.1688L163.441 19.4133C164.242 20.4217 164.756 22.32 164.756 25.3652H166.756ZM165.016 18.1813C163.81 16.6138 162.08 15.8633 159.972 15.8633L159.972 17.8633C161.556 17.8633 162.659 18.3979 163.431 19.4008L165.016 18.1813ZM159.972 15.8633C157.652 15.8633 155.767 17.0673 154.334 19.2118C152.928 21.3169 151.912 24.3799 151.227 28.3074L153.197 28.6511C153.863 24.8346 154.817 22.0897 155.997 20.3228C157.151 18.5953 158.471 17.8633 159.972 17.8633L159.972 15.8633ZM151.227 28.3079C150.43 32.8894 149.636 39.0949 148.844 46.9146L150.834 47.1161C151.624 39.316 152.412 33.1641 153.197 28.6506L151.227 28.3079ZM148.845 46.9141C148.054 54.6905 147.653 60.2227 147.653 63.4753H149.653C149.653 60.3351 150.043 54.894 150.834 47.1165L148.845 46.9141ZM147.653 63.4753C147.653 66.7152 148.158 69.2544 149.403 70.82L150.968 69.5755C150.17 68.5707 149.653 66.6284 149.653 63.4753H147.653ZM149.42 70.8419C150.657 72.3107 152.251 73.0761 154.14 73.0761L154.14 71.0761C152.865 71.0761 151.822 70.5893 150.95 69.5536L149.42 70.8419ZM205.351 7.17511L206.344 7.28691L206.351 7.23119L206.351 7.17511H205.351ZM198.282 70L197.289 69.8882L197.158 71.0448L198.321 70.9993L198.282 70ZM217.214 69.2586L217.252 68.2593L217.213 68.2578L217.175 68.2594L217.214 69.2586ZM218.499 70.5438L219.491 70.6684L219.499 70.6063L219.499 70.5438H218.499ZM217.214 80.7757L216.222 80.651L216.22 80.661L217.214 80.7757ZM215.929 82.1103L215.964 83.1097L215.972 83.1093L215.929 82.1103ZM185.48 83.1977L185.48 84.1977H185.498L185.516 84.1971L185.48 83.1977ZM184.442 82.2586L183.448 82.1462L183.442 82.2022L183.442 82.2586H184.442ZM192.894 7.47169L191.908 7.30729L191.904 7.33324L191.901 7.35938L192.894 7.47169ZM193.191 6.63138L192.484 5.92428L192.445 5.96344L192.41 6.00669L193.191 6.63138ZM194.13 6.33481L194.095 5.33541L194.077 5.33605L194.059 5.33735L194.13 6.33481ZM204.066 5.9888L204.104 4.98954L204.067 4.98813L204.031 4.98941L204.066 5.9888ZM204.357 7.0633L197.289 69.8882L199.276 70.1118L206.344 7.28691L204.357 7.0633ZM198.321 70.9993L217.253 70.2578L217.175 68.2594L198.243 69.0008L198.321 70.9993ZM217.175 70.2579C217.456 70.2687 217.497 70.3379 217.471 70.3117C217.438 70.2789 217.499 70.2992 217.499 70.5438H219.499C219.499 69.9645 219.346 69.3587 218.885 68.8975C218.43 68.4429 217.828 68.2815 217.252 68.2593L217.175 70.2579ZM217.507 70.4191L216.222 80.651L218.206 80.9003L219.491 70.6684L217.507 70.4191ZM216.22 80.661C216.186 80.9562 216.11 81.0456 216.098 81.0583C216.092 81.0643 216.084 81.0718 216.062 81.0807C216.036 81.091 215.982 81.107 215.885 81.1112L215.972 83.1093C216.546 83.0844 217.108 82.8931 217.539 82.4455C217.955 82.0133 218.142 81.4519 218.207 80.8903L216.22 80.661ZM215.893 81.1109L185.444 82.1984L185.516 84.1971L215.964 83.1096L215.893 81.1109ZM185.48 82.1977C185.431 82.1977 185.393 82.1949 185.365 82.1913C185.337 82.1877 185.321 82.1835 185.315 82.1816C185.309 82.1798 185.313 82.1805 185.325 82.1868C185.337 82.1933 185.354 82.2044 185.372 82.2214C185.391 82.2385 185.408 82.2581 185.421 82.2782C185.435 82.298 185.442 82.3144 185.445 82.3237C185.452 82.3409 185.442 82.3256 185.442 82.2586H183.442C183.442 82.753 183.583 83.2997 184.031 83.7045C184.459 84.092 185.003 84.1977 185.48 84.1977L185.48 82.1977ZM185.436 82.3709L193.888 7.58399L191.901 7.35938L183.448 82.1462L185.436 82.3709ZM193.881 7.63609C193.907 7.47724 193.936 7.36796 193.961 7.29785C193.987 7.22385 193.998 7.22324 193.972 7.25608L192.41 6.00669C192.113 6.37807 191.981 6.86984 191.908 7.30729L193.881 7.63609ZM193.898 7.33849C193.83 7.4065 193.788 7.4069 193.851 7.38725C193.909 7.36879 194.02 7.34524 194.201 7.33227L194.059 5.33735C193.56 5.37302 192.922 5.48666 192.484 5.92428L193.898 7.33849ZM194.165 7.3342L204.1 6.98819L204.031 4.98941L194.095 5.33541L194.165 7.3342ZM204.027 6.98806C204.327 6.99958 204.378 7.06987 204.351 7.0449C204.336 7.03116 204.331 7.01774 204.333 7.02282C204.337 7.03308 204.351 7.07787 204.351 7.17511H206.351C206.351 6.60546 206.184 6.01494 205.708 5.57529C205.252 5.15488 204.661 5.01097 204.104 4.98954L204.027 6.98806ZM257.748 49.1902L257.787 50.1895L257.813 50.1885L257.839 50.1861L257.748 49.1902ZM242.375 49.7834L242.337 48.7841L241.48 48.8172L241.382 49.6695L242.375 49.7834ZM240.052 70.0495L239.059 69.9356L238.927 71.0882L240.086 71.0489L240.052 70.0495ZM258.984 69.4069L259.022 68.4076L258.986 68.4062L258.95 68.4075L258.984 69.4069ZM260.269 70.692L261.261 70.8167L261.269 70.7546L261.269 70.692H260.269ZM258.984 80.924L257.992 80.7993L257.99 80.8142L257.988 80.8291L258.984 80.924ZM257.699 82.2091L257.731 83.2086L257.818 83.2058L257.903 83.1881L257.699 82.2091ZM227.299 83.1977L227.299 84.1977H227.316L227.332 84.1972L227.299 83.1977ZM226.212 82.2586L225.218 82.145L225.212 82.2016L225.212 82.2586H226.212ZM234.763 7.47169L233.781 7.28457L233.774 7.32112L233.77 7.35808L234.763 7.47169ZM236.048 6.33481L236.014 5.33541L235.986 5.33638L235.958 5.33891L236.048 6.33481ZM263.136 5.39565L263.255 4.40277L263.178 4.39357L263.101 4.39625L263.136 5.39565ZM264.372 6.73024L265.364 6.85014L265.372 6.79041L265.372 6.73024H264.372ZM263.136 16.9622L262.143 16.8423L262.143 16.843L263.136 16.9622ZM261.851 18.2968L261.879 19.2964L261.908 19.2955L261.937 19.293L261.851 18.2968ZM245.934 18.7416L245.906 17.742L245.04 17.7662L244.941 18.6268L245.934 18.7416ZM243.809 37.1294L242.815 37.0146L242.682 38.1703L243.845 38.1288L243.809 37.1294ZM259.033 36.5857L259.072 35.5864L259.035 35.585L258.997 35.5863L259.033 36.5857ZM260.318 37.8708L261.31 37.9973L261.318 37.9343L261.318 37.8708H260.318ZM259.033 47.9545L260.018 48.1258L260.022 48.1034L260.025 48.0809L259.033 47.9545ZM257.709 48.1909L242.337 48.7841L242.414 50.7826L257.787 50.1895L257.709 48.1909ZM241.382 49.6695L239.059 69.9356L241.046 70.1634L243.369 49.8972L241.382 49.6695ZM240.086 71.0489L259.018 70.4063L258.95 68.4075L240.018 69.05L240.086 71.0489ZM258.945 70.4061C259.226 70.417 259.267 70.4862 259.241 70.46C259.208 70.4272 259.269 70.4475 259.269 70.692H261.269C261.269 70.1128 261.116 69.5069 260.655 69.0458C260.2 68.5912 259.598 68.4298 259.022 68.4076L258.945 70.4061ZM259.277 70.5674L257.992 80.7993L259.976 81.0486L261.261 70.8167L259.277 70.5674ZM257.988 80.8291C257.974 80.9798 257.932 81.0312 257.906 81.0572C257.868 81.0947 257.762 81.1745 257.495 81.2301L257.903 83.1881C258.426 83.079 258.929 82.8622 259.32 82.4714C259.723 82.0689 259.928 81.5602 259.979 81.0188L257.988 80.8291ZM257.666 81.2097L227.267 82.1982L227.332 84.1972L257.731 83.2086L257.666 81.2097ZM227.299 82.1977C227.187 82.1977 227.125 82.1852 227.1 82.178C227.078 82.1717 227.101 82.1743 227.137 82.2061C227.155 82.2215 227.172 82.24 227.186 82.2603C227.2 82.2804 227.208 82.2979 227.213 82.3094C227.221 82.3311 227.212 82.3209 227.212 82.2586H225.212C225.212 82.7671 225.366 83.3188 225.83 83.7197C226.266 84.0964 226.816 84.1977 227.299 84.1977L227.299 82.1977ZM227.205 82.3722L235.757 7.58529L233.77 7.35808L225.218 82.145L227.205 82.3722ZM235.746 7.6588C235.78 7.47873 235.833 7.42884 235.846 7.41745C235.862 7.40345 235.93 7.34966 236.139 7.3307L235.958 5.33891C235.442 5.38586 234.933 5.55451 234.521 5.91946C234.105 6.28703 233.878 6.77263 233.781 7.28457L235.746 7.6588ZM236.083 7.33421L263.17 6.39505L263.101 4.39625L236.014 5.33541L236.083 7.33421ZM263.017 6.38852C263.146 6.40408 263.227 6.42957 263.274 6.44998C263.296 6.45992 263.31 6.46836 263.318 6.47361C263.325 6.4787 263.328 6.48188 263.329 6.48285C263.33 6.48377 263.331 6.48536 263.333 6.4891C263.336 6.49304 263.34 6.50197 263.346 6.51819C263.357 6.55154 263.372 6.61777 263.372 6.73024H265.372C265.372 6.16182 265.22 5.58206 264.796 5.12403C264.378 4.67262 263.816 4.47005 263.255 4.40277L263.017 6.38852ZM263.379 6.61034L262.143 16.8423L264.129 17.0821L265.364 6.85014L263.379 6.61034ZM262.143 16.843C262.111 17.1124 262.039 17.2004 262.02 17.22C262.01 17.2305 261.96 17.2835 261.764 17.3005L261.937 19.293C262.499 19.2441 263.042 19.0418 263.461 18.6073C263.87 18.1821 264.062 17.6357 264.129 17.0813L262.143 16.843ZM261.823 17.2971L245.906 17.742L245.962 19.7412L261.879 19.2964L261.823 17.2971ZM244.941 18.6268L242.815 37.0146L244.802 37.2442L246.928 18.8564L244.941 18.6268ZM243.845 38.1288L259.069 37.585L258.997 35.5863L243.773 36.13L243.845 38.1288ZM258.995 37.5849C259.276 37.5957 259.316 37.665 259.29 37.6388C259.257 37.606 259.318 37.6263 259.318 37.8708H261.318C261.318 37.2916 261.165 36.6857 260.704 36.2246C260.25 35.77 259.647 35.6086 259.072 35.5864L258.995 37.5849ZM259.326 37.7444L258.041 47.828L260.025 48.0809L261.31 37.9973L259.326 37.7444ZM258.048 47.7831C258.008 48.0143 257.941 48.0907 257.92 48.111C257.904 48.1265 257.846 48.1772 257.657 48.1943L257.839 50.1861C258.375 50.1373 258.894 49.9491 259.306 49.5527C259.713 49.1611 259.927 48.6526 260.018 48.1258L258.048 47.7831ZM273.617 6.53253L273.581 5.53314L273.577 5.53332L273.617 6.53253ZM305.647 5.39565L305.691 4.39659L305.651 4.39488L305.612 4.39628L305.647 5.39565ZM306.784 6.63138L307.776 6.75721L307.784 6.69455L307.784 6.63138H306.784ZM305.499 16.7644L306.49 16.8966L306.491 16.8903L305.499 16.7644ZM305.153 17.8025L304.385 17.1623L304.35 17.2033L304.321 17.2478L305.153 17.8025ZM304.263 18.1485L304.299 19.1478L304.317 19.1472L304.334 19.1459L304.263 18.1485ZM294.674 18.4945L294.638 17.4951L293.778 17.5261L293.68 18.3809L294.674 18.4945ZM287.457 81.616L288.449 81.74L288.451 81.7296L287.457 81.616ZM286.172 82.8517L286.206 83.8512L286.215 83.8508L286.172 82.8517ZM275.891 83.1977L275.891 84.1977H275.907L275.924 84.1972L275.891 83.1977ZM274.902 82.2586L273.909 82.1446L273.902 82.2014L273.902 82.2586H274.902ZM282.168 18.8899L283.162 19.0038L283.293 17.8555L282.138 17.8904L282.168 18.8899ZM272.332 19.1865L272.292 20.1857L272.327 20.1871L272.362 20.186L272.332 19.1865ZM271.096 18.0496L270.103 17.9303L270.096 17.9897L270.096 18.0496H271.096ZM272.332 7.76826L273.325 7.8876L273.329 7.84887L273.331 7.80989L272.332 7.76826ZM273.652 7.5319L305.683 6.39502L305.612 4.39628L273.581 5.53315L273.652 7.5319ZM305.604 6.3947C305.709 6.39927 305.762 6.41555 305.78 6.42266C305.794 6.42798 305.781 6.4251 305.764 6.40635C305.725 6.36357 305.784 6.38329 305.784 6.63138H307.784C307.784 6.0886 307.654 5.50693 307.236 5.05224C306.811 4.59049 306.237 4.42037 305.691 4.39659L305.604 6.3947ZM305.792 6.50556L304.507 16.6386L306.491 16.8903L307.776 6.75721L305.792 6.50556ZM304.508 16.6323C304.48 16.8379 304.446 16.9826 304.414 17.0784C304.381 17.1787 304.361 17.1902 304.385 17.1623L305.921 18.4426C306.275 18.0178 306.419 17.4315 306.49 16.8966L304.508 16.6323ZM304.321 17.2478C304.402 17.1262 304.49 17.0972 304.469 17.1052C304.46 17.1086 304.435 17.1174 304.386 17.1269C304.338 17.1363 304.274 17.1451 304.192 17.151L304.334 19.1459C304.837 19.11 305.574 18.9736 305.985 18.3572L304.321 17.2478ZM304.227 17.1491L294.638 17.4951L294.71 19.4938L304.299 19.1478L304.227 17.1491ZM293.68 18.3809L286.464 81.5024L288.451 81.7296L295.667 18.6081L293.68 18.3809ZM286.465 81.4919C286.434 81.7376 286.369 81.7969 286.369 81.7972C286.366 81.7997 286.357 81.8086 286.327 81.8196C286.295 81.8318 286.233 81.8481 286.129 81.8527L286.215 83.8508C286.768 83.8267 287.321 83.6561 287.755 83.2389C288.183 82.8273 288.381 82.2852 288.449 81.74L286.465 81.4919ZM286.138 81.8523L275.857 82.1983L275.924 84.1972L286.206 83.8511L286.138 81.8523ZM275.891 82.1977C275.847 82.1977 275.816 82.1951 275.793 82.1921C275.771 82.1891 275.761 82.186 275.76 82.1857C275.759 82.1854 275.768 82.1882 275.783 82.1969C275.799 82.2057 275.818 82.2192 275.838 82.2379C275.858 82.2568 275.874 82.2772 275.887 82.2969C275.899 82.3163 275.905 82.3312 275.907 82.3384C275.912 82.3508 275.902 82.3302 275.902 82.2586H273.902C273.902 82.7392 274.031 83.28 274.46 83.6879C274.88 84.0867 275.419 84.1977 275.891 84.1977L275.891 82.1977ZM275.896 82.3725L283.162 19.0038L281.175 18.776L273.909 82.1446L275.896 82.3725ZM282.138 17.8904L272.302 18.1869L272.362 20.186L282.198 19.8895L282.138 17.8904ZM272.372 18.1873C272.088 18.1759 272.047 18.1097 272.082 18.1416C272.09 18.1486 272.097 18.1572 272.103 18.1662C272.109 18.175 272.111 18.1802 272.11 18.1789C272.109 18.1752 272.096 18.1381 272.096 18.0496H270.096C270.096 18.6044 270.26 19.1827 270.728 19.6135C271.174 20.0244 271.752 20.1641 272.292 20.1857L272.372 18.1873ZM272.089 18.1689L273.325 7.8876L271.339 7.64893L270.103 17.9303L272.089 18.1689ZM273.331 7.80989C273.34 7.58413 273.397 7.56167 273.371 7.58701C273.351 7.60646 273.395 7.54221 273.657 7.53173L273.577 5.53332C273.015 5.55579 272.433 5.71397 271.985 6.14534C271.53 6.58259 271.356 7.16153 271.333 7.72663L273.331 7.80989Z" fill="#1C1C1E"/>
</g>
<defs>
<filter id="filter0_d_2057_1615" x="68.5742" y="5.19727" width="242.209" height="82.5449" filterUnits="userSpaceOnUse" color-interpolation-filters="sRGB">
<feFlood flood-opacity="0" result="BackgroundImageFix"/>
<feColorMatrix in="SourceAlpha" type="matrix" values="0 0 0 0 0 0 0 0 0 0 0 0 0 0 0 0 0 0 127 0" result="hardAlpha"/>
<feOffset dx="4" dy="4"/>
<feComposite in2="hardAlpha" operator="out"/>
<feColorMatrix type="matrix" values="0 0 0 0 0.717647 0 0 0 0 0.352941 0 0 0 0 1 0 0 0 1 0"/>
<feBlend mode="normal" in2="BackgroundImageFix" result="effect1_dropShadow_2057_1615"/>
<feBlend mode="normal" in="SourceGraphic" in2="effect1_dropShadow_2057_1615" result="shape"/>
</filter>
</defs>
</svg>
