<svg width="260" height="390" viewBox="0 0 260 390" fill="none" xmlns="http://www.w3.org/2000/svg">
<g clip-path="url(#clip0_2578_1859)">
<path d="M244.002 0H16.002C7.1654 0 0.00195312 7.16344 0.00195312 16V374C0.00195312 382.837 7.1654 390 16.002 390H244.002C252.839 390 260.002 382.837 260.002 374V16C260.002 7.16345 252.839 0 244.002 0Z" fill="#EFEBE2"/>
<path d="M186.632 284.646C187.205 287.512 185.027 290.149 182.161 290.149H77.7257C74.8598 290.149 72.6816 287.512 73.2548 284.646L73.9427 281.551L88.6164 213.456C89.0749 211.163 88.3871 208.87 86.6675 207.265C78.7575 199.699 72.7963 189.038 70.045 176.771C66.1472 159.69 68.8986 142.609 77.4965 131.031C88.1578 113.032 106.729 101.569 126.906 99.9636C128.511 99.849 130.23 99.7344 131.95 99.7344C133.44 99.7344 135.045 99.849 136.65 99.9636C137.452 99.9636 138.255 100.078 139.057 100.193C139.974 100.308 140.777 100.422 141.694 100.537C142.496 100.651 143.299 100.766 144.101 100.995C145.248 101.225 146.28 101.454 147.311 101.798C152.585 103.059 157.514 105.237 162.329 107.874C166.112 109.937 169.78 112.459 172.99 115.44C181.13 123.121 187.091 133.782 189.957 146.278C193.854 163.359 191.103 180.44 182.505 192.018C179.754 196.604 176.429 200.845 172.646 204.629C170.927 206.348 170.239 208.756 170.698 211.048L185.944 281.666L186.632 284.646Z" fill="#EFEBE2" stroke="#EFEBE2" stroke-width="2" stroke-miterlimit="10"/>
<path d="M95.954 209.79L95.8393 210.248C95.9539 208.758 95.3808 207.153 94.2344 206.121C94.349 206.236 94.5783 206.465 94.6929 206.58C95.61 207.382 96.0686 208.528 95.954 209.79Z" fill="#373FEF"/>
<path d="M326.319 135.025C322.234 151.759 303.843 159.38 283.605 156.04C257.028 151.656 242.664 134.207 227.91 116.464C214.987 100.919 200.719 87.0585 177.161 87.3375C162.312 87.5135 149.993 93.4931 139.665 102.953C124.111 117.2 107.007 115.386 88.7936 108.131C70.6679 100.911 52.1814 95.5757 32.1297 102.175C24.1637 104.797 20.2389 110.758 15.6973 116.447C7.7895 126.359 0.178467 126.635 -6.06224 115.784C-13.7169 102.476 -25.1335 96.3935 -40.7338 93.6962C-60.2007 90.3273 -66.3862 75.2998 -57.2302 57.7537C-50.7946 45.4181 -40.0995 35.4304 -34.7782 22.5261C-31.5022 14.5831 -31.5429 6.71592 -34.7782 -1.07812L-47.4749 -1.07812C-35.4387 22.1253 -51.0041 38.3417 -65.525 54.7801C-74.3376 64.7569 -78.2653 75.6004 -75.1464 88.6645C-74.0961 93.0679 -72.5803 101.003 -80.4299 101.049C-88.2272 101.095 -87.6773 94.2514 -88.5938 88.9028V117.203C-75.3006 116.461 -63.1916 110.934 -50.1981 108.954C-32.1568 106.205 -20.0362 114.714 -9.80376 126.787C-6.31828 130.898 -2.86479 135.09 0.00680542 139.57C3.06461 144.339 6.49772 150.589 -0.595451 153.92C-7.91264 157.357 -11.1305 150.538 -13.8973 145.815C-19.239 136.696 -21.1301 125.311 -34.8131 122.321C-48.595 119.313 -61.251 123.968 -74.2765 126.389C-79.0101 127.269 -83.8136 127.841 -88.5908 128.515L-88.5908 139.353C-83.6099 137.842 -78.6406 136.301 -73.6393 134.852C-60.4015 131.02 -46.8494 125.864 -34.3854 136.006C-26.0412 142.795 -21.2058 152.75 -11.9305 158.768C0.777802 167.014 12.8693 175.593 18.9006 189.532C20.2971 192.763 21.7082 197.359 26.3341 197.101C31.35 196.82 33.4244 192.205 35.6094 188.53C42.3301 177.226 40.2877 164.387 42.9498 152.368C44.3114 146.213 46.0658 139.819 53.4587 137.566C59.0942 135.849 63.7144 139.117 66.5889 143.025C72.2564 150.73 77.5167 158.743 82.2328 166.979C93.629 186.884 107.548 204.538 130.384 214.453C136.502 217.109 143.24 219.235 149.816 215.666C153.421 213.708 154.785 210.079 154.226 206.231C153.202 199.154 148.824 193.448 144.797 187.626C136.438 175.536 126.401 163.756 125.444 149.005C124.422 133.249 136.342 121.558 144.459 108.989C151.337 98.3407 162.018 91.8682 176.067 93.8885C201.95 97.6068 219.706 112.458 233.523 131.83C237.893 137.958 241.922 145.035 237.68 152.422C233.77 159.233 225.961 158.275 219.421 156.953C205.429 154.129 197.108 158.892 189.486 170.033C179.698 184.335 171.473 184.611 160.418 172.969C152.399 164.528 144.035 154.711 146.26 143.041C149.673 125.149 164.796 115.843 185.805 115.605C188.508 115.575 192.125 116.125 193.323 112.862C193.701 111.83 192.648 109.818 191.578 108.962C187.318 105.55 182.081 104.201 176.536 103.857C161.066 102.893 154.11 112.851 148.079 123.334C143.357 131.545 135.26 138.987 137.093 149.232C139.516 162.77 151.334 172.029 157.29 184.067C162.48 194.556 169.655 196.064 179.413 188.768C183.812 185.481 187.749 181.41 191.004 177.123C203.657 160.471 212.508 158.516 228.693 169.47C237.078 175.144 244.593 182.507 253.851 186.369C275.069 195.225 290.704 207.474 298.964 228.502C307.786 250.95 330.182 257.374 346.612 244.118L346.612 131.185C345.271 134.519 345.035 138.142 344.59 141.606C342.795 155.599 338.663 169.4 339.778 183.639C340.435 192.029 341.887 200.365 342.635 208.752C342.966 212.473 340.191 214.528 336.621 215.918C332.961 217.339 328.012 218.447 328.888 223.251C329.996 229.323 335.495 231.032 341.418 231.649C342.277 231.739 343.126 231.885 343.979 232.007C343.475 232.686 343.071 233.456 342.454 234.032C332.827 243.053 319.516 242.262 313.799 229.848C305.138 211.048 288.863 200.665 271.639 190.315C264.68 186.133 258.84 180.349 263.167 171.997C267.633 163.374 276.882 164.986 284.467 166.575C304.777 170.83 324.963 165.554 330.491 153.56C335.477 142.743 336.19 130.968 339.309 119.735C340.799 114.37 342.928 109.268 346.615 104.903V83.7763C342.975 89.9644 339.245 96.1146 335.928 102.444C330.54 112.721 329.001 124.014 326.313 135.028L326.319 135.025ZM27.8674 142.668C27.7889 148.888 30.5819 156.133 32.8571 163.488C33.823 166.61 35.8538 170.797 31.9028 172.547C28.0507 174.253 25.7493 170.318 24.1433 167.539C11.6037 145.833 14.9292 112.58 45.5247 105.745C63.7144 101.683 78.9364 109.284 92.4536 119.464C108.06 131.218 116.535 147.307 122.424 164.69C122.616 165.259 122.659 165.874 122.773 166.467C122.089 166.256 121.312 166.172 120.73 165.814C108.351 158.226 102.485 145.712 94.0421 135.231C81.424 119.559 57.2438 110.202 42.9644 116.883C32.2723 121.885 27.8383 130.332 27.8616 142.668H27.8674ZM139.892 196.281C143.037 199.222 147.485 204.208 142.894 207.444C136.301 212.096 130.937 205.925 126.54 202.166C107.836 186.166 95.1652 165.83 80.5046 146.914C74.7091 139.437 67.7235 132.482 57.5173 130.272C48.1548 128.247 45.1232 135.334 41.6086 141.257C40.5612 143.022 40.2441 146.026 37.6576 145.714C36.7179 145.601 35.7548 141.888 35.7199 139.802C35.5308 128.458 42.9557 121.2 57.8839 121.2C72.2564 122.208 83.8243 132.661 92.954 144.94C106.791 163.553 122.784 180.284 139.892 196.278V196.281Z" fill="#1C1C1E"/>
<path d="M138.239 343.212C153.906 332.36 154.442 328.485 142.862 313.148C133.243 300.409 128.868 287.313 134.948 271.949C140.508 257.9 136.423 252.066 120.233 251.931C99.4506 251.757 86.1022 242.929 78.7413 225.437C72.4075 210.391 57.0051 202.515 40.337 206.29C31.4458 208.305 27.9633 214.881 29.8602 222.553C31.5535 229.402 38.2015 226.889 43.069 225.93C56.2865 223.322 68.0929 224.235 76.6698 235.422C82.0959 242.501 87.9497 249.198 97.1027 252.556C104.077 255.116 111.021 257.84 116.529 262.696C128.684 273.409 126.639 287.887 128.108 301.333C131.239 329.99 116.526 353.679 102.415 377.437C99.6659 382.065 95.7323 387.595 89.1018 383.891C82.8145 380.376 84.9239 374.252 88.0573 369.437C98.505 353.392 109.503 337.806 113.526 318.819C116.962 302.6 112.622 286.175 101.478 278.647C80.0389 264.161 55.7773 260.402 29.9475 261.187C14.1028 261.667 6.95144 253.269 11.9906 239.411C20.0613 217.218 19.5027 196.977 -0.627602 180.203C-11.0491 171.518 -23.3589 164.728 -31.8486 154.11C-39.2676 144.832 -48.7407 140.507 -61.449 142.313C-71.1083 143.686 -79.8336 147.38 -88.7539 150.633V158.825C-82.0099 153.698 -74.6985 149.714 -65.6735 148.677C-54.4373 147.388 -44.071 149.631 -36.4222 157.159C-22.841 170.524 -4.45348 178.979 7.40531 193.939C16.279 205.137 13.9748 217.188 8.26649 228.524C1.48463 241.997 2.73277 254.766 9.20623 267.706C9.61064 268.513 9.70375 269.45 9.94523 270.327C8.96185 270.092 7.91737 269.981 7.00671 269.604C-3.85996 265.101 -8.11935 247.43 -1.83501 233.93C4.45806 220.405 12.6597 206.87 -0.0893555 192.622C-8.78561 182.903 -20.9528 177.235 -31.5082 169.684C-39.5324 163.946 -46.2968 155.978 -57.4282 155.559C-72.2197 154.998 -81.8324 162.313 -88.7481 173.172L-88.7481 227.693C-86.8191 222.542 -84.8175 217.41 -83.2027 212.178C-80.142 202.266 -84.9135 192.417 -83.9505 182.518C-83.0078 172.847 -77.4246 165.698 -68.3443 161.051C-62.767 158.196 -56.983 158.288 -51.4755 161.75C-49.3138 163.109 -47.9813 164.88 -48.3566 167.19C-48.8076 169.952 -51.3068 171.082 -53.9689 171.686C-72.0044 175.778 -75.8041 180.555 -70.8435 197.056C-67.6053 207.831 -73.7035 215.818 -77.5381 224.5C-85.8736 243.373 -72.819 262.016 -50.8413 262.103C-45.5403 262.124 -40.2248 262.441 -34.9413 262.899C-31.2609 263.218 -27.0335 263.879 -27.7463 268.534C-28.398 272.792 -32.6661 274.36 -36.5182 274.23C-57.8268 273.507 -82.5888 269.737 -88.7423 246.677V263.806C-72.4117 275.711 -53.6721 280.805 -32.9396 278.936C-25.1889 278.238 -17.9386 274.303 -19.2828 265.867C-20.7375 256.732 -30.2048 257.937 -37.3183 256.971C-50.2041 255.221 -64.7657 256.914 -71.9869 243.476C-76.7584 234.601 -73.4795 226.13 -67.4919 218.927C-62.3277 212.714 -60.4045 206.737 -61.321 198.689C-63.3489 180.896 -53.7594 174.518 -33.4575 178.833C-14.9187 182.77 1.02786 196.647 0.742737 208.888C0.53035 218.028 -6.44353 224.736 -9.90282 232.711C-16.6498 248.261 -9.34713 260.792 0.812561 272.583C16.2441 290.498 28.6702 309.682 30.8872 333.151C31.0938 335.328 30.7418 337.92 28.1262 338.415C25.1993 338.971 24.3847 336.276 23.6224 334.288C19.427 323.345 16.7998 311.878 10.4573 301.658C0.958031 286.349 -13.5251 284.64 -30.8506 287.221C-51.2864 290.265 -70.7242 285.994 -88.7394 276.529V285.534C-69.1008 292.789 -48.2839 291.716 -27.7259 292.623C-15.7566 293.149 -4.26147 295.535 4.67046 303.556C23.1365 320.146 22.3597 345.083 3.36412 363.509C0.780556 366.017 -4.43603 369.313 -1.09602 372.99C2.28182 376.709 6.57903 372.996 9.97141 370.735C12.2873 369.188 14.6527 367.661 16.7416 365.873C27.8294 356.381 40.8229 347.886 39.086 331.358C38.0328 321.327 31.2945 313.495 26.7413 304.843C16.8813 286.113 29.6013 267.218 52.2424 267.218C80.2426 267.218 99.9888 293.666 93.9401 320.325C89.7535 338.773 79.4891 355.114 75.3315 373.426C72.9894 383.734 80.6295 396.145 91.8075 398.715C101.167 400.865 109.09 394.859 112.325 383.812C116.913 368.14 123.357 353.532 138.259 343.212H138.239Z" fill="#1C1C1E"/>
<path d="M323.742 39.4168C304.918 58.9398 285.789 69.2552 260.125 53.1363C246.261 44.4296 241.531 24.9472 248.545 5.78432C249.366 3.54198 249.956 1.2238 250.588 -1.07812L227.289 -1.07812C229.166 8.32727 230.859 17.7679 233.035 27.1164C238.758 51.6928 258.356 70.5145 284.346 72.4887C305.707 74.1109 319.57 61.0495 330.597 45.437C333.672 41.0823 336.762 34.7886 344.251 37.3722C346.59 38.1792 347.713 39.666 348.164 41.4263V28.0805C337.111 25.849 330.146 32.7683 323.739 39.4141L323.742 39.4168Z" fill="#373FEF"/>
<path d="M321.569 89.4008C300.72 107.813 254.976 103.816 238.497 82.0698C229.341 69.9888 219.632 58.2462 209.664 46.7231C206.726 43.3271 200.823 40.1694 197.192 44.1585C193.43 48.2938 200.057 50.0243 202.789 52.486C207.767 56.9707 213.426 61.0546 217.377 66.2299C232.625 86.2052 249.261 104.204 277.183 109.146C282.112 110.018 287.238 112 285.565 117.785C284.27 122.264 279.319 122.521 275.056 121.712C251.723 117.287 236.018 102.985 221.776 86.7143C213.653 77.4335 207.421 66.154 194.294 61.7181C183.468 58.0594 172.933 63.2617 162.191 63.7248C153.309 64.1067 143.487 62.5332 135.975 67.8737C130.377 71.8547 127.22 78.8146 121.529 82.6087C106.249 92.7941 89.0194 89.3141 72.7034 85.4875C54.7377 81.2736 37.2143 77.5174 18.498 81.4849C1.0182 85.1923 -16.5052 84.9703 -33.15 77.5581C-36.0449 76.269 -38.739 74.2595 -37.9651 70.8987C-37.1679 67.4269 -33.8221 66.9746 -30.5374 66.9882C-17.0318 67.0477 -3.87253 70.7823 9.84538 69.504C22.7254 68.3016 32.2013 60.3721 29.8709 51.3323C25.821 35.6224 34.6976 18.2848 50.9904 12.6871C67.1609 7.13267 84.8269 10.2335 101.486 6.85914C109.339 5.26675 117.418 4.19974 123.516 -1.07031L97.8757 -1.07031C89.258 1.85178 80.1049 2.55319 71.1061 2.7238C42.7713 3.26002 24.4914 15.0865 15.8912 40.3264C10.3865 56.4805 -1.3937 61.9727 -25.1287 60.9652C-33.569 60.6077 -43.525 58.0458 -45.8758 68.5345C-48.0462 78.2297 -38.2851 80.8214 -30.8079 83.6866C-20.2438 87.738 -11.5127 93.8855 -3.18882 101.046C5.25141 108.306 11.3903 100.65 17.5524 96.6261C37.9736 83.2831 60.1143 85.2763 80.4861 94.0209C104.017 104.122 121.494 99.7649 139.585 84.082C157.903 68.2014 186.613 66.2136 204.145 78.2243C217.834 87.6026 225.663 102.227 237.743 113.165C252.127 126.188 265.287 141.519 287.04 143.905C302.585 145.608 308.905 134.697 313.149 123.364C320.365 104.095 334.307 88.1496 343.483 69.8777C345.118 66.6226 346.646 63.324 348.173 60.0255V46.4143C348.06 47.1158 347.92 47.8063 347.777 48.4671C344.269 64.9029 334.574 77.9264 321.575 89.4062L321.569 89.4008Z" fill="#373FEF"/>
<path d="M287.179 233.236C283.388 222.942 281.491 211.614 270.849 204.567C258.458 196.359 243.512 191.931 232.191 182.071C226.832 177.402 221.104 172.411 212.876 173.221C202.003 174.288 197.607 183.07 191.459 189.591C180.087 201.654 170.672 216.329 153.221 221.388C129.698 228.21 111.738 216.662 95.3177 203.008C79.7988 190.103 73.1275 171.886 62.7176 155.913C61.4462 153.963 59.6104 151.962 56.9017 152.455C55.7758 152.66 54.4927 154.589 54.2134 155.902C51.8626 166.93 52.2786 178.407 47.3501 189.039C45.5957 192.822 48.6011 194.734 52.2845 195.035C70.1687 196.508 82.9439 203.815 89.0741 220.183C92.6526 229.742 97.8663 239.245 109.847 241.493C118.226 243.067 127.109 242.465 135.773 242.612C146.838 242.798 152.101 248.112 150.047 257.942C148.225 266.638 144.53 275.153 143.922 283.881C142.616 302.646 156.413 314.071 170.541 324.549C177.232 329.513 184.768 328.658 190.613 322.369C194.474 318.218 193.065 313.774 190.011 309.828C186.362 305.118 181.093 301.135 178.722 295.981C166.392 269.195 172.295 243.183 187.017 219.286C200.127 198.006 217.967 193.367 235.569 203.059C251.862 212.031 256.558 227.451 262.057 242.557C269.409 262.752 279.667 280.463 304.938 285.926C318.569 288.872 330.041 295.204 332.412 309.229C334.556 321.909 325.435 329.941 316.442 337.884C308.843 344.6 300.275 350.829 296.495 360.329C289.9 376.911 298.898 389.223 309.678 400.927L325.374 400.927C319.878 397.455 314.135 394.26 310.225 389.036C298.631 373.548 301.38 360.316 317.839 348.625C328.999 340.698 339.668 332.184 348.556 322.009V283.954C322.828 289.592 302.963 278.977 285.64 262.803C274.576 252.477 270.508 238.157 263.261 225.645C253.651 209.052 241.306 195.059 219.806 191.354C204.04 188.638 196.365 198.948 188.407 208.735C182.65 215.82 178.641 224.865 167.445 226.428C165.665 226.677 163.698 225.783 161.818 225.418C162.243 224.6 162.458 223.568 163.136 223.007C164.681 221.721 166.505 220.73 168.117 219.506C178.274 211.782 185.78 201.897 193.976 192.565C205.177 179.81 218.721 180.202 238.185 190.39C263.657 203.725 276.33 225.908 289.475 248.044C299.14 264.317 326.398 279.464 348.562 270.519V257.891C322.86 269.273 295.8 256.613 287.185 233.225L287.179 233.236ZM167.73 258.582C158.548 279.193 161.082 296.339 178.661 311.661C180.651 313.394 183.555 317.004 180.671 318.502C175.693 321.094 171.472 317.072 167.879 314.204C149.552 299.58 146.535 282.362 156.049 261.891C159.703 254.029 164.795 243.061 150.736 238.257C143.553 235.803 135.281 236.052 127.505 235.08C118.197 234.666 108.436 235.205 101.253 228.285C98.2096 225.355 95.2595 221.407 97.907 217.629C100.502 213.924 104.846 216.386 108.038 218.011C120.99 224.61 135.107 226.945 149.552 228.938C166.674 231.3 174.66 243.02 167.73 258.576V258.582Z" fill="#1C1C1E"/>
<path d="M304.765 328.608C318.748 317.424 318.8 305.765 301.64 299.487C275.968 290.093 257.315 275.539 249.503 250.389C245.762 238.348 245.52 224.81 234.133 215.687C229.67 212.112 223.199 207.665 218.713 211.963C215.885 214.668 223.493 218.189 226.763 221.008C233.801 227.074 237.872 234.097 233.941 242.852C230.252 251.06 228.081 259.033 231.724 267.732C239.224 285.635 252.701 300.974 256.474 320.625C259.701 337.426 249.678 356.711 232.067 361.937C218.265 366.035 203.532 362.698 189.543 365.889C167.176 370.988 148.599 380.575 138.975 400.932H149.361C157.548 385.544 172.736 378.552 189.616 374.682C212.446 369.45 235.882 366.433 258.854 373.266C272.948 377.458 280.265 388.48 284.873 400.932H293.828C270.678 372.334 278.283 349.791 304.765 328.608ZM265.805 355.985C261.351 353.816 261.845 349.794 263.37 346.365C274.731 320.847 261.624 300.798 246.713 280.945C241.689 274.253 236.629 267.315 237.426 258.421C237.595 256.536 238.529 254.825 240.179 254.838C241.66 254.849 243.784 256.122 244.499 257.378C253.92 273.909 268.997 286.754 279.206 302.737C282.848 308.441 284.643 314.737 284.684 322.198C284.236 332.952 279.773 343.311 272.869 352.792C271.394 354.818 269.174 357.629 265.802 355.988L265.805 355.985Z" fill="#373FEF"/>
<path d="M208.271 348.777C219.99 348.325 231.704 346.293 238.16 335.886C245.55 323.981 239.966 312.826 233.042 302.779C220.214 284.166 208.056 266.1 218.553 242.401C221.399 235.98 218.105 227.693 209.967 224.224C202.962 221.237 195.883 224.153 193.122 230.117C184.196 249.404 187.419 269.788 189.107 289.831C189.45 293.912 193.547 298.199 198.888 297.398C202.423 296.867 201.879 292.458 201.198 289.872C197.381 275.351 195.007 260.738 197.562 245.843C198.321 241.429 197.757 234.631 204.576 234.645C211.675 234.661 211.137 241.104 210.695 245.726C209.383 259.394 207.765 272.865 212.848 286.389C223.505 314.754 215.635 331.431 183.986 338.478C146.603 346.803 127.136 367.888 120.203 400.922H126.167C126.205 400.697 126.255 400.475 126.327 400.259C135.949 372.414 171.624 350.182 208.271 348.769V348.777Z" fill="#1C1C1E"/>
<path d="M61.0657 379.757C65.3746 366.812 71.9964 354.495 75.9241 341.472C81.3676 323.419 85.5427 304.993 72.2466 287.745C64.7752 278.055 48.1828 274.71 38.0086 281.148C29.9873 286.223 29.001 296.863 36.132 306.128C41.945 313.683 49.9954 319.996 50.714 330.179C51.84 346.154 41.1478 356.361 30.0979 366.471C15.0736 380.214 14.1775 384.228 23.4411 400.929H38.0726C29.548 385.086 40.4816 373.314 48.4738 360.689C62.6601 338.273 60.9726 323.825 42.6491 301.946C40.0888 298.891 36.5131 294.737 40.3943 291.596C45.093 287.796 50.4376 291.04 54.0278 294.407C70.1402 309.507 70.5533 327.858 66.5471 347.202C63.8588 360.182 54.377 370.554 51.0166 383.212C49.2913 389.709 51.6916 395.396 54.8396 400.929H68.2782C62.8201 394.749 58.3745 387.857 61.0715 379.754L61.0657 379.757Z" fill="#373FEF"/>
<path d="M43.1073 51.5478C45.3679 65.5895 60.4939 75.9617 78.6313 76.5602C90.2078 76.9421 101.968 79.2278 112.383 72.4601C117.993 68.8149 118.15 61.1021 124.405 57.9065C133.483 53.2702 143.424 56.1543 152.961 55.564C165.472 54.7894 176.632 51.6317 183.987 41.5439C194.831 26.6735 193.387 16.7318 177.685 -1.07422L140.43 -1.07422C137.387 1.50123 134.448 4.22292 131.018 6.24049C112.957 16.851 92.1164 17.1652 71.7912 19.05C53.2931 20.7643 40.4451 35.0308 43.1043 51.5478H43.1073ZM134.259 12.7211C142.729 8.23097 150.395 2.05911 160.773 1.7585C172.105 1.42811 181.325 4.97578 184.537 15.9357C187.72 26.8007 182.498 35.1743 173.347 41.6008C165.207 47.3177 155.475 48.2872 145.592 48.3684C134.411 48.409 122.174 45.3624 113.736 55.0088C108.936 60.4982 107.9 68.4006 98.6161 70.8596C79.7543 75.8615 56.959 66.5347 52.3738 51.2093C48.7835 39.2095 59.3069 28.1007 77.4326 24.2118C96.3293 20.1577 116.681 22.0398 134.259 12.7238V12.7211Z" fill="#1C1C1E"/>
<path d="M-30.502 49.3337C-22.7426 53.637 -12.8535 51.3161 -5.42576 45.3528C4.28007 37.5587 6.83454 25.8189 13.0403 16.0804C17.2503 9.47521 22.7287 4.00746 28.7512 -1.07031L-19.9641 -1.07031C-12.7546 11.7717 -18.9109 22.412 -27.0398 33.2852C-30.4089 37.7889 -40.4814 43.8064 -30.505 49.3364L-30.502 49.3337Z" fill="#373FEF"/>
<path d="M-84.0494 381.308C-56.1131 379.407 -29.5239 371.651 -6.3446 358.175C12.427 347.264 18.0712 327.449 -2.9464 311.519C-16.7429 301.063 -33.1054 299.771 -50.0063 299.641C-62.9532 299.544 -76.0834 301.172 -88.7539 297.348V305.266C-87.4272 305.689 -86.1034 306.125 -84.7476 306.439C-66.0284 310.796 -46.7244 307.243 -27.8685 309.984C-14.9856 311.855 -2.77474 320.914 -0.720695 331.722C1.14133 341.523 -3.30135 349.859 -12.082 355.186C-35.3602 369.303 -60.7682 376.079 -88.7539 372.418V380.772C-87.177 381.057 -85.5943 381.411 -84.0494 381.306V381.308Z" fill="#373FEF"/>
<path d="M332.589 64.4401C333.421 63.3108 334.015 62.0326 334.719 60.822C333.616 61.6101 332.49 62.3738 331.414 63.1889C328.816 65.1578 326.258 67.1726 323.651 69.1333C297.001 89.1872 268.084 87.7221 243.602 65.564C223.256 47.1513 218.613 22.7617 212.355 -1.07812L193.574 -1.07812C202.07 23.176 220.414 42.0843 235.185 62.9046C260.156 98.1051 307.28 98.7496 332.589 64.4374V64.4401Z" fill="#1C1C1E"/>
<path d="M302.482 32.4731C296.404 39.7201 288.174 44.4892 277.708 41.7485C267.229 39.0052 262.998 31.6146 263.522 21.887C263.999 13.0395 269.94 6.30158 274.211 -1.07812L263.714 -1.07812C262.111 2.97326 260.683 7.10319 258.652 10.965C251.66 24.2512 255.335 39.165 267.569 45.9462C280.58 53.158 297.44 49.1391 307.332 37.6673C317.771 25.5646 329.479 14.7266 348.166 16.4869V5.50809C328.626 8.06729 314.367 18.3041 302.482 32.4758V32.4731Z" fill="#1C1C1E"/>
<path d="M254.602 388.167C235.039 379.208 214.565 381.849 194.342 385.353C183.007 387.319 172.434 391.373 165.861 400.936H181.232C192.776 392.871 206.477 391.901 220.337 391.709C229.912 391.573 238.347 394.173 244.718 400.936H268.069C265.608 394.934 260.612 390.921 254.602 388.167Z" fill="#1C1C1E"/>
<path d="M-37.6722 379.116C-54.7098 382.878 -70.3974 392.015 -88.75 390.588V396.603C-76.0475 398.209 -64.8695 392.966 -53.3569 389.388C-33.9656 383.36 -17.123 387.271 -4.46703 400.931H8.74174C5.28244 386.158 -18.9792 374.989 -37.6722 379.116Z" fill="#373FEF"/>
<path d="M164.941 153.347C166.753 157.951 169.238 163.026 175.022 164.066C179.235 164.822 180.846 160.442 182.967 157.761C188.737 150.468 195.717 144.974 205.821 143.582C209.603 143.062 216.574 144.586 213.717 137.805C209.271 127.251 198.166 127.853 189.941 126.91C167.577 126.91 158.517 137.028 164.941 153.347Z" fill="#373FEF"/>
<path d="M32.2206 247.694C43.8903 250.161 55.6036 252.484 67.378 254.472C71.4018 255.152 75.7717 254.754 75.1724 249.132C74.2035 240.032 67.637 236.625 58.7662 235.637C51.1115 234.426 43.4364 234.537 35.8923 236.005C31.9122 236.78 26.9109 237.251 26.3116 242.256C25.8955 245.746 29.3519 247.09 32.2177 247.696L32.2206 247.694Z" fill="#373FEF"/>
<path d="M91.2166 60.1789C98.2777 57.552 98.7636 49.7363 103.753 45.3383C114.992 35.4346 128.975 37.4494 142.559 37.7175C149.856 38.0723 156.99 37.528 163.309 33.7311C169.559 29.9776 174.455 25.3305 171.898 17.7097C170.463 13.4417 166.259 12.242 161.956 12.8649C154.462 13.9508 148.733 18.6143 142.297 21.8586C124.346 30.9065 103.628 29.1571 84.714 34.3107C77.3416 36.3201 66.5622 37.2219 68.4358 47.892C70.1349 57.5601 82.2352 63.5181 91.2137 60.1789H91.2166Z" fill="#373FEF"/>
</g>
<defs>
<clipPath id="clip0_2578_1859">
<rect x="0.00195312" width="260" height="390" rx="16" fill="white"/>
</clipPath>
</defs>
</svg>
