<svg width="219" height="334" viewBox="0 0 219 334" fill="none" xmlns="http://www.w3.org/2000/svg">
<path d="M218.8 0.898438H0V333.298H218.8V0.898438Z" fill="#221F1F"/>
<path d="M45 279.902C45.2 279.902 45.2 280.202 45 280.202C43.7 280.502 42.5 281.202 41.5 282.102C40.6 283.002 39.9 284.202 39.6 285.602C39.6 285.802 39.3 285.802 39.3 285.602C39 284.302 38.3 283.102 37.4 282.102C36.5 281.202 35.3 280.502 33.9 280.202C33.7 280.202 33.7 279.902 33.9 279.902C35.2 279.602 36.4 278.902 37.4 278.002C38.3 277.102 39 275.902 39.3 274.502C39.3 274.302 39.6 274.302 39.6 274.502C39.9 275.802 40.6 277.002 41.5 278.002C42.5 278.902 43.7 279.602 45 279.902Z" fill="#EFEBE2"/>
<path d="M81.0016 101.802C81.1016 101.802 81.1016 102.002 81.0016 102.002C80.0016 102.202 79.1016 102.702 78.4016 103.402C77.7016 104.102 77.2016 105.002 77.0016 106.002C77.0016 106.102 76.8016 106.102 76.8016 106.002C76.6016 105.002 76.1016 104.102 75.4016 103.402C74.7016 102.702 73.8016 102.202 72.8016 102.002C72.7016 102.002 72.7016 101.802 72.8016 101.802C73.8016 101.602 74.7016 101.102 75.4016 100.402C76.1016 99.7016 76.6016 98.8016 76.8016 97.8016C76.8016 97.7016 77.0016 97.7016 77.0016 97.8016C77.2016 98.8016 77.7016 99.7016 78.4016 100.402C79.1016 101.102 80.0016 101.602 81.0016 101.802Z" fill="#EFEBE2"/>
<path d="M174.698 148.399C174.898 148.399 174.898 148.699 174.698 148.699C172.998 148.999 171.498 149.899 170.298 151.099C169.098 152.299 168.298 153.799 167.898 155.599C167.898 155.799 167.598 155.799 167.598 155.599C167.298 153.899 166.398 152.299 165.198 151.099C163.998 149.899 162.498 149.099 160.798 148.699C160.598 148.699 160.598 148.399 160.798 148.399C162.498 148.099 163.998 147.199 165.198 145.999C166.398 144.799 167.198 143.299 167.498 141.599C167.498 141.399 167.798 141.399 167.798 141.599C168.098 143.299 168.998 144.799 170.098 145.999C171.398 147.199 172.898 148.099 174.698 148.399Z" fill="#EFEBE2"/>
<path d="M139.9 199.202C141.1 196.802 141.6 194.302 141.3 191.802L140.4 186.302L139.7 181.802C139.1 177.502 135.9 173.802 130.8 171.102C133.9 162.302 124.2 148.202 107.8 138.402C90.4001 128.002 72.1001 126.602 67.0001 135.102L65.0001 138.402L62.7001 142.502C58.5001 149.602 64.5001 161.202 76.5001 170.902C61.6001 176.402 51.9001 185.502 53.1001 194.302L53.8001 198.802L54.7001 204.302C55.5001 210.002 60.9001 214.602 68.9001 217.302C59.8001 221.602 54.1001 227.702 54.1001 234.402V239.502L54.2001 245.702C54.2001 251.202 58.0001 256.302 64.3001 260.402V262.202C64.2001 275.402 85.9001 286.202 112.7 286.302C139.5 286.402 161.3 275.802 161.3 262.602L161.2 256.402V251.302C161.2 248.802 160.5 246.402 159.1 244.202C161.2 242.302 162.6 240.002 163.2 237.502L164.4 231.702L165.5 227.002C167.7 217.302 156.9 206.202 139.9 199.202Z" fill="#EFEBE2" stroke="#EFEBE2" stroke-width="2" stroke-miterlimit="10" stroke-linecap="round"/>
<path d="M111.9 117.502L113.2 120.102L114.9 123.302C118.3 130.102 132.3 129.902 146.1 122.902C159.9 115.902 168.3 104.702 164.8 97.9024L163.1 94.7024L161.8 92.1024C158.4 85.3024 144.4 85.5024 130.6 92.5024C116.8 99.5024 108.5 110.602 111.9 117.502Z" fill="#EFEBE2" stroke="#EFEBE2" stroke-width="2" stroke-miterlimit="10" stroke-linecap="round"/>
<path d="M106.7 85.5013L108.8 83.7013L110.6 82.3013C115.1 78.6013 112.7 68.1013 105.1 58.9013C97.5004 49.7013 87.7004 45.3013 83.1004 49.0013L81.3004 50.4013L79.2004 52.2013C74.7004 55.9013 77.1004 66.4013 84.7004 75.6013C92.3004 84.8013 102.1 89.3013 106.7 85.5013Z" fill="#EFEBE2" stroke="#EFEBE2" stroke-width="2" stroke-miterlimit="10" stroke-linecap="round"/>
<path d="M161.201 256.5L161.301 262.8L158.801 266.9L158.901 259.9L161.201 256.5Z" fill="#373FEF"/>
<path d="M64.2012 256.199L64.4012 262.399L67.7012 265.899V259.999L64.2012 256.199Z" fill="#373FEF"/>
<path d="M161.301 251.402L161.201 256.502L157.001 260.502L157.301 253.302L161.301 251.402Z" fill="#EFEBE2"/>
<path d="M64.3011 251.102L64.2012 256.202L67.5012 259.802L66.3011 253.502L64.3011 251.102Z" fill="#EFEBE2"/>
<path d="M161.371 262.688C161.414 249.488 139.735 238.718 112.949 238.631C86.1632 238.544 64.4143 249.174 64.3715 262.373C64.3286 275.573 86.0081 286.344 112.794 286.431C139.58 286.518 161.329 275.888 161.371 262.688Z" fill="#373FEF"/>
<path d="M161.186 256.536C161.229 243.336 139.549 232.565 112.763 232.478C85.9776 232.392 64.2287 243.021 64.1859 256.221C64.1431 269.421 85.8226 280.192 112.608 280.278C139.394 280.365 161.143 269.735 161.186 256.536Z" fill="#EFEBE2"/>
<path d="M161.315 251.368C161.358 238.168 139.678 227.397 112.892 227.31C86.1065 227.224 64.3576 237.854 64.3148 251.053C64.272 264.253 85.9515 275.024 112.737 275.11C139.523 275.197 161.272 264.567 161.315 251.368Z" fill="#221F1F"/>
<path d="M150.578 251.266C150.609 241.878 133.756 234.209 112.935 234.139C92.1138 234.069 75.2092 241.623 75.1775 251.012C75.1458 260.401 91.999 268.069 112.82 268.139C133.641 268.209 150.546 260.655 150.578 251.266Z" stroke="#EFEBE2" stroke-width="1.9287" stroke-miterlimit="10"/>
<path d="M151.101 240.102L151.201 246.302L148.701 250.402V243.402L151.101 240.102Z" fill="#373FEF"/>
<path d="M54.1006 239.699L54.2006 245.899L57.5006 249.499L57.6006 243.499L54.1006 239.699Z" fill="#373FEF"/>
<path d="M151.1 235V240.1L146.9 244L147.2 236.8L151.1 235Z" fill="#EFEBE2"/>
<path d="M54.1006 234.602V239.702L57.3006 243.302L56.1006 237.002L54.1006 234.602Z" fill="#EFEBE2"/>
<path d="M151.182 246.274C151.225 233.074 129.545 222.304 102.76 222.217C75.9737 222.13 54.2248 232.76 54.182 245.959C54.1392 259.159 75.8187 269.93 102.604 270.017C129.39 270.104 151.139 259.474 151.182 246.274Z" fill="#373FEF"/>
<path d="M151.096 240.02C151.139 226.82 129.459 216.05 102.674 215.963C75.8878 215.876 54.1389 226.506 54.0961 239.706C54.0533 252.905 75.7327 263.676 102.519 263.763C129.304 263.85 151.053 253.22 151.096 240.02Z" fill="#EFEBE2"/>
<path d="M151.124 234.954C151.167 221.754 129.488 210.983 102.702 210.896C75.9161 210.809 54.1672 221.439 54.1244 234.639C54.0816 247.839 75.7611 258.609 102.547 258.696C129.333 258.783 151.082 248.153 151.124 234.954Z" fill="#221F1F"/>
<path d="M140.488 234.755C140.519 225.366 123.666 217.698 102.845 217.627C82.024 217.557 65.1194 225.111 65.0877 234.5C65.056 243.889 81.9091 251.557 102.73 251.627C123.551 251.698 140.456 244.143 140.488 234.755Z" stroke="#EFEBE2" stroke-width="1.9287" stroke-miterlimit="10"/>
<path d="M164.401 231.801L163.201 237.601L160.101 241.001L161.501 234.401L164.401 231.801Z" fill="#373FEF"/>
<path d="M74.2006 211.402L73.1006 217.302L75.5006 221.302L76.7006 215.702L74.2006 211.402Z" fill="#373FEF"/>
<path d="M165.501 227.102L164.401 231.802L159.701 234.602L161.501 228.002L165.501 227.102Z" fill="#EFEBE2"/>
<path d="M75.3011 206.703L74.2012 211.403L76.5012 215.503L76.7012 209.403L75.3011 206.703Z" fill="#EFEBE2"/>
<path d="M163.274 237.555C166.04 225.27 148.102 210.769 123.209 205.166C98.3156 199.563 75.8942 204.979 73.1289 217.264C70.3637 229.549 88.3018 244.05 113.195 249.653C138.088 255.257 160.509 249.84 163.274 237.555Z" fill="#373FEF"/>
<path d="M164.359 231.786C167.125 219.501 149.186 205 124.294 199.396C99.4005 193.793 76.9791 199.21 74.2139 211.495C71.4487 223.779 89.3868 238.281 114.28 243.884C139.173 249.487 161.594 244.07 164.359 231.786Z" fill="#EFEBE2"/>
<path d="M165.48 227.04C168.246 214.755 150.308 200.254 125.415 194.65C100.522 189.047 78.1002 194.464 75.335 206.748C72.5698 219.033 90.5079 233.534 115.401 239.138C140.294 244.741 162.715 239.324 165.48 227.04Z" fill="#221F1F"/>
<path d="M155.743 224.673C157.71 215.945 143.58 205.326 124.183 200.956C104.785 196.586 87.4668 200.119 85.5002 208.848C83.5336 217.576 97.6639 228.195 117.061 232.565C136.458 236.935 153.777 233.402 155.743 224.673Z" stroke="#EFEBE2" stroke-width="1.8382" stroke-miterlimit="10"/>
<path d="M140.301 186.301L141.301 191.801L139.601 195.901L138.701 189.601L140.301 186.301Z" fill="#373FEF"/>
<path d="M53.8008 198.898L54.7008 204.498L58.2008 207.198L57.4008 201.898L53.8008 198.898Z" fill="#373FEF"/>
<path d="M139.701 181.699L140.301 186.299L137.101 190.399L136.401 183.899L139.701 181.699Z" fill="#EFEBE2"/>
<path d="M53.1006 194.398L53.8006 198.898L57.2006 201.698L55.2006 196.298L53.1006 194.398Z" fill="#EFEBE2"/>
<path d="M101.137 219.608C125.016 216.103 142.97 203.694 141.238 191.891C139.506 180.089 118.744 173.361 94.8647 176.866C70.9857 180.37 53.0321 192.779 54.7642 204.582C56.4964 216.385 77.2583 223.112 101.137 219.608Z" fill="#373FEF"/>
<path d="M100.229 214.002C124.108 210.498 142.062 198.089 140.33 186.286C138.597 174.483 117.835 167.756 93.9565 171.26C70.0774 174.765 52.1239 187.174 53.856 198.977C55.5882 210.779 76.3501 217.507 100.229 214.002Z" fill="#EFEBE2"/>
<path d="M99.5368 209.51C123.416 206.006 141.369 193.597 139.637 181.794C137.905 169.991 117.143 163.264 93.2641 166.768C69.3851 170.272 51.4315 182.681 53.1637 194.484C54.8958 206.287 75.6578 213.014 99.5368 209.51Z" fill="#221F1F"/>
<path d="M98.7142 203.146C117.293 200.421 131.353 191.39 130.119 182.975C128.885 174.56 112.824 169.947 94.2451 172.672C75.6664 175.397 61.6059 184.427 62.84 192.842C64.0741 201.257 80.1355 205.87 98.7142 203.146Z" stroke="#EFEBE2" stroke-width="1.7391" stroke-miterlimit="10"/>
<path d="M128.101 176L125.701 180.1L122.501 181.8L125.201 177.2L128.101 176Z" fill="#373FEF"/>
<path d="M65.0012 138.402L62.7012 142.502L63.5012 146.102L65.8011 142.202L65.0012 138.402Z" fill="#373FEF"/>
<path d="M130.001 172.701L128.101 176.001L123.801 176.901L126.801 172.301L130.001 172.701Z" fill="#EFEBE2"/>
<path d="M67.001 135.102L65.001 138.402L65.801 142.002L67.401 137.402L67.001 135.102Z" fill="#EFEBE2"/>
<path d="M125.718 180.093C130.83 171.503 120.855 156.137 103.438 145.771C86.0206 135.406 67.7572 133.966 62.645 142.556C57.5329 151.146 67.508 166.512 84.925 176.878C102.342 187.243 120.606 188.683 125.718 180.093Z" fill="#373FEF"/>
<path d="M128.034 176.007C133.146 167.417 123.171 152.051 105.754 141.685C88.337 131.32 70.0735 129.88 64.9614 138.47C59.8493 147.06 69.8244 162.426 87.2414 172.792C104.658 183.157 122.922 184.597 128.034 176.007Z" fill="#EFEBE2"/>
<path d="M130.032 172.687C135.144 164.097 125.169 148.73 107.752 138.365C90.3351 127.999 72.0716 126.56 66.9595 135.15C61.8473 143.74 71.8224 159.106 89.2394 169.472C106.656 179.837 124.92 181.276 130.032 172.687Z" fill="#221F1F"/>
<path d="M123.238 168.48C126.883 162.358 118.874 150.868 105.351 142.816C91.8266 134.763 77.9086 133.197 74.2637 139.319C70.6188 145.44 78.6274 156.93 92.1513 164.983C105.675 173.036 119.593 174.601 123.238 168.48Z" stroke="#EFEBE2" stroke-width="1.4592" stroke-miterlimit="10"/>
<path d="M163.101 94.7031L164.801 97.9031L164.601 100.703L162.801 97.1031L163.101 94.7031Z" fill="#373FEF"/>
<path d="M113.201 120.102L114.901 123.202L117.601 124.202L116.001 121.102L113.201 120.102Z" fill="#373FEF"/>
<path d="M161.801 92.1016L163.101 94.7016L162.001 97.9016L160.301 94.1016L161.801 92.1016Z" fill="#EFEBE2"/>
<path d="M111.901 117.504L113.201 120.104L115.801 121.104L113.601 118.204L111.901 117.504Z" fill="#EFEBE2"/>
<path d="M146.208 122.91C159.992 115.9 168.366 104.71 164.911 97.9165C161.456 91.1227 147.481 91.2978 133.697 98.3076C119.912 105.317 111.538 116.507 114.993 123.301C118.448 130.095 132.423 129.92 146.208 122.91Z" fill="#373FEF"/>
<path d="M144.494 119.711C158.278 112.701 166.652 101.511 163.197 94.7173C159.743 87.9235 145.767 88.0986 131.983 95.1084C118.198 102.118 109.824 113.308 113.279 120.102C116.734 126.896 130.709 126.721 144.494 119.711Z" fill="#EFEBE2"/>
<path d="M143.113 117.145C156.897 110.135 165.271 98.9447 161.817 92.1509C158.362 85.3571 144.386 85.5322 130.602 92.542C116.817 99.5518 108.443 110.742 111.898 117.536C115.353 124.33 129.328 124.154 143.113 117.145Z" fill="#221F1F"/>
<path d="M141.34 113.428C152.072 107.971 158.784 99.6367 156.331 94.8121C153.878 89.9875 143.189 90.4997 132.457 95.9562C121.725 101.413 115.013 109.747 117.466 114.572C119.919 119.396 130.607 118.884 141.34 113.428Z" stroke="#EFEBE2" stroke-width="1.1129" stroke-miterlimit="10"/>
<path d="M108.801 83.6992L106.701 85.4992L104.501 85.7992L106.901 83.8992L108.801 83.6992Z" fill="#373FEF"/>
<path d="M81.3013 50.4023L79.2014 52.2023L78.9014 54.4023L81.0013 52.7023L81.3013 50.4023Z" fill="#373FEF"/>
<path d="M110.501 82.3023L108.801 83.7023L106.201 83.4023L108.801 81.4023L110.501 82.3023Z" fill="#EFEBE2"/>
<path d="M83.001 49L81.301 50.4L81.001 52.6L82.801 50.4L83.001 49Z" fill="#EFEBE2"/>
<path d="M106.678 85.5233C111.191 81.7942 108.69 71.316 101.091 62.1197C93.4916 52.9234 83.6729 48.4913 79.1598 52.2204C74.6468 55.9496 77.1485 66.4278 84.7475 75.6241C92.3465 84.8204 102.165 89.2525 106.678 85.5233Z" fill="#373FEF"/>
<path d="M108.787 83.7187C113.3 79.9895 110.798 69.5114 103.199 60.315C95.5999 51.1187 85.7812 46.6866 81.2682 50.4158C76.7552 54.1449 79.2569 64.6231 86.8559 73.8194C94.4549 83.0157 104.274 87.4478 108.787 83.7187Z" fill="#EFEBE2"/>
<path d="M110.538 82.203C115.051 78.4739 112.549 67.9957 104.95 58.7994C97.3509 49.603 87.5322 45.171 83.0192 48.9002C78.5062 52.6293 81.0079 63.1074 88.6069 72.3038C96.2059 81.5001 106.025 85.9322 110.538 82.203Z" fill="#221F1F"/>
<path d="M107.576 78.4948C110.812 75.8215 108.645 67.8552 102.736 60.7016C96.8261 53.548 89.4122 49.9159 86.176 52.5892C82.9399 55.2625 85.1069 63.2289 91.0163 70.3825C96.9257 77.5361 104.34 81.1681 107.576 78.4948Z" stroke="#EFEBE2" stroke-width="0.8581" stroke-miterlimit="10"/>
</svg>
