<svg width="220" height="333" viewBox="0 0 220 333" fill="none" xmlns="http://www.w3.org/2000/svg">
<path d="M219.3 0.0976562H0.5V332.498H219.3V0.0976562Z" fill="#221F1F"/>
<path d="M171.002 86.6977C171.002 86.5977 171.002 86.5977 171.002 86.6977C170.602 86.0977 170.202 85.6977 169.902 85.1977C169.002 83.9977 168.002 82.7977 167.102 81.5977C166.202 80.4977 165.402 79.3977 164.602 78.2977C164.202 77.7977 163.902 77.2977 163.502 76.8977C162.902 76.0977 161.902 75.5977 160.902 75.5977H157.102H120.002V57.5977C120.002 55.0977 118.002 53.0977 115.502 53.0977C113.002 53.0977 111.002 55.0977 111.002 57.5977V75.5977H100.402C98.5021 75.5977 97.002 77.0977 97.002 78.9977V96.8977C97.002 98.7977 98.5021 100.298 100.402 100.298H111.002V110.298H63.9021H60.1021C59.1021 110.298 58.102 110.798 57.502 111.598C57.102 112.098 56.8021 112.498 56.4021 112.998C55.6021 114.098 54.7021 115.198 53.9021 116.298C53.0021 117.498 52.0021 118.698 51.1021 119.898C50.7021 120.398 50.302 120.798 50.002 121.298C50.002 121.298 50.002 121.298 50.002 121.398C49.802 121.798 49.7021 122.198 49.7021 122.698C49.7021 123.198 49.802 123.598 50.002 123.998C50.002 123.998 50.002 123.998 50.002 124.098C50.402 124.698 50.902 125.198 51.302 125.698C52.302 126.998 53.2021 128.198 54.2021 129.498C54.7021 130.198 55.202 130.798 55.802 131.498L57.6021 133.798C58.2021 134.598 59.2021 135.098 60.2021 135.098H64.002H111.102V145.098H100.502C98.602 145.098 97.1021 146.598 97.1021 148.498V166.398C97.1021 168.298 98.602 169.798 100.502 169.798H111.102V275.098C111.102 277.598 113.102 279.598 115.602 279.598C118.102 279.598 120.102 277.598 120.102 275.098V169.698H147.202H151.002C152.002 169.698 153.002 169.198 153.602 168.398L155.402 166.098C155.902 165.398 156.502 164.698 157.002 164.098C158.002 162.798 159.002 161.598 159.902 160.298C160.302 159.798 160.802 159.198 161.202 158.698C161.202 158.698 161.202 158.698 161.202 158.598C161.402 158.198 161.502 157.798 161.502 157.298C161.502 156.798 161.402 156.398 161.202 155.998C160.902 155.498 160.502 155.098 160.102 154.598C159.202 153.398 158.202 152.198 157.302 150.998C156.402 149.898 155.602 148.798 154.802 147.698C154.402 147.198 154.102 146.698 153.702 146.298C153.102 145.498 152.102 144.998 151.102 144.998H147.302H120.202V134.998H130.802C132.702 134.998 134.202 133.498 134.202 131.598V113.698C134.202 111.798 132.702 110.298 130.802 110.298H120.202V100.298H157.302H161.102C162.102 100.298 163.102 99.7977 163.702 98.9977L165.502 96.6977C166.002 95.9977 166.502 95.2977 167.102 94.6977C168.102 93.3977 169.102 92.1977 170.002 90.8977C170.402 90.3977 170.902 89.7977 171.302 89.2977C171.302 89.2977 171.302 89.2977 171.302 89.1977C171.502 88.7977 171.602 88.3977 171.602 87.8977C171.402 87.4977 171.202 86.9977 171.002 86.6977Z" fill="#EFEBE2"/>
<path d="M171.002 86.6977C171.002 86.5977 171.002 86.5977 171.002 86.6977ZM171.002 86.6977C170.602 86.0977 170.202 85.6977 169.902 85.1977C169.002 83.9977 168.002 82.7977 167.102 81.5977C166.202 80.4977 165.402 79.3977 164.602 78.2977C164.202 77.7977 163.902 77.2977 163.502 76.8977C162.902 76.0977 161.902 75.5977 160.902 75.5977H157.102H120.002V57.5977C120.002 55.0977 118.002 53.0977 115.502 53.0977C113.002 53.0977 111.002 55.0977 111.002 57.5977V75.5977H100.402C98.5021 75.5977 97.002 77.0977 97.002 78.9977V96.8977C97.002 98.7977 98.5021 100.298 100.402 100.298H111.002V110.298H63.9021H60.1021C59.1021 110.298 58.102 110.798 57.502 111.598C57.102 112.098 56.8021 112.498 56.4021 112.998C55.6021 114.098 54.7021 115.198 53.9021 116.298C53.0021 117.498 52.0021 118.698 51.1021 119.898C50.7021 120.398 50.302 120.798 50.002 121.298C50.002 121.298 50.002 121.298 50.002 121.398C49.802 121.798 49.7021 122.198 49.7021 122.698C49.7021 123.198 49.802 123.598 50.002 123.998C50.002 123.998 50.002 123.998 50.002 124.098C50.402 124.698 50.902 125.198 51.302 125.698C52.302 126.998 53.2021 128.198 54.2021 129.498C54.7021 130.198 55.202 130.798 55.802 131.498L57.6021 133.798C58.2021 134.598 59.2021 135.098 60.2021 135.098H64.002H111.102V145.098H100.502C98.602 145.098 97.1021 146.598 97.1021 148.498V166.398C97.1021 168.298 98.602 169.798 100.502 169.798H111.102V275.098C111.102 277.598 113.102 279.598 115.602 279.598C118.102 279.598 120.102 277.598 120.102 275.098V169.698H147.202H151.002C152.002 169.698 153.002 169.198 153.602 168.398L155.402 166.098C155.902 165.398 156.502 164.698 157.002 164.098C158.002 162.798 159.002 161.598 159.902 160.298C160.302 159.798 160.802 159.198 161.202 158.698C161.202 158.698 161.202 158.698 161.202 158.598C161.402 158.198 161.502 157.798 161.502 157.298C161.502 156.798 161.402 156.398 161.202 155.998C160.902 155.498 160.502 155.098 160.102 154.598C159.202 153.398 158.202 152.198 157.302 150.998C156.402 149.898 155.602 148.798 154.802 147.698C154.402 147.198 154.102 146.698 153.702 146.298C153.102 145.498 152.102 144.998 151.102 144.998H147.302H120.202V134.998H130.802C132.702 134.998 134.202 133.498 134.202 131.598V113.698C134.202 111.798 132.702 110.298 130.802 110.298H120.202V100.298H157.302H161.102C162.102 100.298 163.102 99.7977 163.702 98.9977L165.502 96.6977C166.002 95.9977 166.502 95.2977 167.102 94.6977C168.102 93.3977 169.102 92.1977 170.002 90.8977C170.402 90.3977 170.902 89.7977 171.302 89.2977C171.302 89.2977 171.302 89.2977 171.302 89.1977C171.502 88.7977 171.602 88.3977 171.602 87.8977C171.402 87.4977 171.202 86.9977 171.002 86.6977Z" stroke="#EFEBE2" stroke-width="2" stroke-miterlimit="10" stroke-linecap="round"/>
<path d="M115.402 279.498C112.902 279.498 110.902 277.498 110.902 274.998V57.5977C110.902 55.0977 112.902 53.0977 115.402 53.0977C117.902 53.0977 119.902 55.0977 119.902 57.5977V274.998C119.902 277.498 117.902 279.498 115.402 279.498Z" fill="#221F1F"/>
<path d="M54.2021 122.601L57.4021 126.701L63.802 135.001H130.502C132.402 135.001 133.902 133.501 133.902 131.601V113.701C133.902 111.801 132.402 110.301 130.502 110.301H63.802L54.2021 122.601Z" fill="#373FEF"/>
<path d="M49.4023 122.599H54.2024L63.8022 110.199H59.9023C58.9023 110.199 57.9022 110.699 57.3022 111.499C56.9022 111.999 56.6024 112.499 56.2024 112.899C55.4024 113.999 54.5024 115.099 53.7024 116.199C52.8024 117.399 51.8023 118.599 50.9023 119.799C50.5023 120.299 50.1022 120.699 49.8022 121.199C49.5022 121.699 49.4023 122.199 49.4023 122.599Z" fill="#EFEBE2"/>
<path d="M49.4023 122.699C49.4023 123.199 49.5024 123.599 49.7024 123.999C49.7024 123.999 49.7024 123.999 49.7024 124.099C50.1024 124.699 50.6022 125.199 51.0022 125.699C52.0022 126.999 52.9023 128.199 53.9023 129.499C54.4023 130.199 54.9022 130.799 55.5022 131.499L57.3022 133.799C57.9022 134.599 58.9023 135.099 59.9023 135.099H63.7024L57.3022 126.899L54.1023 122.799H49.4023V122.699Z" fill="#221F1F"/>
<path d="M156.602 157.3L153.402 161.4L147.002 169.7H100.302C98.4022 169.7 96.9023 168.2 96.9023 166.3V148.4C96.9023 146.5 98.4022 145 100.302 145H147.002L156.602 157.3Z" fill="#EFEBE2"/>
<path d="M161.402 157.298H156.602L147.002 144.898H150.902C151.902 144.898 152.902 145.398 153.502 146.198C153.902 146.698 154.202 147.198 154.602 147.598C155.402 148.698 156.302 149.798 157.102 150.898C158.002 152.098 159.002 153.298 159.902 154.498C160.302 154.998 160.702 155.398 161.002 155.898C161.202 156.398 161.402 156.898 161.402 157.298Z" fill="#373FEF"/>
<path d="M161.403 157.398C161.403 157.898 161.303 158.298 161.103 158.698C161.103 158.698 161.103 158.698 161.103 158.798C160.703 159.398 160.202 159.898 159.802 160.398C158.802 161.698 157.903 162.898 156.903 164.198C156.403 164.898 155.902 165.498 155.302 166.198L153.502 168.498C152.902 169.298 151.903 169.798 150.903 169.798H147.103L153.502 161.598L156.703 157.498H161.403V157.398Z" fill="#221F1F"/>
<path d="M166.602 87.8977L163.402 91.9977L157.002 100.298H100.302C98.4022 100.298 96.9023 98.7977 96.9023 96.8977V78.9977C96.9023 77.0977 98.4022 75.5977 100.302 75.5977H157.002L166.602 87.8977Z" fill="#221F1F"/>
<path d="M171.402 87.8961H166.602L157.002 75.4961H160.902C161.902 75.4961 162.902 75.9961 163.502 76.7961C163.902 77.2961 164.202 77.7961 164.602 78.1961C165.402 79.2961 166.302 80.3961 167.102 81.4961C168.002 82.6961 169.002 83.8961 169.902 85.0961C170.302 85.5961 170.702 85.9961 171.002 86.4961C171.202 86.9961 171.402 87.4961 171.402 87.8961Z" fill="#EFEBE2"/>
<path d="M171.403 87.9961C171.403 88.4961 171.303 88.8961 171.103 89.2961C171.103 89.2961 171.103 89.2961 171.103 89.3961C170.703 89.9961 170.202 90.4961 169.802 90.9961C168.802 92.2961 167.903 93.4961 166.903 94.7961C166.403 95.4961 165.902 96.0961 165.302 96.7961L163.502 99.0961C162.902 99.8961 161.903 100.396 160.903 100.396H157.103L163.502 92.1961L166.703 88.0961H171.403V87.9961Z" fill="#373FEF"/>
<path d="M120.702 144H109.902V170.7H120.702V144Z" fill="#EFEBE2"/>
</svg>
