<svg width="219" height="333" viewBox="0 0 219 333" fill="none" xmlns="http://www.w3.org/2000/svg">
<path d="M218.8 0.101562H0V332.502H218.8V0.101562Z" fill="#221F1F"/>
<path d="M133.399 200.903C133.099 200.103 132.199 199.803 131.499 200.303C130.799 200.803 130.099 201.203 129.499 201.603C128.999 201.903 128.799 202.403 128.899 202.903C131.899 220.503 134.899 237.503 137.799 250.903C138.099 252.403 139.899 253.303 141.399 252.603C145.299 250.903 149.299 248.203 153.199 247.003C154.599 246.603 155.099 245.303 154.499 243.703C147.499 224.403 140.399 218.403 133.399 200.903Z" fill="#EFEBE2" stroke="#EFEBE2" stroke-width="2" stroke-miterlimit="10"/>
<path d="M123.099 206.001C122.999 205.301 122.199 204.801 121.499 205.001C120.599 205.301 119.599 205.601 118.699 205.901C118.199 206.101 117.799 206.601 117.699 207.201C116.399 223.301 115.199 235.601 113.899 248.701C113.799 250.401 115.099 251.701 116.799 251.501C120.599 251.201 124.399 250.601 128.199 250.201C129.699 250.001 130.799 248.801 130.499 247.301C127.999 231.201 125.499 218.201 123.099 206.001Z" fill="#EFEBE2" stroke="#EFEBE2" stroke-width="2" stroke-miterlimit="10"/>
<path d="M108.599 206.902C108.099 206.902 107.599 206.902 107.099 206.902C106.499 206.902 105.999 207.202 105.799 207.702C101.699 217.702 97.6992 234.502 93.5992 242.502C93.0992 243.902 94.0992 245.902 95.6992 246.102C98.6992 246.602 101.699 246.702 104.699 247.302C106.199 247.602 107.599 246.302 107.699 244.602C108.399 231.102 109.099 220.302 109.799 208.402C109.899 207.502 109.299 206.902 108.599 206.902Z" fill="#EFEBE2" stroke="#EFEBE2" stroke-width="2" stroke-miterlimit="10"/>
<path d="M96.8994 204.903C95.9994 204.503 94.9994 204.203 94.0994 203.903C93.4994 203.703 92.8994 203.903 92.5994 204.303C84.8994 213.403 77.0994 232.003 69.3994 239.503C68.4994 240.503 69.0994 242.703 70.5994 243.603C74.9994 245.903 79.2994 246.803 83.6994 248.603C85.1994 249.203 86.7994 248.403 87.1994 246.703C90.6994 231.203 94.2994 218.303 97.7994 206.503C97.8994 205.803 97.4994 205.103 96.8994 204.903Z" fill="#EFEBE2" stroke="#EFEBE2" stroke-width="2" stroke-miterlimit="10"/>
<path d="M76.2996 191.801C76.7996 191.401 76.8996 190.701 76.4996 190.201C75.6996 188.801 74.8996 187.601 73.9996 186.401C73.5996 185.901 72.8996 185.701 72.3996 185.901C58.6996 189.801 44.8996 201.401 31.1996 205.101C29.6996 205.401 29.1996 207.001 30.0996 208.601C32.9996 214.001 35.9996 218.401 38.8996 222.301C39.7996 223.501 41.6996 223.701 42.8996 222.701C53.9996 213.701 65.1996 198.701 76.2996 191.801Z" fill="#EFEBE2" stroke="#EFEBE2" stroke-width="2" stroke-miterlimit="10"/>
<path d="M31.599 196.503C44.199 192.003 56.899 182.503 69.499 178.703C70.099 178.503 70.399 177.903 70.199 177.303C69.999 176.403 69.799 175.603 69.599 174.703C69.399 174.103 68.899 173.703 68.299 173.703C54.399 174.103 40.499 175.703 26.499 176.203C24.899 176.203 23.699 177.703 24.099 179.303C25.399 184.603 26.699 190.103 27.899 194.803C28.299 196.403 30.099 197.103 31.599 196.503Z" fill="#EFEBE2" stroke="#EFEBE2" stroke-width="2" stroke-miterlimit="10"/>
<path d="M68.6992 163.802C68.6992 162.902 68.6992 161.902 68.7992 161.002C68.7992 160.402 68.3992 159.702 67.6992 159.502C53.1992 155.802 38.6992 155.702 24.2992 152.202C22.7992 151.902 21.2992 153.102 21.1992 154.702C20.9992 159.302 20.6992 163.702 20.4992 168.202C20.3992 169.902 21.7992 171.202 23.4992 170.902C38.1992 169.902 52.8992 165.902 67.6992 164.902C68.1992 164.902 68.6992 164.402 68.6992 163.802Z" fill="#EFEBE2" stroke="#EFEBE2" stroke-width="2" stroke-miterlimit="10"/>
<path d="M30.7992 149.802C43.8992 151.102 56.8992 151.102 69.9992 152.502C70.5992 152.502 71.0992 152.202 71.2992 151.702C71.3992 151.402 71.5992 151.002 71.6992 150.702C71.9992 150.102 71.6992 149.302 70.9992 148.902C59.2992 142.002 47.5992 139.902 35.8992 133.602C34.4992 132.902 32.8992 133.702 32.3992 135.302C31.0992 139.202 29.7992 142.602 28.4992 146.102C27.9992 147.702 29.0992 149.602 30.7992 149.802Z" fill="#EFEBE2" stroke="#EFEBE2" stroke-width="2" stroke-miterlimit="10"/>
<path d="M32.9994 124.703C46.5994 133.903 60.1994 135.203 73.6994 144.403C74.2994 144.703 74.9994 144.503 75.3994 144.003C75.5994 143.803 75.6994 143.503 75.8994 143.303C76.2994 142.803 76.1994 142.103 75.6994 141.603C64.5994 128.203 53.4994 122.303 42.3994 110.603C41.1994 109.303 39.2994 109.603 38.3994 111.103C36.2994 114.703 34.0994 117.903 31.9994 120.703C31.0994 121.703 31.4994 123.703 32.9994 124.703Z" fill="#EFEBE2" stroke="#EFEBE2" stroke-width="2" stroke-miterlimit="10"/>
<path d="M85.3993 131.801C85.7993 132.501 86.5993 132.801 87.1993 132.401C87.8993 131.901 88.5993 131.501 89.2993 131.101C89.7993 130.801 89.9993 130.301 89.8993 129.701C86.0993 111.601 82.2993 95.4011 78.4993 81.7011C78.0993 80.2011 76.3993 79.4011 74.8993 80.0011C70.9993 81.8011 66.9993 84.4011 63.0993 85.6011C61.6993 86.0011 61.0993 87.4011 61.8993 89.1011C69.5993 108.301 77.4993 114.101 85.3993 131.801Z" fill="#EFEBE2" stroke="#EFEBE2" stroke-width="2" stroke-miterlimit="10"/>
<path d="M95.5996 126.702C95.7996 127.402 96.4996 127.902 97.1996 127.702C98.1996 127.402 99.1996 127.102 100.1 126.802C100.6 126.602 101 126.102 101.1 125.502C102.3 110.202 103.5 98.5016 104.6 85.8016C104.7 84.1016 103.3 82.7017 101.6 83.0017C97.0996 83.4017 92.4996 84.5016 87.9996 85.1016C86.4996 85.3016 85.3996 86.5016 85.7996 88.2016C89.1996 103.702 92.3996 114.602 95.5996 126.702Z" fill="#EFEBE2" stroke="#EFEBE2" stroke-width="2" stroke-miterlimit="10"/>
<path d="M110.199 125.702C110.699 125.702 111.199 125.702 111.699 125.702C112.299 125.702 112.799 125.402 112.999 125.002C117.799 113.802 122.699 94.1024 127.499 84.9024C128.099 83.5024 126.999 81.5024 125.399 81.3024C121.599 80.8024 117.799 80.7024 114.099 80.1024C112.599 79.9024 111.199 81.2024 111.199 82.8024C110.499 98.2024 109.799 110.602 109.099 124.302C108.799 125.102 109.399 125.702 110.199 125.702Z" fill="#EFEBE2" stroke="#EFEBE2" stroke-width="2" stroke-miterlimit="10"/>
<path d="M121.899 127.701C122.799 128.101 123.799 128.401 124.699 128.701C125.299 128.901 125.899 128.701 126.199 128.301C134.799 118.701 143.399 98.5008 151.999 90.4008C152.899 89.4008 152.399 87.2008 150.799 86.3008C146.399 84.0008 141.999 83.0008 137.699 81.3008C136.299 80.7008 134.599 81.5008 134.199 83.1008C129.799 99.4008 125.499 113.801 121.099 126.101C120.899 126.701 121.199 127.501 121.899 127.701Z" fill="#EFEBE2" stroke="#EFEBE2" stroke-width="2" stroke-miterlimit="10"/>
<path d="M150.799 98.1996C145.199 110.5 139.499 123.4 133.899 132.5C133.599 133 133.799 133.7 134.199 134.1C134.899 134.7 135.599 135.3 136.199 135.9C136.699 136.3 137.399 136.3 137.899 135.9C147.299 130 156.699 115.2 166.099 110C167.299 109.4 167.199 107.4 165.999 106C162.299 102.1 158.499 99.9996 154.799 97.2996C153.399 96.2996 151.499 96.5996 150.799 98.1996Z" fill="#EFEBE2" stroke="#EFEBE2" stroke-width="2" stroke-miterlimit="10"/>
<path d="M142.399 140.803C141.899 141.203 141.799 141.903 142.199 142.403C142.999 143.803 143.799 145.003 144.699 146.203C145.099 146.703 145.799 146.903 146.399 146.603C160.999 142.203 175.699 129.103 190.299 124.903C191.699 124.603 192.199 123.003 191.399 121.403C188.499 116.003 185.499 111.603 182.599 107.603C181.699 106.403 179.799 106.203 178.599 107.203C166.499 117.003 154.399 133.303 142.399 140.803Z" fill="#EFEBE2" stroke="#EFEBE2" stroke-width="2" stroke-miterlimit="10"/>
<path d="M187.399 161.801C175.299 162.801 163.199 166.701 151.099 167.701C150.499 167.701 149.999 168.201 149.999 168.801C149.999 169.801 149.999 170.701 149.899 171.701C149.899 172.301 150.299 173.001 150.899 173.201C162.699 176.801 174.599 176.901 186.399 180.401C187.999 180.701 189.499 179.501 189.499 177.901C189.699 173.401 189.999 169.001 190.199 164.501C190.499 162.801 188.999 161.501 187.399 161.801Z" fill="#EFEBE2" stroke="#EFEBE2" stroke-width="2" stroke-miterlimit="10"/>
<path d="M196.1 187.703C180.3 184.103 164.6 184.003 148.8 180.203C148.2 180.103 147.6 180.403 147.4 181.003C147.3 181.303 147.1 181.602 147 181.902C146.7 182.502 147 183.303 147.6 183.703C161.9 192.803 176.3 195.703 190.6 204.103C192 204.903 193.7 204.103 194.2 202.503C195.5 198.503 196.8 195.003 198.1 191.503C198.7 189.903 197.7 188.103 196.1 187.703Z" fill="#EFEBE2" stroke="#EFEBE2" stroke-width="2" stroke-miterlimit="10"/>
<path d="M185.799 207.9C172.199 198.7 158.599 197.4 145.099 188.2C144.499 187.9 143.799 188.1 143.399 188.6C143.199 188.8 143.099 189.1 142.899 189.3C142.499 189.8 142.599 190.5 143.099 191C154.199 204.4 165.299 210.3 176.399 222C177.599 223.3 179.499 223 180.399 221.5C182.499 217.9 184.699 214.7 186.799 211.9C187.699 210.9 187.199 209 185.799 207.9Z" fill="#EFEBE2" stroke="#EFEBE2" stroke-width="2" stroke-miterlimit="10"/>
<path d="M140.099 194.801C139.599 194.301 138.799 194.301 138.299 194.801C137.999 195.101 137.699 195.401 137.499 195.601C137.099 196.001 136.999 196.601 137.299 197.101C143.299 211.701 149.299 221.701 155.199 233.101C155.999 234.601 157.899 235.201 159.199 233.901C162.399 230.901 165.599 227.601 168.799 225.601C169.999 224.901 169.999 223.201 168.899 221.701C159.299 209.201 149.699 206.801 140.099 194.801Z" fill="#EFEBE2" stroke="#EFEBE2" stroke-width="2" stroke-miterlimit="10"/>
<path d="M78.4994 137.802C78.9994 138.402 79.7994 138.402 80.3994 137.802C80.8994 137.302 81.3994 136.702 81.9994 136.302C82.3994 135.902 82.4994 135.302 82.1994 134.702C75.0994 119.502 67.9994 110.802 60.8994 98.5017C60.0994 97.0017 58.1994 96.6017 56.8994 97.8017C54.3994 100.202 51.8994 102.702 49.3994 104.402C48.1994 105.202 48.1994 106.802 49.1994 108.302C58.8994 121.802 68.6994 124.902 78.4994 137.802Z" fill="#EFEBE2" stroke="#EFEBE2" stroke-width="2" stroke-miterlimit="10"/>
<path d="M84.4993 198.5C83.7993 197.9 83.1993 197.3 82.4993 196.8C81.9993 196.4 81.1993 196.4 80.7993 196.8C68.7993 204.5 56.7993 223.6 44.6993 230.5C43.4993 231.2 43.5993 233.2 44.8993 234.5C48.6993 238.3 52.4993 240.7 56.2993 243.4C57.5993 244.3 59.3993 244 60.1993 242.7C68.3993 228.4 76.5993 210.9 84.7993 200.2C85.0993 199.7 84.9993 198.9 84.4993 198.5Z" fill="#EFEBE2" stroke="#EFEBE2" stroke-width="2" stroke-miterlimit="10"/>
<path d="M184.499 136.203C172.699 140.703 160.999 150.103 149.199 153.903C148.599 154.103 148.399 154.703 148.499 155.303C148.699 156.203 148.899 157.003 149.099 157.903C149.299 158.503 149.799 158.903 150.499 158.903C163.599 158.503 176.599 156.903 189.699 156.403C191.299 156.303 192.499 154.903 192.099 153.303C190.799 148.003 189.599 142.603 188.299 137.803C187.799 136.303 185.999 135.603 184.499 136.203Z" fill="#EFEBE2" stroke="#EFEBE2" stroke-width="2" stroke-miterlimit="10"/>
<path d="M114.099 200.702C120.499 199.602 126.399 196.802 131.199 192.702C134.299 190.102 136.899 187.002 138.999 183.502C143.799 177.002 145.399 167.302 143.199 157.602C141.599 150.502 138.199 144.502 133.599 140.202C131.799 138.502 129.799 137.002 127.599 135.902C124.899 134.402 122.099 133.202 119.099 132.402C118.499 132.202 117.899 132.102 117.299 132.002C116.899 131.902 116.399 131.802 115.899 131.802C115.399 131.702 114.899 131.702 114.399 131.602C113.099 131.402 111.699 131.402 110.399 131.402C97.8993 131.402 86.0993 138.102 79.5993 149.102C74.6993 155.602 73.1993 165.302 75.3993 175.002C77.6993 184.802 83.3993 192.802 90.9993 196.702C96.3993 199.802 102.599 201.402 108.899 201.302C109.199 201.302 109.499 201.302 109.799 201.302C110.199 201.302 110.599 201.302 110.999 201.202C111.799 201.102 112.499 201.102 113.299 200.902C113.499 200.802 113.799 200.802 114.099 200.702Z" fill="#EFEBE2" stroke="#EFEBE2" stroke-width="2" stroke-miterlimit="10"/>
<path d="M133.399 200.902C140.399 218.302 147.499 224.402 154.499 243.702C155.199 245.302 154.599 246.602 153.199 247.002C149.299 248.202 145.299 250.902 141.399 252.602C139.799 253.302 138.099 252.402 137.799 250.902C134.799 237.502 131.799 220.602 128.899 202.902C128.799 202.402 128.999 201.802 129.499 201.602C130.199 201.202 130.899 200.802 131.499 200.302C132.199 199.902 132.999 200.102 133.399 200.902Z" fill="#221F1F"/>
<path d="M123.1 206.001C125.6 218.201 128 231.201 130.5 247.301C130.8 248.801 129.7 250.001 128.2 250.201C124.4 250.601 120.6 251.301 116.8 251.501C115.2 251.701 113.8 250.401 113.9 248.701C115.2 235.601 116.4 223.301 117.7 207.201C117.7 206.601 118.1 206.101 118.7 205.901C119.6 205.601 120.6 205.301 121.5 205.001C122.2 204.801 122.9 205.301 123.1 206.001Z" fill="#221F1F"/>
<path d="M109.899 208.301C109.199 220.201 108.499 230.901 107.799 244.501C107.699 246.201 106.299 247.501 104.799 247.201C101.799 246.701 98.7989 246.501 95.7989 246.001C94.1989 245.801 93.1989 243.801 93.6989 242.401C97.7989 234.401 101.799 217.601 105.899 207.601C106.099 207.101 106.599 206.801 107.199 206.801C107.699 206.801 108.199 206.801 108.699 206.801C109.299 206.901 109.899 207.501 109.899 208.301Z" fill="#221F1F"/>
<path d="M97.6988 206.503C94.1988 218.303 90.5989 231.203 87.0989 246.703C86.6989 248.403 84.9989 249.203 83.5989 248.603C79.1989 246.803 74.8988 245.903 70.4988 243.603C68.9988 242.803 68.3988 240.603 69.2988 239.503C76.9988 232.003 84.7988 213.303 92.4988 204.303C92.7988 203.903 93.4988 203.703 93.9988 203.903C94.8988 204.203 95.8988 204.503 96.7988 204.903C97.4988 205.103 97.8988 205.803 97.6988 206.503Z" fill="#221F1F"/>
<path d="M76.2994 191.8C65.0994 198.8 53.9994 213.7 42.7994 222.8C41.5994 223.8 39.6994 223.6 38.7994 222.4C35.8994 218.4 32.8995 214 29.9995 208.7C29.0995 207.1 29.6995 205.5 31.0995 205.2C44.7995 201.5 58.5994 189.9 72.2994 186C72.8994 185.8 73.5995 185.9 73.8995 186.5C74.6995 187.7 75.4995 189 76.3995 190.3C76.8995 190.7 76.7994 191.4 76.2994 191.8Z" fill="#221F1F"/>
<path d="M69.499 178.701C56.899 182.501 44.199 192.001 31.599 196.501C30.099 197.101 28.299 196.401 27.899 194.901C26.599 190.201 25.299 184.701 24.099 179.401C23.699 177.801 24.899 176.301 26.499 176.301C40.399 175.801 54.299 174.201 68.299 173.801C68.899 173.801 69.499 174.201 69.599 174.801C69.799 175.601 69.999 176.501 70.199 177.401C70.399 177.901 70.099 178.501 69.499 178.701Z" fill="#221F1F"/>
<path d="M67.5993 164.902C52.8993 165.902 38.1993 169.902 23.3993 170.902C21.7993 171.102 20.2993 169.802 20.3993 168.202C20.5993 163.702 20.8993 159.202 21.0993 154.702C21.1993 153.102 22.5993 151.902 24.1993 152.202C38.6993 155.802 53.1993 155.802 67.5993 159.502C68.1993 159.702 68.6993 160.302 68.6993 161.002C68.6993 161.902 68.6993 162.902 68.5993 163.802C68.6993 164.402 68.1993 164.902 67.5993 164.902Z" fill="#221F1F"/>
<path d="M69.9994 152.6C56.8994 151.2 43.8994 151.1 30.7994 149.9C29.0994 149.7 27.8994 147.8 28.4994 146.3C29.7994 142.9 31.0994 139.4 32.3994 135.5C32.8994 134 34.4994 133.1 35.8994 133.8C47.5994 140.1 59.2994 142.2 70.9994 149.1C71.6994 149.5 71.9994 150.2 71.6994 150.9C71.5994 151.2 71.3994 151.5 71.2994 151.9C71.0994 152.3 70.5994 152.6 69.9994 152.6Z" fill="#221F1F"/>
<path d="M73.699 144.401C60.099 135.201 46.499 133.901 32.999 124.701C31.599 123.701 31.099 121.701 31.999 120.601C34.099 117.901 36.299 114.601 38.399 111.001C39.299 109.501 41.199 109.201 42.399 110.501C53.499 122.201 64.599 128.101 75.699 141.501C76.199 142.001 76.299 142.701 75.899 143.201C75.699 143.401 75.599 143.701 75.399 143.901C74.999 144.501 74.299 144.701 73.699 144.401Z" fill="#221F1F"/>
<path d="M85.3995 131.802C77.4995 114.202 69.6995 108.302 61.7995 89.0016C61.0995 87.4016 61.5995 86.0016 62.9995 85.5016C66.8995 84.3016 70.8995 81.7016 74.7995 79.9016C76.2995 79.2016 77.9995 80.1015 78.3995 81.6015C82.1995 95.3015 85.9995 111.502 89.7995 129.602C89.8995 130.202 89.6995 130.702 89.1995 131.002C88.4995 131.402 87.7995 131.802 87.0995 132.302C86.5995 132.802 85.6995 132.502 85.3995 131.802Z" fill="#221F1F"/>
<path d="M95.5997 126.702C92.3997 114.602 89.0997 103.802 85.8997 88.0025C85.4997 86.4025 86.4997 85.2024 88.0997 84.9024C92.5997 84.3024 97.1997 83.2024 101.7 82.8024C103.4 82.5024 104.8 83.9024 104.7 85.6024C103.5 98.3024 102.3 110.002 101.2 125.302C101.2 125.902 100.8 126.402 100.2 126.602C99.1997 126.902 98.1997 127.202 97.2997 127.502C96.4997 127.802 95.7997 127.402 95.5997 126.702Z" fill="#221F1F"/>
<path d="M108.9 124.4C109.6 110.7 110.3 98.3001 111 82.9001C111.1 81.3001 112.4 80.0001 113.9 80.2001C117.7 80.8001 121.5 80.9001 125.2 81.4001C126.9 81.6001 127.9 83.6001 127.3 85.0001C122.5 94.2001 117.6 113.9 112.8 125.1C112.6 125.6 112.1 125.9 111.5 125.8C111 125.8 110.5 125.8 110 125.8C109.4 125.7 108.8 125.1 108.9 124.4Z" fill="#221F1F"/>
<path d="M121.099 126.1C125.499 113.8 129.799 99.3997 134.199 83.0997C134.599 81.4997 136.299 80.7997 137.699 81.2997C142.099 83.0997 146.499 83.9997 150.799 86.2997C152.399 87.0997 152.899 89.2997 151.999 90.3997C143.399 98.4997 134.799 118.7 126.199 128.3C125.899 128.7 125.199 128.9 124.699 128.7C123.799 128.4 122.799 128.1 121.899 127.7C121.199 127.5 120.899 126.7 121.099 126.1Z" fill="#221F1F"/>
<path d="M133.799 132.5C139.399 123.4 145.099 110.5 150.699 98.2002C151.399 96.7002 153.399 96.3002 154.699 97.3002C158.399 100 162.199 102.1 165.899 106C167.199 107.3 167.199 109.3 165.999 110C156.599 115.2 147.199 130 137.799 135.9C137.299 136.3 136.599 136.3 136.099 135.9C135.399 135.4 134.699 134.8 134.099 134.1C133.699 133.6 133.599 133 133.799 132.5Z" fill="#221F1F"/>
<path d="M142.4 140.803C154.4 133.203 166.5 116.903 178.5 107.203C179.7 106.203 181.6 106.403 182.5 107.603C185.4 111.603 188.4 116.003 191.3 121.403C192.2 123.003 191.6 124.603 190.2 124.903C175.6 129.103 160.9 142.203 146.3 146.603C145.7 146.903 145 146.703 144.6 146.203C143.8 145.003 143 143.703 142.1 142.403C141.9 141.903 141.9 141.203 142.4 140.803Z" fill="#221F1F"/>
<path d="M151.1 167.701C163.2 166.701 175.3 162.801 187.4 161.801C189.1 161.501 190.5 162.801 190.4 164.501C190.2 168.901 189.9 173.301 189.7 177.901C189.6 179.501 188.1 180.701 186.6 180.401C174.8 176.901 162.9 176.801 151.1 173.201C150.5 173.001 150 172.401 150.1 171.701C150.1 170.701 150.1 169.801 150.2 168.801C150 168.201 150.5 167.701 151.1 167.701Z" fill="#221F1F"/>
<path d="M148.8 180.201C164.6 184.001 180.3 184.101 196.1 187.701C197.7 188.101 198.7 190.001 198.1 191.401C196.8 194.901 195.5 198.401 194.2 202.401C193.7 204.001 192 204.801 190.6 204.001C176.3 195.601 161.9 192.701 147.6 183.601C147 183.201 146.7 182.501 147 181.801C147.1 181.501 147.3 181.201 147.4 180.901C147.6 180.401 148.2 180.001 148.8 180.201Z" fill="#221F1F"/>
<path d="M145.099 188.2C158.699 197.4 172.299 198.7 185.799 207.9C187.199 208.9 187.699 210.9 186.799 212C184.699 214.7 182.499 218 180.399 221.6C179.499 223.1 177.599 223.4 176.399 222.1C165.299 210.4 154.199 204.5 143.099 191.1C142.599 190.6 142.499 189.9 142.899 189.4C143.099 189.2 143.199 188.9 143.399 188.7C143.699 188.1 144.499 187.9 145.099 188.2Z" fill="#221F1F"/>
<path d="M137.2 197.101C143.2 211.701 149.2 221.701 155.1 233.101C155.9 234.601 157.8 235.201 159.1 233.901C162.3 230.901 165.5 227.601 168.7 225.601C169.9 224.901 169.9 223.201 168.8 221.701C159.2 209.201 149.6 206.801 140.1 194.801C139.6 194.301 138.8 194.301 138.3 194.801C138 195.101 137.7 195.401 137.5 195.601C137.1 196.001 137 196.601 137.2 197.101Z" fill="#221F1F"/>
<path d="M78.4988 137.802C68.6988 124.902 58.8988 121.802 49.1988 108.302C48.0988 106.902 48.1988 105.202 49.3988 104.402C51.8988 102.702 54.3988 100.202 56.8988 97.8017C58.0988 96.6017 59.9988 97.0017 60.8988 98.5017C67.9988 110.802 75.0988 119.502 82.1988 134.702C82.4988 135.302 82.3988 135.902 81.9988 136.302C81.4988 136.802 80.9988 137.302 80.3988 137.802C79.7988 138.302 78.9988 138.302 78.4988 137.802Z" fill="#221F1F"/>
<path d="M84.799 200.2C76.599 211 68.399 228.4 60.199 242.7C59.399 244 57.599 244.3 56.299 243.4C52.499 240.7 48.699 238.4 44.899 234.5C43.599 233.2 43.599 231.2 44.699 230.5C56.699 223.6 68.699 204.4 80.799 196.8C81.299 196.4 81.999 196.4 82.499 196.8C83.199 197.3 83.799 197.9 84.499 198.5C84.999 198.9 85.099 199.7 84.799 200.2Z" fill="#221F1F"/>
<path d="M149.199 153.903C160.999 150.103 172.699 140.703 184.499 136.203C185.999 135.603 187.799 136.303 188.199 137.803C189.499 142.503 190.699 147.903 191.999 153.303C192.399 154.903 191.299 156.403 189.599 156.403C176.499 156.903 163.499 158.503 150.399 158.903C149.799 158.903 149.199 158.503 148.999 157.903C148.799 157.103 148.599 156.203 148.399 155.303C148.299 154.703 148.599 154.103 149.199 153.903Z" fill="#221F1F"/>
<path d="M139.099 183.501C136.999 187.001 134.299 190.201 131.299 192.701C126.399 196.801 120.499 199.601 114.199 200.701C113.899 200.701 113.699 200.801 113.399 200.801C112.599 200.901 111.899 201.001 111.099 201.101C110.699 201.101 110.299 201.201 109.899 201.201C109.599 201.201 109.299 201.201 108.999 201.201C102.699 201.301 96.4989 199.801 91.0989 196.601C83.4989 192.601 77.7989 184.701 75.4989 174.901C73.2989 165.201 74.7989 155.601 79.6989 149.001C86.1989 138.001 97.9989 131.301 110.499 131.301C111.799 131.301 113.199 131.401 114.499 131.501C114.999 131.601 115.499 131.601 115.999 131.701C116.499 131.801 116.899 131.901 117.399 131.901C117.999 132.001 118.599 132.201 119.199 132.301C122.199 133.001 124.999 134.201 127.699 135.801C129.899 136.901 131.899 138.401 133.699 140.101C138.299 144.401 141.699 150.501 143.299 157.501C145.499 167.301 143.899 177.001 139.099 183.501Z" fill="#EFEBE2"/>
<path d="M139.099 183.501C136.999 187.001 134.299 190.201 131.299 192.701C126.399 196.801 120.499 199.601 114.199 200.701C113.899 200.701 113.699 200.801 113.399 200.801C112.599 200.901 111.899 201.001 111.099 201.101C110.699 201.101 110.299 201.201 109.899 201.201C109.599 201.201 109.299 201.201 108.999 201.201C108.899 201.101 108.699 200.901 108.499 200.801C108.299 200.601 108.099 200.401 107.899 200.101L107.699 199.901C107.599 199.701 107.399 199.601 107.299 199.401C107.199 199.201 107.099 199.101 106.999 199.001L106.899 198.801C106.799 198.601 106.699 198.401 106.499 198.201C106.399 198.001 106.199 197.601 106.099 197.301C105.299 195.301 105.099 193.101 105.699 191.101C105.999 190.201 106.399 189.601 106.799 189.001C106.899 188.901 106.999 188.801 106.999 188.601L107.199 188.401C107.299 188.201 107.199 187.901 106.099 186.901L105.899 186.701C105.399 186.301 105.199 185.701 105.199 185.201C105.199 184.601 105.399 184.101 105.699 183.701L106.099 183.301L106.499 183.001C106.899 182.701 107.299 182.401 107.499 182.201C107.399 182.101 107.199 181.801 107.099 181.701C106.999 181.601 106.799 181.401 106.699 181.201C106.099 180.501 105.999 179.501 106.499 178.801L106.899 178.201C106.999 178.101 106.999 178.001 107.099 177.901C105.399 177.101 102.899 175.601 101.899 173.101C101.499 172.201 101.699 171.301 101.699 170.701C101.699 170.501 101.699 170.401 101.699 170.301C101.799 169.001 101.999 167.701 102.199 166.301C102.599 163.501 103.199 160.701 103.999 158.201C104.499 156.501 105.099 154.601 105.899 152.501C106.399 151.301 106.799 150.201 107.199 149.101C107.799 147.501 108.599 145.801 109.499 143.901C110.099 142.701 110.599 141.601 111.199 140.501C111.599 139.801 111.999 139.001 112.399 138.101C112.499 138.001 112.499 137.901 112.499 137.901L112.599 137.701C112.799 137.301 113.099 136.801 113.299 136.401C113.999 135.101 114.799 133.601 115.899 131.801C116.399 131.901 116.799 132.001 117.299 132.001C117.899 132.101 118.499 132.301 119.099 132.401C122.099 133.101 124.899 134.301 127.599 135.901C129.799 137.001 131.799 138.501 133.599 140.201C138.199 144.501 141.599 150.601 143.199 157.601C145.499 167.301 143.899 177.001 139.099 183.501Z" fill="#373FEF"/>
<path d="M139.099 183.503C136.999 187.003 134.299 190.203 131.299 192.703C126.399 196.803 120.499 199.603 114.199 200.703C113.899 200.703 113.699 200.803 113.399 200.803C113.099 200.603 112.899 200.503 112.699 200.303C112.499 200.103 112.199 199.903 111.999 199.703C111.899 199.603 111.699 199.503 111.499 199.303C111.299 199.103 111.099 198.903 110.899 198.703C110.699 198.503 110.599 198.303 110.499 198.103C110.399 198.003 110.299 197.903 110.199 197.703C109.999 197.403 109.899 197.203 109.799 197.003C109.699 196.803 109.599 196.503 109.399 196.203C108.699 194.403 108.499 192.603 108.999 190.903C109.199 190.203 109.599 189.703 109.899 189.103C109.999 188.903 110.099 188.703 110.299 188.503C111.099 187.203 109.899 186.203 108.999 185.403L108.799 185.303C108.699 185.203 108.599 185.003 108.599 184.803C108.599 184.603 108.699 184.403 108.799 184.203C108.999 184.003 109.199 183.803 109.499 183.603C109.999 183.203 110.499 182.903 110.699 182.403C111.299 181.603 110.599 180.903 110.099 180.303C109.999 180.203 109.899 180.103 109.799 179.903C109.699 179.803 109.399 179.303 109.699 178.903L110.099 178.303C110.399 177.803 110.699 177.303 110.999 176.903L111.099 176.703L110.899 176.603C108.799 175.903 106.199 174.303 105.299 172.103C105.099 171.603 105.099 171.003 105.199 170.403C105.199 170.203 105.199 170.103 105.299 169.903C105.399 168.603 105.599 167.303 105.799 166.103C106.199 163.503 106.799 160.903 107.499 158.303C107.999 156.603 108.599 154.803 109.299 152.803C109.699 151.603 110.099 150.603 110.599 149.503C111.299 147.803 111.999 146.203 112.899 144.403C113.499 143.203 113.999 142.103 114.599 141.103C114.999 140.403 115.399 139.603 115.799 138.803C115.799 138.703 115.899 138.703 115.899 138.603L115.999 138.503C116.199 138.003 116.499 137.603 116.699 137.203C117.499 135.703 118.399 134.103 119.499 132.203C122.499 132.903 125.299 134.103 127.999 135.703C130.199 136.803 132.199 138.303 133.999 140.003C138.599 144.303 141.999 150.403 143.599 157.403C145.499 167.303 143.899 177.003 139.099 183.503Z" fill="#221F1F"/>
<path d="M92.9998 164.704C90.7998 164.704 88.4998 163.504 86.4998 161.204C85.8998 160.604 85.8998 159.604 86.4998 159.004C88.4998 156.704 90.7998 155.504 92.9998 155.504C95.1998 155.504 97.4998 156.704 99.4998 159.004C100.1 159.604 100.1 160.604 99.4998 161.204C97.4998 163.504 95.1998 164.704 92.9998 164.704Z" fill="#EFEBE2"/>
<path d="M99.6996 158.803C97.5996 156.503 95.2996 155.203 92.8996 155.203C90.5996 155.203 88.1996 156.403 86.0996 158.803C85.7996 159.103 85.5996 159.503 85.5996 159.903C85.5996 160.003 85.5996 160.203 85.5996 160.303C85.5996 160.703 85.7996 161.103 86.0996 161.403C88.1996 163.703 90.4996 165.003 92.8996 165.003C95.1996 165.003 97.5996 163.803 99.6996 161.403C99.9996 161.103 100.1 160.703 100.2 160.303C100.2 160.103 100.2 160.003 100.2 159.803C100.2 159.503 99.9996 159.103 99.6996 158.803ZM86.5996 159.403C86.5996 159.303 86.6996 159.303 86.7996 159.203L86.8996 159.103C87.0996 158.903 87.2996 158.603 87.5996 158.403C87.7996 158.203 87.9996 158.003 88.1996 157.803C88.2996 157.703 88.2996 157.703 88.3996 157.603C88.5996 157.403 88.7996 157.203 89.0996 157.103H89.1996C89.4996 156.903 89.6996 156.803 89.9996 156.603C90.0996 156.503 90.2996 156.503 90.3996 156.403C90.4996 156.303 90.6996 156.303 90.7996 156.203C90.8996 156.103 91.0996 156.103 91.1996 156.103C91.2996 156.103 91.2996 156.003 91.3996 156.003C91.4996 155.903 91.6996 155.903 91.8996 155.903C91.9996 155.903 92.0996 155.803 92.2996 155.803C92.5996 155.703 92.9996 155.703 93.2996 155.703C93.5996 155.703 93.9996 155.703 94.2996 155.803C94.3996 155.803 94.4996 155.903 94.6996 155.903C94.8996 155.903 94.9996 156.003 95.1996 156.003C95.2996 156.003 95.2996 156.003 95.3996 156.103C95.4996 156.103 95.6996 156.203 95.7996 156.203C95.8996 156.303 96.0996 156.303 96.1996 156.403C96.2996 156.503 96.4996 156.503 96.5996 156.603C96.8996 156.703 97.0996 156.903 97.3996 157.103C97.3996 157.103 97.3996 157.103 97.4996 157.103C97.6996 157.303 97.8996 157.403 98.1996 157.603C98.2996 157.703 98.2996 157.703 98.3996 157.803C98.5996 158.003 98.7996 158.203 98.9996 158.403C99.1996 158.603 99.4996 158.903 99.6996 159.203C100.2 159.703 100.2 160.503 99.6996 161.003C98.2996 162.603 96.7996 163.603 95.2996 164.103C95.1996 164.203 94.9996 164.203 94.7996 164.203C94.6996 164.203 94.5996 164.303 94.3996 164.303C94.0996 164.403 93.6996 164.403 93.3996 164.403C93.0996 164.403 92.6996 164.403 92.3996 164.303C92.2996 164.303 92.1996 164.203 91.9996 164.203C91.7996 164.203 91.6996 164.103 91.4996 164.103C89.8996 163.603 88.2996 162.503 86.8996 160.803C86.2996 160.403 86.2996 159.803 86.5996 159.403Z" fill="#221F1F"/>
<path d="M99.4998 159.004C99.2998 158.804 99.1998 158.704 98.9998 158.504C98.8998 158.404 98.6998 158.204 98.5998 158.104C97.9998 157.504 97.3998 157.104 96.7998 156.704C96.5998 156.604 96.2998 156.404 96.0998 156.304C95.8998 156.204 95.5998 156.104 95.3998 156.004C95.2998 155.904 95.0998 155.904 94.9998 155.904C94.8998 155.904 94.7998 155.804 94.6998 155.804C94.5998 155.804 94.3998 155.704 94.2998 155.704C94.1998 155.704 93.9998 155.604 93.8998 155.604C93.5998 155.604 93.2998 155.504 93.0998 155.504C92.7998 155.504 92.4998 155.504 92.2998 155.604C91.9998 155.604 91.6998 155.704 91.4998 155.804C91.3998 155.804 91.2998 155.804 91.2998 155.904C91.1998 155.904 91.1998 156.004 91.0998 156.004C90.9998 156.004 90.8998 156.104 90.6998 156.104C90.5998 156.204 90.3998 156.204 90.2998 156.304C90.1998 156.404 89.9998 156.404 89.8998 156.504C89.6998 156.604 89.4998 156.704 89.1998 156.904C88.9998 157.004 88.6998 157.204 88.4998 157.404C88.2998 157.504 88.1998 157.604 87.9998 157.804C87.6998 158.004 87.3998 158.304 87.0998 158.604C86.8998 158.804 86.7998 158.904 86.6998 159.104C86.4998 159.404 86.1998 159.704 85.9998 160.004C85.9998 160.104 85.9998 160.304 85.9998 160.404C86.1998 160.704 86.4998 161.004 86.6998 161.304C86.9998 161.604 87.2998 161.904 87.5998 162.204C87.7998 162.404 87.9998 162.604 88.2998 162.804C88.3998 162.904 88.5998 163.004 88.6998 163.104C88.7998 163.204 88.9998 163.304 89.0998 163.404C89.5998 163.804 90.1998 164.104 90.6998 164.304C90.7998 164.404 90.9998 164.404 91.0998 164.404C91.1998 164.504 91.3998 164.504 91.4998 164.504C91.5998 164.504 91.7998 164.604 91.8998 164.604C91.9998 164.604 92.0998 164.604 92.1998 164.704C92.2998 164.704 92.3998 164.704 92.4998 164.704C92.6998 164.704 92.8998 164.704 93.0998 164.704C93.2998 164.704 93.4998 164.704 93.6998 164.704H93.7998C93.8998 164.704 93.9998 164.704 93.9998 164.704C94.0998 164.704 94.1998 164.704 94.2998 164.604C94.3998 164.604 94.4998 164.504 94.6998 164.504C94.9998 164.404 95.1998 164.304 95.4998 164.204H95.5998C95.6998 164.104 95.7998 164.104 95.8998 164.004C96.1998 163.904 96.4998 163.704 96.6998 163.604C96.7998 163.504 96.8998 163.504 96.9998 163.404C97.5998 163.004 98.2998 162.504 98.8998 161.904C99.0998 161.704 99.2998 161.504 99.4998 161.304C99.6998 161.004 99.9998 160.704 100.2 160.404C100.2 160.204 100.2 160.104 100.2 159.904C99.9998 159.504 99.6998 159.304 99.4998 159.004ZM99.8998 160.204C99.6998 160.504 99.4998 160.804 99.1998 161.004C97.7998 162.604 96.2998 163.604 94.7998 164.104C94.6998 164.204 94.4998 164.204 94.2998 164.204C94.1998 164.204 94.0998 164.304 93.8998 164.304C93.5998 164.404 93.1998 164.404 92.8998 164.404C92.5998 164.404 92.1998 164.404 91.8998 164.304C91.7998 164.304 91.6998 164.204 91.4998 164.204C91.2998 164.204 91.1998 164.104 90.9998 164.104C89.3998 163.604 87.7998 162.504 86.3998 160.804C86.1998 160.604 86.0998 160.404 85.8998 160.204L85.7998 160.104L85.8998 160.004C86.0998 159.804 86.1998 159.604 86.3998 159.404C86.3998 159.304 86.4998 159.304 86.5998 159.204L86.6998 159.104C86.8998 158.904 87.0998 158.604 87.3998 158.404C87.5998 158.204 87.7998 158.004 87.9998 157.804C88.0998 157.704 88.0998 157.704 88.1998 157.604C88.3998 157.404 88.5998 157.204 88.8998 157.104H88.9998C89.2998 156.904 89.4998 156.804 89.7998 156.604C89.8998 156.504 90.0998 156.504 90.1998 156.404C90.2998 156.304 90.4998 156.304 90.5998 156.204C90.6998 156.104 90.8998 156.104 90.9998 156.104C91.0998 156.104 91.0998 156.004 91.1998 156.004C91.2998 155.904 91.4998 155.904 91.6998 155.904C91.7998 155.904 91.8998 155.804 92.0998 155.804C92.3998 155.704 92.7998 155.704 93.0998 155.704C93.3998 155.704 93.7998 155.704 94.0998 155.804C94.1998 155.804 94.2998 155.904 94.4998 155.904C94.6998 155.904 94.7998 156.004 94.9998 156.004C95.0998 156.004 95.0998 156.004 95.1998 156.104C95.2998 156.104 95.4998 156.204 95.5998 156.204C95.6998 156.304 95.8998 156.304 95.9998 156.404C96.0998 156.504 96.2998 156.504 96.3998 156.604C96.6998 156.704 96.8998 156.904 97.1998 157.104C97.1998 157.104 97.1998 157.104 97.2998 157.104C97.4998 157.304 97.6998 157.404 97.9998 157.604C98.0998 157.704 98.0998 157.704 98.1998 157.804C98.3998 158.004 98.5998 158.204 98.7998 158.404C98.9998 158.604 99.2998 158.904 99.4998 159.204C99.6998 159.404 99.8998 159.704 100.2 160.004L100.3 160.104C99.9998 160.104 99.8998 160.104 99.8998 160.204Z" fill="#221F1F"/>
<path d="M92.9998 163.302C94.7671 163.302 96.1998 161.87 96.1998 160.102C96.1998 158.335 94.7671 156.902 92.9998 156.902C91.2325 156.902 89.7998 158.335 89.7998 160.102C89.7998 161.87 91.2325 163.302 92.9998 163.302Z" fill="#221F1F"/>
<path d="M125.699 164.704C123.499 164.704 121.199 163.504 119.199 161.204C118.599 160.604 118.599 159.604 119.199 159.004C121.199 156.704 123.499 155.504 125.699 155.504C127.899 155.504 130.199 156.704 132.199 159.004C132.799 159.604 132.799 160.604 132.199 161.204C130.199 163.504 127.999 164.704 125.699 164.704Z" fill="#EFEBE2"/>
<path d="M132.499 158.803C130.399 156.503 128.099 155.203 125.699 155.203C123.399 155.203 120.999 156.403 118.899 158.803C118.599 159.103 118.399 159.503 118.399 159.903C118.399 160.003 118.399 160.203 118.399 160.303C118.399 160.703 118.599 161.103 118.899 161.403C120.999 163.703 123.299 165.003 125.699 165.003C127.999 165.003 130.399 163.803 132.499 161.403C132.799 161.103 132.899 160.703 132.999 160.303C132.999 160.103 132.999 160.003 132.999 159.803C132.899 159.503 132.799 159.103 132.499 158.803ZM119.299 159.403C119.299 159.303 119.399 159.303 119.499 159.203L119.599 159.103C119.799 158.903 119.999 158.603 120.299 158.403C120.499 158.203 120.699 158.003 120.899 157.803C120.999 157.703 120.999 157.703 121.099 157.603C121.299 157.403 121.499 157.203 121.799 157.103H121.899C122.199 156.903 122.399 156.803 122.699 156.603C122.799 156.503 122.999 156.503 123.099 156.403C123.199 156.303 123.399 156.303 123.499 156.203C123.599 156.103 123.799 156.103 123.899 156.103C123.999 156.103 123.999 156.003 124.099 156.003C124.199 155.903 124.399 155.903 124.599 155.903C124.699 155.903 124.799 155.803 124.999 155.803C125.299 155.703 125.699 155.703 125.999 155.703C126.299 155.703 126.699 155.703 126.999 155.803C127.099 155.803 127.199 155.903 127.399 155.903C127.599 155.903 127.699 156.003 127.899 156.003C127.999 156.003 127.999 156.003 128.099 156.103C128.199 156.103 128.399 156.203 128.499 156.203C128.599 156.303 128.799 156.303 128.899 156.403C128.999 156.503 129.199 156.503 129.299 156.603C129.599 156.703 129.799 156.903 130.099 157.103C130.099 157.103 130.099 157.103 130.199 157.103C130.399 157.303 130.599 157.403 130.899 157.603C130.999 157.703 130.999 157.703 131.099 157.803C131.299 158.003 131.499 158.203 131.699 158.403C131.899 158.603 132.199 158.903 132.399 159.203C132.899 159.703 132.899 160.503 132.399 161.003C130.999 162.603 129.499 163.603 127.999 164.103C127.899 164.203 127.699 164.203 127.499 164.203C127.399 164.203 127.299 164.303 127.099 164.303C126.799 164.403 126.399 164.403 126.099 164.403C125.799 164.403 125.399 164.403 125.099 164.303C124.999 164.303 124.899 164.203 124.699 164.203C124.499 164.203 124.399 164.103 124.199 164.103C122.599 163.603 120.999 162.503 119.599 160.803C119.099 160.403 119.099 159.803 119.299 159.403Z" fill="#221F1F"/>
<path d="M132.299 159.004C132.199 159.004 132.199 159.004 132.299 159.004C132.099 158.804 131.999 158.704 131.799 158.504C131.699 158.404 131.499 158.204 131.399 158.104C130.799 157.504 130.199 157.104 129.599 156.704C129.399 156.604 129.099 156.404 128.899 156.304C128.699 156.204 128.399 156.104 128.199 156.004C128.099 155.904 127.899 155.904 127.799 155.904C127.699 155.904 127.599 155.804 127.499 155.804C127.399 155.804 127.199 155.704 127.099 155.704C126.999 155.704 126.799 155.604 126.699 155.604C126.399 155.604 126.099 155.504 125.899 155.504C125.599 155.504 125.299 155.504 125.099 155.604C124.799 155.604 124.499 155.704 124.299 155.804C124.199 155.804 124.099 155.804 124.099 155.904C123.999 155.904 123.999 156.004 123.899 156.004C123.799 156.004 123.699 156.104 123.499 156.104C123.399 156.204 123.199 156.204 123.099 156.304C122.999 156.404 122.799 156.404 122.699 156.504C122.499 156.604 122.299 156.704 121.999 156.904C121.799 157.004 121.499 157.204 121.299 157.404C121.099 157.504 120.999 157.604 120.799 157.804C120.499 158.004 120.199 158.304 119.899 158.604C119.699 158.804 119.599 158.904 119.499 159.104C119.299 159.404 118.999 159.704 118.799 160.004C118.799 160.104 118.799 160.304 118.799 160.404C118.999 160.704 119.299 161.004 119.499 161.304C119.799 161.604 120.099 161.904 120.399 162.204C120.599 162.404 120.799 162.604 121.099 162.804C121.199 162.904 121.399 163.004 121.499 163.104C121.599 163.204 121.799 163.304 121.899 163.404C122.399 163.804 122.999 164.104 123.499 164.304C123.599 164.404 123.799 164.404 123.899 164.404C123.999 164.504 124.199 164.504 124.299 164.504C124.399 164.504 124.599 164.604 124.699 164.604C124.799 164.604 124.899 164.604 124.999 164.704C125.099 164.704 125.199 164.704 125.299 164.704C125.499 164.704 125.699 164.704 125.899 164.704C126.099 164.704 126.299 164.704 126.499 164.704H126.599C126.699 164.704 126.799 164.704 126.799 164.704C126.899 164.704 126.999 164.704 127.099 164.604C127.199 164.604 127.299 164.504 127.499 164.504C127.799 164.404 127.999 164.304 128.299 164.204H128.399C128.499 164.104 128.599 164.104 128.699 164.004C128.999 163.904 129.299 163.704 129.499 163.604C129.599 163.504 129.699 163.504 129.799 163.404C130.399 163.004 131.099 162.504 131.699 161.904C131.899 161.704 132.099 161.504 132.299 161.304C132.499 161.004 132.799 160.704 132.999 160.404C132.999 160.204 132.999 160.104 132.999 159.904C132.699 159.504 132.499 159.304 132.299 159.004ZM132.599 160.204C132.399 160.504 132.199 160.804 131.899 161.004C130.499 162.604 128.999 163.604 127.499 164.104C127.399 164.204 127.199 164.204 126.999 164.204C126.899 164.204 126.799 164.304 126.599 164.304C126.299 164.404 125.899 164.404 125.599 164.404C125.299 164.404 124.899 164.404 124.599 164.304C124.499 164.304 124.399 164.204 124.199 164.204C123.999 164.204 123.899 164.104 123.699 164.104C122.099 163.604 120.499 162.504 119.099 160.804C118.899 160.604 118.799 160.404 118.599 160.204L118.499 160.104L118.599 160.004C118.799 159.804 118.899 159.604 119.099 159.404C119.099 159.304 119.199 159.304 119.299 159.204L119.399 159.104C119.599 158.904 119.799 158.604 120.099 158.404C120.299 158.204 120.499 158.004 120.699 157.804C120.799 157.704 120.799 157.704 120.899 157.604C121.099 157.404 121.299 157.204 121.599 157.104H121.699C121.999 156.904 122.199 156.804 122.499 156.604C122.599 156.504 122.799 156.504 122.899 156.404C122.999 156.304 123.199 156.304 123.299 156.204C123.399 156.104 123.599 156.104 123.699 156.104C123.799 156.104 123.799 156.004 123.899 156.004C123.999 155.904 124.199 155.904 124.399 155.904C124.499 155.904 124.599 155.804 124.799 155.804C125.099 155.704 125.499 155.704 125.799 155.704C126.099 155.704 126.499 155.704 126.799 155.804C126.899 155.804 126.999 155.904 127.199 155.904C127.399 155.904 127.499 156.004 127.699 156.004C127.799 156.004 127.799 156.004 127.899 156.104C127.999 156.104 128.199 156.204 128.299 156.204C128.399 156.304 128.599 156.304 128.699 156.404C128.799 156.504 128.999 156.504 129.099 156.604C129.399 156.704 129.599 156.904 129.899 157.104C129.899 157.104 129.899 157.104 129.999 157.104C130.199 157.304 130.399 157.404 130.699 157.604C130.799 157.704 130.799 157.704 130.899 157.804C131.099 158.004 131.299 158.204 131.499 158.404C131.699 158.604 131.999 158.904 132.199 159.204C132.399 159.404 132.599 159.704 132.899 160.004L132.999 160.104C132.699 160.104 132.699 160.104 132.599 160.204Z" fill="#221F1F"/>
<path d="M125.699 163.302C127.466 163.302 128.899 161.87 128.899 160.102C128.899 158.335 127.466 156.902 125.699 156.902C123.932 156.902 122.499 158.335 122.499 160.102C122.499 161.87 123.932 163.302 125.699 163.302Z" fill="#221F1F"/>
</svg>
