<svg width="181" height="278" viewBox="0 0 181 278" fill="none" xmlns="http://www.w3.org/2000/svg">
<path d="M172.852 0.160156L8.92969 0.160156C4.51141 0.160156 0.929688 3.74188 0.929688 8.16016L0.929687 269.954C0.929687 274.372 4.51141 277.954 8.92969 277.954H172.852C177.27 277.954 180.852 274.372 180.852 269.954V8.16016C180.852 3.74188 177.27 0.160156 172.852 0.160156Z" fill="#1C1C1E"/>
<path d="M173.623 3.27734H8.04687C5.83774 3.27734 4.04688 5.0682 4.04688 7.27734V270.725C4.04688 272.934 5.83774 274.725 8.04688 274.725H173.623C175.832 274.725 177.623 272.934 177.623 270.725V7.27734C177.623 5.0682 175.832 3.27734 173.623 3.27734Z" fill="#EFEBE2"/>
<path d="M59.8282 217.385H59.6055C59.6055 217.385 59.6054 217.273 59.7168 217.273C59.7168 217.273 59.7168 217.273 59.7168 217.162C59.7168 217.273 59.7168 217.273 59.8282 217.385C59.7168 217.385 59.7168 217.385 59.8282 217.385Z" fill="#373FEF"/>
<path d="M59.8282 217.385H59.6055C59.6055 217.385 59.6054 217.273 59.7168 217.273C59.7168 217.273 59.7168 217.273 59.7168 217.162C59.7168 217.273 59.7168 217.273 59.8282 217.385C59.7168 217.385 59.7168 217.385 59.8282 217.385Z" fill="#EFEBE2"/>
<path d="M134.647 216.717C134.535 216.828 134.535 216.828 134.647 216.717C134.535 216.828 134.424 216.939 134.424 217.051C134.424 217.162 134.312 217.162 134.312 217.274C134.312 217.051 134.312 216.828 134.312 216.605C134.312 216.717 134.424 216.717 134.647 216.717Z" fill="#373FEF"/>
<path d="M134.647 216.717C134.535 216.828 134.535 216.828 134.647 216.717C134.535 216.828 134.424 216.939 134.424 217.051H134.312C134.312 216.939 134.312 216.717 134.312 216.605C134.312 216.717 134.424 216.717 134.647 216.717Z" fill="#EFEBE2"/>
<path d="M135.984 217.049C135.984 217.161 135.984 217.383 135.984 217.495C135.984 218.163 135.872 218.831 135.761 219.499C135.538 220.39 135.204 221.169 134.647 221.837C130.194 227.849 115.052 233.973 97.0152 234.752C78.7557 235.532 63.5024 230.744 59.2716 222.06C58.9376 221.392 58.6035 220.724 58.4922 219.944C58.2695 219.276 58.1582 218.608 58.1582 217.94C58.1582 217.829 58.1582 217.606 58.1582 217.383C58.1582 215.825 58.2695 214.377 58.2695 212.818C58.2695 213.486 58.3808 214.154 58.6035 214.934C58.8262 215.825 59.2715 216.604 59.7169 217.495C59.7169 217.495 59.7169 217.495 59.6056 217.606C59.7169 217.606 59.7169 217.606 59.8283 217.606C60.1623 218.163 60.4963 218.719 60.9417 219.276C66.6199 226.847 80.6485 230.855 97.1265 229.519C114.607 228.072 129.303 222.728 134.202 217.161C134.202 217.161 134.313 217.049 134.313 216.938C134.425 216.827 134.536 216.715 134.536 216.604C134.981 215.936 135.316 215.379 135.538 214.711C135.761 214.043 135.872 213.375 135.872 212.707C135.984 214.266 135.984 215.602 135.984 217.049C136.095 217.049 136.095 217.049 135.984 217.049Z" fill="#EFEBE2"/>
<path d="M136.318 221.95C136.54 230.412 119.06 238.985 97.238 239.208C75.4157 239.43 57.9357 232.527 58.1584 221.95C58.1584 220.614 58.1584 219.278 58.1584 217.942C58.1584 218.61 58.2697 219.278 58.4924 219.946C58.715 220.614 58.9377 221.282 59.2717 222.061C63.5026 230.746 78.7559 235.533 97.0153 234.754C115.052 233.975 130.194 227.851 134.648 221.838C135.204 221.059 135.538 220.28 135.761 219.5C135.984 218.832 135.984 218.164 135.984 217.496C135.984 217.385 135.984 217.162 135.984 217.051C136.095 218.498 136.095 220.057 136.206 221.504C136.206 221.727 136.206 221.838 136.318 221.95Z" fill="#373FEF"/>
<path d="M134.533 216.828C134.422 216.939 134.311 217.051 134.311 217.162C134.311 217.273 134.199 217.274 134.199 217.385C134.199 217.162 134.199 216.939 134.199 216.717C134.311 216.717 134.422 216.717 134.533 216.828Z" fill="#373FEF"/>
<path d="M134.647 216.717C134.535 216.828 134.535 216.828 134.647 216.717C134.535 216.828 134.424 216.939 134.424 217.051C134.424 217.162 134.312 217.162 134.312 217.274C134.312 217.051 134.312 216.828 134.312 216.605C134.312 216.717 134.424 216.717 134.647 216.717Z" fill="#EFEBE2"/>
<path d="M97.1246 195.115C75.859 195.337 58.3789 203.911 58.2676 212.372C58.2676 212.484 58.2676 212.706 58.2676 212.818C58.2676 212.818 58.2676 212.818 58.2676 212.929C58.2676 213.597 58.3789 214.265 58.6016 215.045C58.8243 215.935 59.2696 216.715 59.715 217.605C59.715 217.605 59.715 217.605 59.715 217.717C59.715 217.717 59.715 217.828 59.8263 217.828C60.1604 218.385 60.4944 218.941 60.9397 219.498C66.618 227.069 80.6466 231.078 97.1246 229.741C114.605 228.294 129.301 222.95 134.2 217.383C134.2 217.16 134.2 216.937 134.2 216.715C134.312 216.715 134.534 216.715 134.645 216.826C135.091 216.158 135.425 215.601 135.648 214.933C135.87 214.265 135.982 213.597 135.982 212.929C135.982 212.706 135.982 212.372 135.982 212.15C135.314 201.572 118.056 195.003 97.1246 195.115ZM97.2359 224.62C80.4239 226.513 66.8406 220.723 66.9519 213.486C66.9519 213.04 67.0633 212.595 67.1746 212.261C68.288 208.03 74.857 204.245 83.8753 201.906H83.9867C87.9948 200.904 92.4484 200.236 97.2359 200.014C102.357 199.791 107.145 200.125 111.376 200.793C111.487 200.793 111.487 200.793 111.599 200.793C120.172 202.24 126.184 205.692 127.297 209.812C127.409 210.257 127.52 210.591 127.52 211.036C127.52 217.494 114.048 222.727 97.2359 224.62Z" fill="#1C1C1E"/>
<path d="M111.377 200.797C106.924 200.24 102.136 200.017 97.1262 200.24C92.5614 200.463 88.1078 201.019 83.9883 201.799C87.9965 200.797 92.45 200.129 97.2375 199.906C102.359 199.795 107.147 200.129 111.377 200.797Z" fill="#1C1C1E"/>
<path d="M134.648 216.717C134.537 216.828 134.537 216.828 134.648 216.717C134.537 216.828 134.426 216.939 134.426 217.051C134.426 217.162 134.314 217.162 134.314 217.274C134.314 217.051 134.314 216.828 134.314 216.605C134.314 216.717 134.426 216.717 134.648 216.717Z" fill="#1C1C1E"/>
<path d="M126.744 211.148C126.856 217.049 113.272 222.06 97.2397 223.952C81.0956 225.734 67.6237 220.278 67.7351 213.598C67.7351 213.264 67.735 212.818 67.8464 212.484V212.373C68.9598 208.476 75.0834 204.913 83.8791 202.686H83.9904C88.1099 201.796 92.5634 201.239 97.017 201.016C101.916 200.794 106.703 200.905 111.157 201.573H111.268C119.619 202.909 125.408 206.361 126.41 210.146C126.633 210.369 126.744 210.703 126.744 211.148Z" fill="#1C1C1E"/>
<path d="M127.967 209.813C126.854 205.471 120.73 201.685 111.712 200.238C111.6 200.238 111.489 200.238 111.489 200.238C106.924 199.57 102.025 199.347 97.1266 199.57C92.5617 199.681 88.1081 200.238 83.8773 201.129C83.766 201.129 83.7659 201.129 83.6546 201.129C74.0795 203.578 67.6219 207.586 66.3972 212.04C66.3972 212.04 66.3972 212.04 66.3972 212.151C66.2859 212.597 66.1745 213.042 66.1745 213.487C66.0632 221.281 79.6465 227.294 97.1266 225.401C114.607 223.508 128.19 218.164 128.079 211.261C128.19 210.704 128.078 210.258 127.967 209.813ZM97.2379 223.842C81.0938 225.623 67.6219 220.168 67.7333 213.487C67.7333 213.153 67.7332 212.708 67.8446 212.374V212.263C68.958 208.366 75.0816 204.803 83.8773 202.576H83.9886C88.1081 201.685 92.5617 201.129 97.0152 200.906C101.914 200.683 106.702 200.795 111.155 201.463H111.266C119.617 202.799 125.406 206.25 126.408 210.036C126.52 210.37 126.52 210.704 126.52 211.038C126.854 216.939 113.271 222.061 97.2379 223.842Z" fill="#EFEBE2"/>
<path d="M122.844 204.359C122.732 204.471 122.621 204.693 122.51 204.805C122.51 204.916 122.398 204.916 122.398 205.027C122.398 204.805 122.398 204.582 122.398 204.359C122.621 204.359 122.732 204.359 122.844 204.359Z" fill="#373FEF"/>
<path d="M122.844 204.359C122.732 204.471 122.621 204.693 122.51 204.805H122.398C122.398 204.693 122.398 204.471 122.398 204.359C122.621 204.359 122.732 204.359 122.844 204.359Z" fill="#EFEBE2"/>
<path d="M124.292 204.36C124.292 204.471 124.292 204.694 124.292 204.805C124.292 205.473 124.181 206.141 124.069 206.809C123.847 207.7 123.401 208.591 122.845 209.37C116.944 216.607 99.1297 221.952 81.9836 221.952C62.7221 221.952 50.3636 216.496 47.4688 209.036C47.1348 208.368 46.9121 207.811 46.8008 207.143C46.5781 206.475 46.4668 205.807 46.4668 205.139C46.4668 205.028 46.4668 204.805 46.4668 204.694C46.4668 203.135 46.5781 201.688 46.5781 200.129C46.5781 200.797 46.8008 201.465 46.9121 202.133C47.1348 202.912 47.5801 203.692 48.0255 204.471C48.0255 204.471 48.0255 204.471 48.0255 204.583C48.0255 204.583 48.0255 204.694 47.9142 204.694C48.0255 204.694 48.0255 204.694 48.1369 204.694C48.4709 205.139 48.8049 205.696 49.1389 206.141C54.0377 212.488 64.0582 216.941 80.8702 216.941C97.905 216.941 117.166 211.931 122.511 205.028C122.511 204.917 122.622 204.917 122.622 204.805C122.733 204.694 122.845 204.583 122.845 204.36C123.29 203.692 123.624 202.912 123.847 202.244C124.069 201.576 124.181 200.908 124.181 200.129C124.292 201.576 124.292 202.912 124.292 204.36Z" fill="#EFEBE2"/>
<path d="M124.515 209.258C125.183 214.046 118.503 218.388 111.488 221.506C104.029 224.623 96.1236 226.516 85.5464 226.516C74.4126 226.516 62.7222 224.623 55.9305 221.506C48.8049 218.388 46.8008 214.046 46.4668 209.258C46.4668 207.922 46.4668 206.586 46.4668 205.25C46.4668 205.918 46.5781 206.586 46.8008 207.254C47.0235 207.922 47.2461 208.59 47.4688 209.147C50.3636 216.495 62.7221 222.062 81.9836 222.062C99.1297 222.062 116.944 216.718 122.845 209.481C123.401 208.59 123.847 207.811 124.069 206.92C124.292 206.252 124.292 205.584 124.292 204.916C124.292 204.805 124.292 204.582 124.292 204.471C124.403 205.918 124.403 207.477 124.515 208.924C124.515 208.924 124.515 209.147 124.515 209.258Z" fill="#373FEF"/>
<path d="M122.846 204.359C122.734 204.471 122.623 204.582 122.623 204.805C122.623 204.916 122.512 204.916 122.512 205.027C122.512 204.805 122.512 204.582 122.512 204.359C122.512 204.359 122.734 204.359 122.846 204.359Z" fill="#373FEF"/>
<path d="M122.844 204.359C122.732 204.471 122.621 204.693 122.51 204.805C122.51 204.916 122.398 204.916 122.398 205.027C122.398 204.805 122.398 204.582 122.398 204.359C122.621 204.359 122.732 204.359 122.844 204.359Z" fill="#EFEBE2"/>
<path d="M85.3231 182.426C74.8573 182.426 67.175 184.319 59.7153 187.436C52.701 190.554 45.9094 194.896 46.3547 199.684C46.3547 199.795 46.3547 200.018 46.3547 200.129C46.3547 200.129 46.3547 200.129 46.3547 200.24C46.3547 200.908 46.5774 201.576 46.6887 202.244C46.9114 203.024 47.3568 203.803 47.8021 204.582C47.8021 204.582 47.8021 204.582 47.8021 204.694V204.805C48.1361 205.25 48.4702 205.807 48.8042 206.253C53.7031 212.599 63.7235 217.053 80.5356 217.053C97.5703 217.053 116.832 212.042 122.176 205.139C122.176 204.916 122.176 204.694 122.176 204.471C122.287 204.471 122.51 204.471 122.621 204.471C123.067 203.803 123.401 203.024 123.623 202.356C123.846 201.688 123.957 201.02 123.957 200.24C123.957 200.018 123.957 199.683 123.957 199.461C123.178 194.785 120.951 190.554 113.937 187.547C107.479 184.319 96.0115 182.426 85.3231 182.426ZM81.8716 211.931C65.1709 211.931 55.3731 206.475 56.1525 199.684C56.2638 199.238 56.3752 198.793 56.5979 198.459C58.4906 194.116 66.5069 190.554 75.6367 188.661H75.748C79.8675 187.881 84.2097 187.436 88.9972 187.436C94.1188 187.436 99.0177 187.993 103.137 188.883C103.249 188.883 103.249 188.883 103.36 188.883C111.71 190.776 116.386 194.339 116.72 198.459C116.72 198.904 116.72 199.238 116.609 199.684C116.164 206.364 98.9064 211.931 81.8716 211.931Z" fill="#1C1C1E"/>
<path d="M103.137 188.774C98.9063 187.994 94.0075 187.549 88.9972 187.549C84.321 187.549 79.9789 187.883 75.748 188.551C79.8676 187.772 84.2097 187.326 88.9972 187.326C94.1188 187.326 99.0177 187.772 103.137 188.774Z" fill="#1C1C1E"/>
<path d="M122.846 204.359C122.734 204.471 122.623 204.693 122.512 204.805C122.512 204.916 122.4 204.916 122.4 205.027C122.4 204.805 122.4 204.582 122.4 204.359C122.623 204.359 122.734 204.359 122.846 204.359Z" fill="#1C1C1E"/>
<path d="M115.943 199.573C115.498 205.809 98.4629 211.153 82.0962 211.153C66.1749 211.153 56.1544 205.809 56.8225 199.573C56.9338 199.239 57.0451 198.794 57.1565 198.571V198.46C59.0492 194.563 66.6202 191.112 75.75 189.33H75.8613C80.2035 188.662 84.657 188.328 89.1105 188.328C94.0094 188.328 98.6856 188.773 103.028 189.553H103.139C111.155 191.446 115.609 194.897 115.832 198.571C116.054 198.905 116.054 199.239 115.943 199.573Z" fill="#1C1C1E"/>
<path d="M117.389 198.124C116.944 193.782 112.379 189.996 103.361 187.992C103.25 187.992 103.138 187.992 103.138 187.881C98.6847 187.102 93.6745 186.656 88.7756 186.656C84.2108 186.656 79.8686 186.99 75.5264 187.658C75.415 187.658 75.415 187.658 75.3037 187.658C65.84 189.662 57.8236 193.448 55.8195 198.013C55.8195 198.013 55.8195 198.013 55.8195 198.124C55.5969 198.57 55.4856 199.015 55.3742 199.46C54.7062 206.809 64.3926 212.487 81.65 212.487C99.3527 212.487 116.944 206.809 117.278 199.46C117.39 199.126 117.389 198.57 117.389 198.124ZM82.2067 211.151C66.2853 211.151 56.2649 205.807 56.9329 199.572C57.0442 199.238 57.1556 198.792 57.2669 198.57V198.458C59.1597 194.561 66.7307 191.11 75.8604 189.328H75.9718C80.314 188.66 84.7674 188.326 89.221 188.326C94.1198 188.326 98.796 188.772 103.138 189.551H103.25C111.266 191.444 115.719 194.895 115.942 198.57C115.942 198.904 115.942 199.238 115.831 199.683C115.497 205.807 98.462 211.151 82.2067 211.151Z" fill="#EFEBE2"/>
<path d="M139.436 200.238C139.324 200.35 139.102 200.461 138.99 200.572C138.879 200.684 138.879 200.684 138.768 200.684C138.879 200.461 138.879 200.238 138.99 200.127C139.102 200.238 139.213 200.238 139.436 200.238Z" fill="#373FEF"/>
<path d="M141.102 200.572C141.102 200.684 140.99 200.795 140.99 201.018C140.99 200.795 140.99 200.684 141.102 200.572Z" fill="#373FEF"/>
<path d="M139.432 200.236C139.32 200.348 139.098 200.459 138.986 200.57H138.875C138.875 200.459 138.986 200.348 138.986 200.125C139.098 200.236 139.209 200.236 139.432 200.236Z" fill="#EFEBE2"/>
<path d="M141.102 200.572C141.102 200.684 140.99 200.795 140.99 201.018C140.99 200.795 140.99 200.684 141.102 200.572Z" fill="#EFEBE2"/>
<path d="M141.102 200.57C141.102 200.682 140.99 200.905 140.99 201.016C140.879 201.684 140.545 202.352 140.211 202.909C139.766 203.688 139.098 204.467 138.207 205.247C130.525 211.482 114.381 213.597 95.4532 209.923C76.303 206.249 68.732 197.787 65.2805 189.659C65.0578 188.991 64.9465 188.323 64.8352 187.655C64.7238 186.987 64.8352 186.319 64.9465 185.651C64.9465 185.54 65.0578 185.317 65.0578 185.206C65.5032 183.758 65.9486 182.199 66.2826 180.752C66.1712 181.42 66.1712 182.088 66.1712 182.756C66.2825 183.535 66.5052 184.426 66.8393 185.317C66.8393 185.317 66.8392 185.317 66.7279 185.317C66.7279 185.317 66.6166 185.317 66.6166 185.428C66.7279 185.428 66.7279 185.428 66.8393 185.428C67.0619 185.985 67.396 186.542 67.6186 187.098C72.6289 194.447 80.1998 201.684 95.7872 205.024C112.377 208.587 130.747 206.694 138.652 200.904C138.764 200.904 138.764 200.793 138.875 200.793C138.986 200.682 139.098 200.57 139.32 200.459C139.988 199.902 140.545 199.234 140.99 198.566C141.436 197.898 141.77 197.23 141.881 196.562C141.77 197.787 141.436 199.123 141.102 200.57Z" fill="#EFEBE2"/>
<path d="M139.99 205.362C135.759 214.714 121.953 218.722 96.9022 214.269C71.1831 209.926 63.612 198.792 63.946 189.44C64.2801 188.104 64.5028 186.768 64.8368 185.543C64.7255 186.211 64.7254 186.879 64.7254 187.547C64.7254 188.215 64.9481 188.883 65.1708 189.551C68.6223 197.679 76.1932 206.141 95.3434 209.815C114.271 213.489 130.415 211.374 138.097 205.139C138.877 204.471 139.656 203.691 140.101 202.801C140.435 202.133 140.769 201.576 140.881 200.908C140.881 200.797 140.992 200.685 140.992 200.463C140.658 201.91 140.324 203.357 139.99 204.805C140.101 205.139 139.99 205.25 139.99 205.362Z" fill="#373FEF"/>
<path d="M139.322 200.238C139.211 200.35 139.1 200.461 138.877 200.572C138.766 200.684 138.766 200.684 138.654 200.684C138.766 200.461 138.766 200.238 138.877 200.127C139.1 200.238 139.211 200.238 139.322 200.238Z" fill="#373FEF"/>
<path d="M139.436 200.238C139.324 200.35 139.102 200.461 138.99 200.572C138.879 200.684 138.879 200.684 138.768 200.684C138.879 200.461 138.879 200.238 138.99 200.127C139.102 200.238 139.213 200.238 139.436 200.238Z" fill="#EFEBE2"/>
<path d="M109.037 171.064C84.4313 166.722 71.0708 170.619 66.5059 179.971C66.5059 180.083 66.3945 180.305 66.3945 180.417C66.3945 180.417 66.3945 180.417 66.3945 180.528C66.2832 181.196 66.2832 181.864 66.2832 182.532C66.3945 183.311 66.6172 184.202 66.9512 185.093C66.9512 185.093 66.9512 185.093 66.9512 185.204V185.316C67.1739 185.872 67.5079 186.429 67.7306 186.986C72.7408 194.334 80.3118 201.571 95.8991 204.911C112.488 208.474 130.859 206.582 138.764 200.792C138.876 200.569 138.876 200.346 138.987 200.235C139.098 200.235 139.321 200.346 139.432 200.346C140.1 199.79 140.657 199.122 141.102 198.454C141.548 197.786 141.882 197.118 141.993 196.45C142.104 195.782 142.216 195.113 142.104 194.557C141.548 186.986 132.752 175.184 109.037 171.064ZM98.2373 200.012C83.7633 196.561 75.1903 188.433 76.5263 181.753C76.6377 181.307 76.8603 180.973 77.083 180.528C79.6438 176.52 86.8807 174.293 96.4558 174.404H96.5672C100.798 174.404 105.697 174.961 110.484 175.852C115.717 176.854 120.171 178.412 123.622 180.194C123.734 180.194 123.734 180.194 123.734 180.305C130.525 183.868 133.977 188.656 133.643 192.887C133.643 193.332 133.42 193.777 133.309 194.111C131.193 200.792 113.379 203.353 98.2373 200.012Z" fill="#1C1C1E"/>
<path d="M123.733 180.196C120.059 178.526 115.605 177.078 110.484 176.076C105.807 175.074 101.02 174.518 96.6777 174.406C100.909 174.406 105.807 174.963 110.595 175.854C115.828 176.967 120.281 178.415 123.733 180.196Z" fill="#1C1C1E"/>
<path d="M139.434 200.236C139.322 200.348 139.1 200.459 138.988 200.57C138.877 200.682 138.877 200.682 138.766 200.682C138.877 200.459 138.877 200.236 138.988 200.125C139.1 200.236 139.211 200.236 139.434 200.236Z" fill="#1C1C1E"/>
<path d="M132.754 194.006C130.527 200.13 113.047 202.579 98.5731 199.239C84.7672 196.01 75.9714 187.994 77.3075 181.87C77.4188 181.536 77.6415 181.202 77.7529 180.868C77.7529 180.868 77.7528 180.756 77.8642 180.756C80.3136 177.194 87.3279 175.078 96.7916 175.078H96.903C101.357 175.301 106.033 175.858 110.486 176.748C115.385 177.75 119.727 179.086 123.401 180.868C123.401 180.868 123.513 180.868 123.513 180.979C130.082 184.542 133.422 189.107 132.977 192.893C132.977 193.227 132.865 193.672 132.754 194.006Z" fill="#1C1C1E"/>
<path d="M134.534 192.891C134.868 188.437 131.528 183.538 124.18 179.641C124.068 179.641 124.068 179.53 123.957 179.53C120.06 177.748 115.495 176.412 110.374 175.41C105.698 174.52 100.91 173.852 96.3453 173.74C96.2339 173.74 96.1226 173.74 96.1226 173.74C85.9908 173.74 78.9765 176.19 76.3044 180.309C76.3044 180.309 76.3044 180.309 76.3044 180.421C76.0817 180.866 75.8591 181.311 75.7477 181.757C74.3003 188.883 82.762 197.344 97.904 200.907C113.825 204.47 131.862 201.687 134.312 194.45C134.423 193.781 134.534 193.336 134.534 192.891ZM98.572 199.237C84.7661 196.008 75.9704 187.992 77.3064 181.868C77.4178 181.534 77.6405 181.2 77.7518 180.866C77.7518 180.866 77.7518 180.755 77.8631 180.755C80.3126 177.192 87.3269 175.076 96.7906 175.076H96.902C101.355 175.299 106.032 175.856 110.485 176.746C115.384 177.748 119.726 179.085 123.4 180.866C123.4 180.866 123.512 180.866 123.512 180.977C130.081 184.54 133.421 189.105 132.975 192.891C132.975 193.225 132.864 193.559 132.641 194.004C130.637 200.128 113.046 202.577 98.572 199.237Z" fill="#EFEBE2"/>
<path d="M125.514 161.158C125.402 161.381 125.402 161.492 125.291 161.604C125.291 161.715 125.18 161.715 125.18 161.826C125.18 161.604 125.18 161.381 125.068 161.27C125.291 161.158 125.402 161.158 125.514 161.158Z" fill="#373FEF"/>
<path d="M126.74 160.826C126.74 160.938 126.74 161.049 126.852 161.272C126.74 161.16 126.74 161.049 126.74 160.826Z" fill="#373FEF"/>
<path d="M125.514 161.16C125.402 161.383 125.402 161.494 125.291 161.606H125.18C125.18 161.494 125.18 161.383 125.18 161.16C125.291 161.16 125.402 161.16 125.514 161.16Z" fill="#EFEBE2"/>
<path d="M126.74 160.826C126.74 160.938 126.74 161.049 126.852 161.272C126.74 161.16 126.74 161.049 126.74 160.826Z" fill="#EFEBE2"/>
<path d="M126.737 160.827C126.737 160.938 126.737 161.161 126.849 161.272C126.96 161.94 126.96 162.608 126.849 163.276C126.737 164.167 126.515 165.058 126.181 166.06C123.175 173.965 103.579 181.647 87.3238 184.542C70.289 187.437 54.479 184.542 51.0276 177.862C50.6935 177.305 50.3595 176.748 50.1369 176.08C49.9142 175.524 49.6915 174.855 49.5802 174.187C49.5802 174.076 49.5801 173.853 49.4688 173.742C49.3575 172.295 49.1348 170.736 48.9121 169.288C49.0234 169.956 49.2461 170.625 49.4688 171.181C49.8028 171.961 50.2482 172.629 50.6936 173.297C50.6936 173.297 50.6936 173.297 50.6936 173.408V173.519H50.8049C51.1389 173.965 51.4729 174.41 51.9183 174.744C56.9285 180.088 68.953 182.204 85.5424 179.532C103.134 176.748 122.173 169.4 125.067 161.717C125.067 161.606 125.179 161.606 125.179 161.495C125.29 161.383 125.29 161.161 125.401 161.049C125.735 160.27 125.958 159.491 125.958 158.822C126.069 158.154 126.069 157.375 126.069 156.707C126.403 158.043 126.515 159.491 126.737 160.827Z" fill="#EFEBE2"/>
<path d="M127.628 165.723C130.634 175.076 107.476 185.542 90.8865 188.993C72.4044 192.333 49.6914 187.88 50.0254 178.861L49.9141 176.523C49.8028 175.744 49.6914 175.076 49.6914 174.296C49.8027 174.964 49.9141 175.521 50.2481 176.189C50.4708 176.746 50.8048 177.414 51.1388 177.971C54.5903 184.54 70.4003 187.546 87.435 184.651C103.69 181.756 123.397 174.074 126.292 166.169C126.626 165.278 126.96 164.387 126.96 163.385C127.071 162.717 126.96 162.049 126.96 161.381C126.96 161.27 126.96 161.158 126.849 160.936C127.071 162.383 127.294 163.83 127.628 165.278C127.517 165.389 127.628 165.501 127.628 165.723Z" fill="#373FEF"/>
<path d="M125.514 161.158C125.402 161.27 125.402 161.492 125.291 161.604C125.291 161.715 125.18 161.715 125.18 161.826C125.18 161.604 125.18 161.381 125.068 161.27C125.291 161.158 125.402 161.158 125.514 161.158Z" fill="#373FEF"/>
<path d="M125.514 161.158C125.402 161.381 125.402 161.492 125.291 161.604C125.291 161.715 125.18 161.715 125.18 161.826C125.18 161.604 125.18 161.381 125.068 161.27C125.291 161.158 125.402 161.158 125.514 161.158Z" fill="#EFEBE2"/>
<path d="M85.7663 145.462C69.6223 148.913 46.3526 159.379 48.9134 168.732C48.9134 168.843 48.9134 169.066 49.0247 169.177C49.0247 169.177 49.0247 169.177 49.0247 169.289C49.1361 169.957 49.3588 170.625 49.5814 171.181C49.9155 171.961 50.3608 172.629 50.8061 173.297C50.8061 173.297 50.8062 173.297 50.9175 173.408C51.2515 173.854 51.5855 174.299 52.0309 174.633C57.0411 179.977 69.0656 182.093 85.6549 179.421C103.246 176.637 122.285 169.289 125.18 161.606C125.18 161.383 125.18 161.161 125.069 161.049C125.18 161.049 125.291 161.049 125.403 160.938C125.737 160.159 125.959 159.379 125.959 158.711C126.071 158.043 126.071 157.264 126.071 156.596C126.071 156.373 125.959 156.039 125.959 155.816C123.733 146.13 103.914 142.122 85.7663 145.462ZM86.1003 174.522C68.5089 177.194 57.5978 173.965 57.5978 167.285C57.5978 166.839 57.7091 166.394 57.8204 166.06C58.9338 161.606 66.8388 157.041 76.3026 153.701H76.4139C80.5334 152.254 84.8756 151.029 89.4405 150.249C94.228 149.47 98.7929 149.136 103.024 149.359C103.135 149.359 103.135 149.359 103.246 149.359C111.708 149.804 117.943 152.365 118.945 156.262C119.056 156.596 119.168 157.041 119.168 157.487C120.392 164.278 104.36 171.849 86.1003 174.522Z" fill="#1C1C1E"/>
<path d="M103.135 149.356C98.9043 149.244 94.3394 149.69 89.5519 150.469C85.2097 151.249 80.8676 152.251 76.5254 153.587C80.6449 152.139 84.987 150.915 89.5519 150.135C94.3394 149.467 98.9043 149.133 103.135 149.356Z" fill="#1C1C1E"/>
<path d="M125.516 161.16C125.404 161.383 125.404 161.494 125.293 161.606C125.293 161.717 125.182 161.717 125.182 161.828C125.182 161.606 125.182 161.383 125.07 161.272C125.293 161.16 125.404 161.16 125.516 161.16Z" fill="#1C1C1E"/>
<path d="M118.612 157.706C119.614 163.941 103.804 171.289 86.3237 173.85C69.4003 176.411 58.2664 173.405 58.3778 167.17C58.3778 166.836 58.4891 166.502 58.6005 166.056V165.945C59.7139 161.937 67.1735 157.483 76.6373 154.366H76.7486C81.2021 153.03 85.5443 152.028 89.7751 151.248C94.4513 150.469 99.0162 150.135 103.247 150.135H103.358C111.597 150.58 117.276 153.141 118.278 156.592C118.5 156.927 118.612 157.261 118.612 157.706Z" fill="#1C1C1E"/>
<path d="M119.613 156.037C118.5 151.918 112.153 149.134 103.135 148.689C103.024 148.689 102.912 148.689 102.912 148.689C98.4588 148.577 93.8939 149.023 89.2177 149.802C84.9869 150.582 80.7561 151.584 76.3025 152.92C76.1912 152.92 76.1912 152.92 76.0799 153.031C66.1708 156.483 58.2658 161.382 57.1524 165.947C57.1524 165.947 57.1524 165.947 57.1524 166.058C57.041 166.503 56.9297 166.949 56.9297 167.394C56.9297 174.631 67.8408 178.083 86.1003 175.299C104.916 172.516 121.172 164.61 119.947 157.485C119.836 156.928 119.724 156.483 119.613 156.037ZM86.323 173.852C69.3996 176.413 58.2657 173.406 58.3771 167.171C58.3771 166.837 58.4884 166.503 58.5998 166.058V165.947C59.7131 161.938 67.1728 157.485 76.6365 154.367H76.7479C81.2014 153.031 85.5436 152.029 89.7744 151.25C94.4506 150.47 99.0155 150.136 103.246 150.136H103.358C111.597 150.582 117.275 153.142 118.277 156.594C118.388 156.928 118.388 157.262 118.388 157.596C119.613 163.831 103.803 171.291 86.323 173.852Z" fill="#EFEBE2"/>
<path d="M115.941 145.906C115.83 146.018 115.607 146.129 115.496 146.129C115.385 146.129 115.385 146.24 115.273 146.24C115.385 146.129 115.385 145.906 115.496 145.795C115.719 145.795 115.83 145.795 115.941 145.906Z" fill="#373FEF"/>
<path d="M117.391 146.352C117.391 146.463 117.279 146.574 117.279 146.686C117.279 146.574 117.279 146.463 117.391 146.352Z" fill="#373FEF"/>
<path d="M115.943 145.906C115.832 146.018 115.609 146.129 115.498 146.129H115.387C115.387 146.018 115.498 145.906 115.498 145.795C115.721 145.795 115.832 145.795 115.943 145.906Z" fill="#EFEBE2"/>
<path d="M117.391 146.352C117.391 146.463 117.279 146.574 117.279 146.686C117.279 146.574 117.279 146.463 117.391 146.352Z" fill="#EFEBE2"/>
<path d="M117.39 146.351C117.39 146.462 117.279 146.573 117.279 146.685C117.056 147.241 116.722 147.798 116.277 148.243C115.72 148.911 115.052 149.468 114.273 149.914C107.927 154.367 92.6733 153.922 77.3086 148.355C63.5027 142.676 57.6018 133.547 54.9297 126.198C54.8183 125.53 54.8184 124.973 54.8184 124.417C54.8184 123.86 55.041 123.303 55.1524 122.747C55.2637 122.635 55.2637 122.524 55.375 122.301C55.9317 121.076 56.5998 119.852 57.0451 118.627C56.8224 119.184 56.7111 119.74 56.7111 120.297C56.7111 121.076 56.8224 121.744 56.9337 122.524C56.9337 122.524 56.9338 122.524 56.8224 122.524H56.7111C56.8224 122.524 56.8224 122.524 56.9337 122.524C57.0451 122.969 57.2678 123.526 57.4904 124.083C61.3873 130.986 67.6222 139.002 78.8674 144.124C91.7826 149.58 107.815 150.136 115.164 146.128C115.275 146.128 115.275 146.017 115.386 146.017C115.498 145.905 115.609 145.905 115.832 145.794C116.5 145.349 117.168 144.903 117.613 144.458C118.058 144.013 118.504 143.456 118.838 142.899C118.504 144.013 117.947 145.237 117.39 146.351Z" fill="#EFEBE2"/>
<path d="M115.72 150.36C112.603 158.043 98.5742 158.711 76.8633 152.031C66.8429 148.69 62.1666 144.014 58.3811 139.338C54.8183 134.661 52.1462 129.762 53.8163 125.977C54.2616 124.864 54.8183 123.861 55.2637 122.748C55.041 123.305 54.9297 123.861 54.9297 124.418C54.9297 124.975 54.9296 125.643 55.041 126.2C57.6018 133.548 63.614 142.678 77.42 148.356C92.6733 153.923 108.038 154.369 114.384 149.915C115.164 149.358 115.832 148.802 116.388 148.245C116.834 147.8 117.168 147.243 117.39 146.686C117.39 146.575 117.502 146.463 117.502 146.352C116.945 147.577 116.5 148.802 115.943 149.915C115.832 150.026 115.72 150.249 115.72 150.36Z" fill="#373FEF"/>
<path d="M115.941 145.906C115.83 146.018 115.719 146.018 115.496 146.129C115.385 146.129 115.385 146.24 115.273 146.24C115.385 146.129 115.385 145.906 115.496 145.795C115.719 145.795 115.83 145.795 115.941 145.906Z" fill="#373FEF"/>
<path d="M115.941 145.906C115.83 146.018 115.607 146.129 115.496 146.129C115.385 146.129 115.385 146.24 115.273 146.24C115.385 146.129 115.385 145.906 115.496 145.795C115.719 145.795 115.83 145.795 115.941 145.906Z" fill="#EFEBE2"/>
<path d="M96.1246 116.512C74.4137 109.721 60.385 110.5 57.2676 118.183C57.2676 118.294 57.1563 118.405 57.1563 118.628C56.9336 119.185 56.8223 119.741 56.8223 120.298C56.8223 121.077 56.9336 121.745 57.045 122.525C57.045 122.525 57.045 122.525 57.045 122.636V122.748C57.1563 123.193 57.379 123.75 57.6016 124.306C61.4985 131.209 67.7334 139.226 78.9785 144.347C91.8937 149.803 107.926 150.36 115.275 146.352C115.386 146.24 115.386 146.018 115.497 145.906C115.609 145.906 115.72 146.018 115.943 146.018C116.611 145.572 117.279 145.127 117.724 144.682C118.17 144.236 118.615 143.679 118.949 143.123C119.06 142.9 119.172 142.677 119.283 142.455C120.73 138.669 117.947 133.882 114.495 129.205C110.71 124.306 106.034 119.853 96.1246 116.512ZM81.762 140.228C71.1848 134.995 64.0592 126.31 65.7293 120.855C65.8407 120.521 66.0633 120.187 66.286 119.853C68.6241 116.735 75.0817 115.844 83.7661 117.181H83.8774C87.6629 117.737 91.7824 118.851 95.5679 120.298C99.6874 121.968 102.805 123.861 105.254 125.976C105.254 125.976 105.366 125.976 105.366 126.088C110.042 130.319 112.825 134.995 111.935 138.669C111.823 139.003 111.712 139.337 111.489 139.671C108.594 145.238 93.2298 145.461 81.762 140.228Z" fill="#1C1C1E"/>
<path d="M105.363 126.085C102.802 124.081 99.5737 122.188 95.5655 120.629C91.8914 119.182 87.8832 118.068 83.9863 117.289C87.7718 117.846 91.8913 118.959 95.6768 120.407C99.685 122.077 102.914 123.969 105.363 126.085Z" fill="#1C1C1E"/>
<path d="M115.943 145.908C115.832 146.02 115.609 146.131 115.498 146.131C115.387 146.131 115.387 146.242 115.275 146.242C115.387 146.131 115.387 145.908 115.498 145.797C115.721 145.797 115.832 145.797 115.943 145.908Z" fill="#1C1C1E"/>
<path d="M119.17 142.566C119.059 142.678 119.059 142.789 118.947 142.9C119.059 142.678 119.17 142.455 119.281 142.232C119.281 142.344 119.281 142.455 119.17 142.566Z" fill="#1C1C1E"/>
<path d="M110.934 139.558C108.151 144.569 93.1201 144.569 82.209 139.558C72.0772 134.548 64.8402 126.086 66.399 120.964C66.5103 120.63 66.733 120.408 66.8444 120.185C66.8444 120.185 66.8443 120.185 66.9557 120.074C69.1824 117.29 75.4174 116.399 83.8791 117.736H83.9904C87.8872 118.515 91.7841 119.628 95.3469 121.076C99.2437 122.635 102.361 124.416 105.033 126.531C105.033 126.531 105.145 126.531 105.145 126.643C109.709 130.762 112.27 135.327 111.491 138.668C111.157 139.002 111.046 139.336 110.934 139.558Z" fill="#1C1C1E"/>
<path d="M112.604 138.89C113.495 135.105 110.823 130.094 105.813 125.641C105.701 125.529 105.701 125.529 105.701 125.529C103.029 123.414 99.689 121.521 95.6809 119.962C92.0067 118.515 87.8872 117.401 83.8791 116.622C83.7677 116.622 83.7677 116.622 83.6564 116.622C74.4153 115.175 68.069 116.288 65.6196 119.517C65.3969 119.851 65.1742 120.185 65.0629 120.519C63.2815 126.42 70.2958 135.216 81.3183 140.672C93.4542 146.127 109.042 145.793 112.159 139.892C112.382 139.669 112.604 139.224 112.604 138.89ZM82.209 139.669C72.0772 134.659 64.8402 126.197 66.399 121.076C66.5103 120.742 66.733 120.519 66.8443 120.296C66.8443 120.296 66.8443 120.296 66.9557 120.185C69.1824 117.401 75.4174 116.511 83.8791 117.847H83.9904C87.8872 118.626 91.7841 119.74 95.3469 121.187C99.2437 122.746 102.361 124.527 105.033 126.643C105.033 126.643 105.145 126.643 105.145 126.754C109.709 130.874 112.27 135.439 111.491 138.779C111.38 139.113 111.268 139.335 111.157 139.669C108.151 144.68 93.1201 144.68 82.209 139.669Z" fill="#EFEBE2"/>
<path d="M127.299 78.9883C127.299 79.0996 127.299 79.0996 127.299 78.9883C127.299 79.0996 127.299 79.211 127.299 79.3223V79.4337C127.299 79.3223 127.188 79.211 127.188 79.0996C127.188 79.0996 127.187 79.0996 127.299 78.9883Z" fill="#373FEF"/>
<path d="M127.967 78.6543C127.967 78.7656 128.078 78.7657 128.078 78.877C127.967 78.7657 127.967 78.7656 127.967 78.6543Z" fill="#373FEF"/>
<path d="M127.299 78.9863C127.299 79.0977 127.299 79.0977 127.299 78.9863C127.299 79.0977 127.299 79.209 127.299 79.3204C127.299 79.3204 127.299 79.3204 127.188 79.3204C127.188 79.209 127.076 79.209 127.076 79.0977C127.188 79.0977 127.188 79.0977 127.299 78.9863Z" fill="#EFEBE2"/>
<path d="M127.967 78.6543C127.967 78.7656 128.078 78.7657 128.078 78.877C127.967 78.7657 127.967 78.7656 127.967 78.6543Z" fill="#EFEBE2"/>
<path d="M127.969 78.6545C127.969 78.7659 128.08 78.7659 128.08 78.8772C128.191 79.2113 128.414 79.6566 128.414 79.9906C128.525 80.5473 128.525 81.104 128.525 81.6607C128.637 86.7824 120.509 93.5741 110.266 98.3618C100.691 103.149 92.3404 104.374 87.8869 101.591C87.5529 101.368 87.2189 101.145 86.9962 100.811C86.7736 100.477 86.5509 100.255 86.3282 99.9205C86.3282 99.8092 86.2168 99.6978 86.2168 99.6978C85.8828 98.9184 85.5489 98.1391 85.2148 97.2484C85.4375 97.5824 85.6602 97.9164 85.8828 98.2504C86.2169 98.5844 86.5509 98.9184 86.9962 99.1411C86.9962 99.1411 86.9962 99.1411 86.9962 99.2525H87.1076C87.3303 99.4752 87.6643 99.5865 87.9983 99.6978C92.4518 101.479 99.9115 100.143 109.153 95.8009C119.507 91.236 127.078 84.5556 127.412 79.5452V79.4339C127.412 79.3226 127.412 79.2112 127.412 79.0999C127.412 78.6545 127.412 78.0978 127.412 77.6525C127.301 77.2071 127.189 76.7618 127.078 76.4277C127.301 77.2071 127.635 77.8752 127.969 78.6545Z" fill="#EFEBE2"/>
<path d="M129.082 81.2171C132.088 86.2274 123.626 95.0232 111.602 100.813C101.582 106.491 90.3363 107.048 87.3302 102.038C86.9962 101.37 86.5508 100.59 86.2168 99.9222C86.4395 100.256 86.6622 100.59 86.8849 100.813C87.1075 101.147 87.4415 101.37 87.7756 101.592C92.1177 104.376 100.579 103.262 110.154 98.3635C120.398 93.5758 128.414 86.7841 128.414 81.6624C128.414 81.1057 128.414 80.549 128.303 79.9923C128.191 79.547 128.08 79.213 127.969 78.8789C127.969 78.7676 127.857 78.7676 127.857 78.6562C128.191 79.4356 128.637 80.215 128.971 80.9944C129.082 81.1057 129.082 81.1057 129.082 81.2171Z" fill="#373FEF"/>
<path d="M127.3 79.0996C127.3 79.2109 127.3 79.3223 127.3 79.4337V79.545C127.3 79.4336 127.189 79.3223 127.189 79.211C127.077 79.0996 127.189 79.0996 127.3 79.0996Z" fill="#373FEF"/>
<path d="M127.299 78.9883C127.299 79.0996 127.299 79.0996 127.299 78.9883C127.299 79.0996 127.299 79.211 127.299 79.3223V79.4337C127.299 79.3223 127.188 79.211 127.188 79.0996C127.188 79.0996 127.187 79.0996 127.299 78.9883Z" fill="#EFEBE2"/>
<path d="M102.473 77.4301C90.4485 83.1085 81.9868 91.9043 84.9929 97.026C84.9929 97.1373 85.1043 97.2487 85.1043 97.2487C85.3269 97.5827 85.5497 97.9167 85.7723 98.2507C86.1063 98.5848 86.4404 98.9188 86.8857 99.1414C87.1084 99.3641 87.4424 99.4755 87.7764 99.5868C92.2299 101.368 99.6896 100.032 108.931 95.6899C119.285 91.1249 126.856 84.4446 127.19 79.4343C127.19 79.3229 127.079 79.2116 127.079 79.1002C127.19 79.1002 127.19 78.9889 127.301 78.9889C127.301 78.5435 127.301 77.9868 127.301 77.5415C127.19 77.0961 127.079 76.6507 126.967 76.3167C126.856 76.2054 126.856 75.9827 126.745 75.8714C123.405 71.0837 112.382 71.7518 102.473 77.4301ZM108.151 93.0177C98.2422 97.4713 90.6712 98.1394 89.2238 94.5765C89.1124 94.3538 89.1124 94.1312 89.0011 93.9085C88.5557 91.3477 91.3392 87.6734 96.4608 84.3332C96.4608 84.3332 96.4608 84.3332 96.5721 84.3332C98.7989 82.7745 101.36 81.4384 104.032 80.1023C106.927 78.7662 109.487 77.7641 111.825 77.0961H111.937C116.613 75.76 120.732 76.094 122.403 77.9868C122.514 78.2095 122.737 78.4322 122.848 78.6549C124.741 81.9951 118.394 88.5641 108.151 93.0177Z" fill="#1C1C1E"/>
<path d="M111.822 76.873C109.372 77.6524 106.811 78.6545 104.028 80.1019C101.467 81.3266 98.9065 82.7741 96.5684 84.2215C98.7951 82.6627 101.356 81.3267 104.028 79.9906C106.811 78.5432 109.484 77.5411 111.822 76.873Z" fill="#1C1C1E"/>
<path d="M127.299 78.9883C127.299 79.0996 127.299 79.0996 127.299 78.9883C127.299 79.0996 127.299 79.211 127.299 79.3223V79.4337C127.299 79.3223 127.188 79.211 127.188 79.0996C127.188 79.0996 127.187 79.0996 127.299 78.9883Z" fill="#1C1C1E"/>
<path d="M126.742 76.2051C126.742 76.3164 126.853 76.3164 126.853 76.4278C126.742 76.3164 126.742 76.0938 126.631 75.9824C126.742 75.9824 126.742 76.0937 126.742 76.2051Z" fill="#1C1C1E"/>
<path d="M122.404 78.5445C124.297 81.8847 117.839 88.3425 108.041 92.5734C98.5776 96.8043 90.8952 97.5837 89.5592 94.3548C89.4478 94.1322 89.4479 93.9095 89.4479 93.7981C89.4479 93.7981 89.4479 93.7981 89.4479 93.6868C89.1139 91.3486 91.7859 87.8971 96.7962 84.5569C96.7962 84.5569 96.7962 84.5569 96.9075 84.5569C99.2456 83.1095 101.806 81.7734 104.256 80.5487C107.039 79.2126 109.6 78.2105 112.049 77.4311H112.161C116.837 76.2064 120.734 76.4291 122.181 78.2105C122.181 78.2105 122.293 78.4332 122.404 78.5445Z" fill="#1C1C1E"/>
<path d="M122.625 77.5413C120.844 75.5372 116.724 75.0919 111.714 76.5393C111.603 76.5393 111.603 76.5393 111.603 76.5393C109.153 77.3187 106.592 78.4321 103.809 79.7681C101.36 80.9929 98.7988 82.329 96.3493 83.8877C96.3493 83.8877 96.2379 83.8877 96.2379 83.9991C90.7824 87.5619 88.1103 91.3475 88.5557 94.0197C88.5557 94.2423 88.667 94.5764 88.7783 94.7991C90.4484 98.696 98.0194 98.1393 108.263 93.463C118.951 88.7867 125.297 82.1063 123.07 78.3207C122.959 77.9867 122.848 77.6527 122.625 77.5413ZM108.04 92.5723C98.5761 96.8032 90.8937 97.5826 89.5577 94.3537C89.4463 94.131 89.4463 93.9083 89.4463 93.797C89.4463 93.797 89.4463 93.797 89.4463 93.6857C89.1123 91.3475 91.7844 87.896 96.7946 84.5558C96.7946 84.5558 96.7947 84.5558 96.906 84.5558C99.2441 83.1083 101.805 81.7723 104.254 80.5475C107.038 79.2115 109.599 78.2094 112.048 77.43H112.159C116.836 76.2052 120.732 76.4279 122.18 78.2094C122.291 78.3207 122.402 78.5434 122.514 78.7661C124.295 81.8836 117.838 88.3413 108.04 92.5723Z" fill="#EFEBE2"/>
<path d="M91.4473 68.1895C91.3359 68.1895 91.3359 68.1895 91.2246 68.1895H91.1133C91.2246 68.0782 91.2246 68.0781 91.336 67.9668C91.336 68.0781 91.4473 68.0782 91.4473 68.1895Z" fill="#373FEF"/>
<path d="M91.8936 68.6367L91.7812 68.749C91.7812 68.749 91.8936 68.749 91.8936 68.6367Z" fill="#373FEF"/>
<path d="M91.4453 68.1895C91.334 68.1895 91.334 68.1895 91.2227 68.1895L91.334 68.0781C91.334 68.0781 91.4453 68.0781 91.4453 68.1895Z" fill="#EFEBE2"/>
<path d="M91.8936 68.6367L91.7812 68.749C91.7812 68.749 91.8936 68.749 91.8936 68.6367Z" fill="#EFEBE2"/>
<path d="M91.8916 68.6359L91.7802 68.7473C91.5575 68.9699 91.2235 69.0813 91.0009 69.1926C90.6668 69.3039 90.2215 69.4153 89.7761 69.5266C85.9906 69.972 78.6423 66.1864 74.5228 59.84C70.4033 53.4936 67.7312 46.5906 69.1785 43.0277C69.2899 42.6936 69.4013 42.471 69.6239 42.137C69.8466 41.9143 69.9579 41.6916 70.1806 41.4689C70.292 41.4689 70.292 41.3576 70.4033 41.3576C70.96 40.9122 71.4053 40.4668 71.962 40.1328C71.7393 40.3555 71.628 40.5782 71.4053 40.8009C71.1826 41.1349 71.0713 41.4689 70.96 41.9143C70.96 41.9143 70.96 41.9143 71.0713 42.0256C70.96 42.2483 70.96 42.5823 70.96 42.805C70.5146 46.5905 72.8527 52.7143 76.5269 58.5039C80.4237 64.6277 87.2153 68.4132 91.2235 68.1906H91.3349C91.4462 68.1906 91.4462 68.1906 91.5575 68.1906C91.8916 68.1906 92.3369 68.0792 92.6709 67.9679C93.0049 67.8565 93.3389 67.7452 93.5616 67.5225C92.8936 67.8565 92.4482 68.3019 91.8916 68.6359Z" fill="#EFEBE2"/>
<path d="M90.3317 70.0812C87.7709 72.7533 78.1958 68.7451 73.0743 61.174C68.0641 53.6028 65.1693 45.3637 68.8434 42.6915C69.2888 42.3575 69.8455 41.9121 70.2908 41.5781C70.0681 41.8008 69.8455 42.0235 69.7341 42.2461C69.5115 42.4688 69.4002 42.8029 69.2888 43.1369C67.8414 46.6998 70.5135 53.6029 74.633 59.9493C78.7525 66.2956 85.9895 70.0812 89.8864 69.6358C90.3317 69.6358 90.7771 69.5245 91.1111 69.3018C91.4451 69.1905 91.6678 68.9678 91.8904 68.8565L92.0018 68.7451C91.4451 69.1905 90.9997 69.6358 90.5544 70.0812C90.443 69.9698 90.3317 70.0812 90.3317 70.0812Z" fill="#373FEF"/>
<path d="M91.4473 68.1895C91.3359 68.1895 91.3359 68.1895 91.2246 68.1895H91.1133C91.2246 68.0782 91.2246 68.0781 91.336 67.9668C91.336 68.0781 91.4473 68.0782 91.4473 68.1895Z" fill="#373FEF"/>
<path d="M91.4473 68.1895C91.3359 68.1895 91.3359 68.1895 91.2246 68.1895H91.1133C91.2246 68.0782 91.2246 68.0781 91.336 67.9668C91.336 68.0781 91.4473 68.0782 91.4473 68.1895Z" fill="#EFEBE2"/>
<path d="M89.4426 48.8197C84.321 41.2486 74.7459 37.2403 72.1851 39.9125L72.0738 40.0238C71.8512 40.2465 71.7398 40.4692 71.5171 40.6919C71.2945 41.0259 71.1831 41.3599 71.0718 41.8053C70.9604 42.0279 70.9605 42.362 70.9605 42.5847C70.5151 46.3702 72.8532 52.4939 76.5274 58.2836C80.4242 64.4073 87.2158 68.1929 91.2239 67.9702C91.3353 67.8589 91.3353 67.8589 91.4466 67.7475L91.558 67.8589C91.892 67.8589 92.3374 67.7475 92.6714 67.6362C93.0054 67.5249 93.3394 67.4135 93.5621 67.1908C93.6734 67.0795 93.7847 67.0795 93.8961 66.9682C97.3476 64.5187 94.3414 56.2795 89.4426 48.8197ZM78.3087 57.0589C74.5232 51.1579 72.6305 44.8115 74.9686 42.9187C75.0799 42.8073 75.3026 42.696 75.414 42.5847C77.1954 41.8053 80.6469 43.03 83.7643 45.7022C85.1004 46.9269 86.4364 48.3743 87.5498 50.0444C88.7745 51.8259 89.7766 53.7187 90.4446 55.5001C90.4446 55.5001 90.4446 55.5001 90.4446 55.6114C91.892 59.1743 92.4487 62.2919 91.1126 63.8506C91.0013 63.962 90.8899 64.1847 90.6672 64.296C88.4405 66.1888 82.0942 62.9599 78.3087 57.0589Z" fill="#1C1C1E"/>
<path d="M90.6685 55.6065C89.7778 53.8251 88.7758 52.0436 87.5511 50.2622C86.4377 48.5921 85.213 47.1447 83.877 45.9199C85.213 47.1447 86.5491 48.5921 87.6625 50.2622C88.9985 52.0436 90.0005 53.9364 90.6685 55.6065Z" fill="#1C1C1E"/>
<path d="M91.4453 68.1914C91.334 68.1914 91.334 68.1914 91.2226 68.1914H91.1113C91.2227 68.0801 91.2227 68.0801 91.334 67.9688C91.334 68.0801 91.4453 68.0801 91.4453 68.1914Z" fill="#1C1C1E"/>
<path d="M93.5625 67.4121C93.5625 67.4121 93.4512 67.5235 93.3398 67.5235C93.4512 67.4121 93.5625 67.4121 93.6738 67.3008C93.6738 67.3008 93.6739 67.3008 93.5625 67.4121Z" fill="#1C1C1E"/>
<path d="M90.7802 64.0705C88.4421 65.852 82.2071 62.5118 78.6443 56.9448C75.0815 51.2664 73.1888 45.0314 75.3042 43.3613C75.4155 43.2499 75.5269 43.1386 75.7496 43.1386C77.4196 42.4706 80.6484 43.5839 83.6545 46.2561C84.9906 47.5922 86.2153 49.0396 87.3287 50.5984C88.5534 52.3798 89.4441 54.1613 90.3348 55.9427C90.3348 55.9427 90.3348 55.9427 90.3348 56.0541C91.7822 59.5056 92.2276 62.5118 91.1142 63.8479C91.0029 63.8479 90.8915 63.9592 90.7802 64.0705Z" fill="#1C1C1E"/>
<path d="M91.6696 64.1835C93.0057 62.6247 92.5604 59.3958 91.0016 55.7216V55.6103C90.1109 53.7175 89.1088 51.936 87.8841 50.1546C86.7707 48.5958 85.5461 47.0371 84.0987 45.8123C84.0987 45.8123 84.0986 45.8123 83.9873 45.701C80.6471 42.8062 77.0843 41.6928 75.3029 42.4721C75.0803 42.5835 74.9689 42.6948 74.7462 42.8061C72.2968 44.8103 74.1895 51.268 78.0864 57.3917C81.9832 63.5154 88.5522 66.7443 91.2243 64.6288C91.4469 64.4062 91.5583 64.2948 91.6696 64.1835ZM78.6431 56.9464C75.0803 51.268 73.1875 45.033 75.3029 43.3628C75.4143 43.2515 75.5256 43.1402 75.7483 43.1402C77.4184 42.4721 80.6472 43.5855 83.6533 46.2577C84.9893 47.5938 86.2141 49.0412 87.3274 50.6C88.5522 52.3814 89.4429 54.1629 90.3336 55.9443C90.3336 55.9443 90.3336 55.9443 90.3336 56.0557C91.781 59.5072 92.2263 62.5134 91.113 63.8495C91.0016 63.9608 90.8903 64.0721 90.779 64.1835C88.4409 65.8536 82.2059 62.5134 78.6431 56.9464Z" fill="#EFEBE2"/>
<path d="M130.86 115.619C131.082 115.619 131.082 115.953 130.86 115.953C128.967 116.287 127.297 117.178 126.072 118.514C124.736 119.85 123.845 121.409 123.511 123.301C123.511 123.524 123.177 123.524 123.177 123.301C122.843 121.409 121.953 119.739 120.617 118.514C119.281 117.178 117.722 116.287 115.829 115.953C115.606 115.953 115.606 115.619 115.829 115.619C117.722 115.285 119.392 114.394 120.617 113.058C121.841 111.833 122.843 110.163 123.177 108.271C123.177 108.048 123.511 108.048 123.511 108.271C123.845 110.052 124.736 111.722 126.072 113.058C127.297 114.394 128.967 115.285 130.86 115.619Z" fill="#1C1C1E"/>
<path d="M76.3047 80.4371C76.5274 80.4371 76.5274 80.6598 76.3047 80.7711C74.9686 81.1051 73.8553 81.6619 72.9646 82.6639C72.0739 83.5546 71.4058 84.7794 71.0718 86.0041C71.0718 86.2268 70.8491 86.2268 70.7378 86.0041C70.4038 84.668 69.8471 83.5546 68.845 82.6639C67.9543 81.7732 66.7296 81.1051 65.5049 80.7711C65.2822 80.7711 65.2822 80.5485 65.5049 80.4371C66.841 80.1031 67.9543 79.5464 68.845 78.5443C69.7357 77.6536 70.4038 76.4289 70.7378 75.2041C70.7378 74.9814 70.9605 74.9814 71.0718 75.2041C71.4058 76.5402 71.9625 77.6536 72.9646 78.5443C73.8553 79.435 74.9686 80.1031 76.3047 80.4371Z" fill="#1C1C1E"/>
<path d="M41.3441 189.549C41.4554 189.549 41.4554 189.771 41.3441 189.771C40.2307 189.994 39.2287 190.551 38.4493 191.33C37.67 192.11 37.1133 193.112 36.8906 194.225C36.8906 194.336 36.6679 194.336 36.6679 194.225C36.4452 193.112 35.8886 192.11 35.1092 191.33C34.3298 190.551 33.3277 189.994 32.2144 189.771C32.103 189.771 32.103 189.549 32.2144 189.549C33.3277 189.326 34.3298 188.769 35.1092 187.99C35.8886 187.211 36.4452 186.209 36.6679 185.095C36.6679 184.984 36.8906 184.984 36.8906 185.095C37.1133 186.209 37.67 187.211 38.4493 187.99C39.2287 188.769 40.2307 189.326 41.3441 189.549Z" fill="#1C1C1E"/>
</svg>
