<svg width="32" height="32" viewBox="0 0 32 32" fill="none" xmlns="http://www.w3.org/2000/svg">
<path d="M23.7946 3.35225C25.4085 1.75758 27.8797 1.61394 29.3143 3.03143C30.7488 4.44892 30.6035 6.89075 28.9896 8.48542L8.11696 29.1098C6.50309 30.7044 4.03186 30.8481 2.59731 29.4306C1.16276 28.0131 1.30812 25.5713 2.92199 23.9766L23.7946 3.35225Z" fill="#E8E3D8"/>
<path d="M8.20537 2.88741C6.5915 1.29274 4.12027 1.1491 2.68572 2.56659C1.25117 3.98407 1.39654 6.42591 3.01041 8.02058L23.883 28.6449C25.4969 30.2396 27.9681 30.3832 29.4027 28.9658C30.8372 27.5483 30.6919 25.1064 29.078 23.5118L8.20537 2.88741Z" fill="#E8E3D8"/>
</svg>
