<svg width="32" height="32" viewBox="0 0 32 32" fill="none" xmlns="http://www.w3.org/2000/svg">
<path d="M-4.37114e-07 10C-4.37114e-07 11.1046 0.89543 12 2 12C3.10457 12 4 11.1046 4 10L4 2C4 0.895431 3.10457 8.74228e-08 2 8.74228e-08C0.895431 8.74228e-08 1.00536e-06 0.89543 1.00536e-06 2L-4.37114e-07 10Z" fill="#1C1C1E"/>
<path d="M32 22C32 20.8954 31.1046 20 30 20C28.8954 20 28 20.8954 28 22L28 30C28 31.1046 28.8954 32 30 32C31.1046 32 32 31.1046 32 30L32 22Z" fill="#1C1C1E"/>
<path d="M22 -8.74228e-07C20.8954 -9.2251e-07 20 0.895429 20 2C20 3.10457 20.8954 4 22 4L30 4C31.1046 4 32 3.10457 32 2C32 0.895431 31.1046 9.66222e-07 30 9.17939e-07L22 -8.74228e-07Z" fill="#1C1C1E"/>
<path d="M10 32C11.1046 32 12 31.1046 12 30C12 28.8954 11.1046 28 10 28L2 28C0.895431 28 4.94538e-07 28.8954 3.49691e-07 30C2.04844e-07 31.1046 0.89543 32 2 32L10 32Z" fill="#1C1C1E"/>
<path d="M2 -8.74228e-07C0.895431 -9.2251e-07 -7.8281e-08 0.895429 -1.74846e-07 2C-2.7141e-07 3.10457 0.89543 4 2 4L10 4C11.1046 4 12 3.10457 12 2C12 0.895431 11.1046 9.66222e-07 10 9.17939e-07L2 -8.74228e-07Z" fill="#1C1C1E"/>
<path d="M30 32C31.1046 32 32 31.1046 32 30C32 28.8954 31.1046 28 30 28L22 28C20.8954 28 20 28.8954 20 30C20 31.1046 20.8954 32 22 32L30 32Z" fill="#1C1C1E"/>
<path d="M32 2C32 0.895431 31.1046 -1.17422e-07 30 -2.62268e-07C28.8954 -4.07115e-07 28 0.89543 28 2L28 10C28 11.1046 28.8954 12 30 12C31.1046 12 32 11.1046 32 10L32 2Z" fill="#1C1C1E"/>
<path d="M-2.18557e-06 30C-2.3787e-06 31.1046 0.895428 32 2 32C3.10457 32 4 31.1046 4 30L4 22C4 20.8954 3.10457 20 2 20C0.895431 20 8.488e-07 20.8954 6.55671e-07 22L-2.18557e-06 30Z" fill="#1C1C1E"/>
</svg>
