<svg id="Calque_1" data-name="Calque 1" xmlns="http://www.w3.org/2000/svg" viewBox="0 0 226.77 340.16"><defs><style>.cls-1{fill:#373fef;}.cls-2,.cls-4{fill:#ede9e0;}.cls-2{stroke:#ede9e0;stroke-linecap:round;stroke-miterlimit:10;stroke-width:2px;}.cls-3{fill:#211e1f;}</style></defs><path class="cls-1" d="M83.66,183l-.07.38a4.34,4.34,0,0,0-1.43-3.61l.44.38A3.09,3.09,0,0,1,83.66,183Z"/><path class="cls-2" d="M180.05,100.6H140.68l-19-30.29a9.48,9.48,0,1,0-16.67,0l-19,30.29H46.72a6.14,6.14,0,0,0-6.14,6.15v171a6.14,6.14,0,0,0,6.14,6.15H180.05a6.15,6.15,0,0,0,6.15-6.15V106.75A6.15,6.15,0,0,0,180.05,100.6ZM109.24,74.31a9.43,9.43,0,0,0,8.29,0L134,100.6H92.78Z"/><path class="cls-3" d="M144.16,106.68,115.82,61.4a2.84,2.84,0,0,0-2-1.29h-.08l-.36,0-.37,0h-.08a2.84,2.84,0,0,0-2,1.29L82.61,106.68a2.83,2.83,0,0,0,.9,3.9h0a2.84,2.84,0,0,0,3.91-.9l26-41.49,26,41.49a2.83,2.83,0,0,0,4.81-3Z"/><rect class="cls-3" x="40.58" y="101.11" width="145.62" height="183.25" rx="6.15"/><rect class="cls-1" x="53.01" y="113.54" width="120.75" height="90.7" rx="5.67"/><path class="cls-4" d="M168.09,116.54a2.68,2.68,0,0,1,2.67,2.67v147a2.68,2.68,0,0,1-2.67,2.67H58.68A2.68,2.68,0,0,1,56,266.25v-147a2.68,2.68,0,0,1,2.67-2.67H168.09m0-3H58.68A5.67,5.67,0,0,0,53,119.21v147a5.67,5.67,0,0,0,5.67,5.67H168.09a5.67,5.67,0,0,0,5.67-5.67v-147a5.67,5.67,0,0,0-5.67-5.67Z"/><circle class="cls-4" cx="113.39" cy="66.3" r="10.5"/><ellipse class="cls-4" cx="113.39" cy="236.58" rx="23.21" ry="9.21"/><circle class="cls-3" cx="113.39" cy="236.58" r="8.04"/></svg>