<svg width="141" height="306" viewBox="0 0 141 306" fill="none" xmlns="http://www.w3.org/2000/svg">
<path d="M81.2436 0.125607C83.2013 0.616909 85.159 2.09079 86.1378 4.056C86.6272 5.52987 86.6273 6.51251 86.6273 7.98642C86.6273 8.47772 86.6273 8.96899 86.6273 8.96899C85.6484 19.2863 85.159 29.1124 84.6696 39.4297C84.1802 51.7122 84.6695 63.9947 85.6484 75.7859C85.6484 78.2424 87.6061 79.7164 89.5638 80.2077C93.4792 80.6989 95.4368 79.225 96.9051 77.7511C97.8839 76.2772 98.8628 74.312 98.8628 72.3468L99.3522 8.47769C99.3522 5.5299 99.3521 2.58209 102.778 1.59948C103.757 1.10818 104.736 1.10818 105.715 1.10818C106.693 1.10818 108.162 1.59948 109.141 2.09075C111.098 3.56466 111.588 6.0212 111.588 8.47769C111.588 8.96899 111.588 8.96899 111.588 9.46029C111.588 9.95159 111.588 10.4429 111.588 10.9342C111.098 16.3385 111.098 21.7429 111.098 27.1472C111.098 41.8862 112.077 57.1165 114.035 71.8555C114.035 71.8555 114.035 78.2424 117.95 79.7163C121.865 81.1903 125.291 80.699 125.781 69.8903C125.781 61.0469 126.27 51.7122 126.27 42.8688C126.27 35.4993 126.27 27.6385 125.781 20.2689C125.781 18.3037 125.291 15.8472 125.781 13.882C125.781 12.4081 126.76 10.9342 127.738 9.95162C129.207 8.47772 131.164 7.98638 132.633 8.47769C135.569 9.46029 136.059 12.4081 136.059 15.3559L139.974 74.8033C139.974 78.2424 140.463 81.6815 140.463 85.6119L140.463 219.246L62.1563 276.237L13.2144 300.802L0 305.715C2.4471 302.767 5.38361 300.311 7.34129 297.363C26.4286 274.272 33.77 209.42 29.8546 179.45L28.8757 173.064L22.5133 123.442C20.0662 112.142 18.598 100.842 18.598 89.0511L18.598 88.5598C18.598 86.5946 18.598 84.6294 18.598 82.1729C18.598 81.1903 18.598 80.2077 18.598 79.2251C18.598 78.7338 18.598 78.7338 18.598 78.7338C18.598 76.7686 19.0874 74.312 20.0662 72.8381C21.5345 69.8903 24.471 67.4338 27.897 67.9251C30.344 68.4164 32.3018 69.8903 33.2806 71.8555C34.7488 73.8208 35.2382 76.2773 35.2382 78.7338C35.2382 79.7164 35.2382 80.2076 35.2382 80.6989C35.2382 82.6642 35.2382 85.1207 35.2382 87.0859C35.2382 88.5598 35.2382 90.0337 35.2382 91.0163C34.7488 98.3858 34.2593 106.247 36.7064 113.125C37.1959 114.107 37.6852 115.581 38.6641 116.564C39.6429 117.547 41.1112 117.547 42.0901 117.055C43.0689 116.564 43.0689 115.581 43.5583 114.599C45.0265 110.177 45.0266 105.264 45.0266 100.351L44.5372 93.4728L44.0477 87.5772C44.0477 82.1728 44.0477 76.7686 44.0477 71.3643C44.0477 53.1861 45.0266 34.5167 46.4948 16.3385C46.4948 13.882 46.9843 11.4255 47.9632 8.96899C48.942 7.00378 51.8785 5.0386 54.3256 6.02121C56.2832 6.51251 57.262 7.98642 58.2409 9.95163C58.7303 11.4255 58.7303 12.8994 58.7303 14.3733L58.7303 15.3559C58.7303 28.6211 58.7303 42.3775 58.7303 55.6426L58.7303 71.8555C58.7303 72.3468 58.7303 72.3468 58.7303 72.8381C58.7303 76.2772 61.1775 80.699 64.6034 82.1729C72.4341 85.1207 73.9023 74.8033 73.9023 74.8033C73.9023 53.1861 73.9024 32.0601 74.3918 10.4429C74.3918 7.98642 74.3917 5.0386 75.86 2.58209C76.8388 0.616909 79.2859 -0.365696 81.2436 0.125607Z" fill="#1C1C1E"/>
</svg>
