<svg width="133" height="202" viewBox="0 0 133 202" fill="none" xmlns="http://www.w3.org/2000/svg">
<path d="M126.144 195.113C126.794 198.083 124.521 200.896 121.479 200.896H11.8825C8.84054 200.896 6.58007 198.083 7.21733 195.113L7.92673 191.854L23.3171 120.409C23.8342 118.016 23.0526 115.551 21.2851 113.868C12.9406 105.896 6.7965 94.7864 3.82663 81.897C-0.309542 63.9696 2.61223 46.0662 11.6541 33.9102C22.8482 15.0449 42.3507 3.05722 63.4765 1.3258C65.1959 1.18152 66.9634 1.10938 68.7429 1.10938C70.3661 1.10938 72.0133 1.18152 73.6726 1.31378C74.5143 1.34985 75.3559 1.42199 76.1976 1.5302C77.1234 1.66247 78.0372 1.77069 78.939 1.90295C79.8047 2.05926 80.6223 2.20354 81.476 2.35985C82.6303 2.60032 83.7485 2.88889 84.8908 3.16544H84.9028C90.3977 4.53614 95.6641 6.71245 100.606 9.5741C104.634 11.7023 108.397 14.3836 111.74 17.5218C120.241 25.5176 126.517 36.7358 129.535 49.8296C133.647 67.7691 130.725 85.6724 121.768 97.8164H121.744C118.81 102.686 115.335 107.111 111.415 111.006C109.648 112.762 108.914 115.299 109.431 117.74L125.435 191.854L126.144 195.113Z" fill="#EFEBE2" stroke="#EFEBE2" stroke-width="2" stroke-miterlimit="10"/>
<path d="M30.9286 116.532L30.8444 116.989C30.9766 115.366 30.3514 113.743 29.125 112.648C29.3054 112.793 29.4737 112.961 29.654 113.105C30.64 113.959 31.145 115.234 30.9286 116.532Z" fill="#373FEF"/>
<path d="M121.475 200.895H11.8789C8.83693 200.895 6.57646 198.094 7.21372 195.124L7.9111 191.866L23.3015 120.42C23.8185 118.028 23.025 115.563 21.2695 113.88C12.937 105.908 6.79289 94.7979 3.811 81.9084C-0.325168 63.981 2.59661 46.0776 11.6385 33.9216C22.8446 15.0563 42.3471 3.06864 63.4608 1.34924C65.1923 1.20496 66.9477 1.13281 68.7272 1.13281C70.3384 1.13281 71.9977 1.20496 73.645 1.33722C73.4766 1.33722 73.2963 1.33722 73.1279 1.36127C51.9902 3.09269 32.5117 15.0804 21.3056 33.9336C12.2757 46.0896 9.35395 63.993 13.4781 81.9204C16.4359 94.7618 22.556 105.836 30.8404 113.807C32.656 115.551 33.4736 118.1 32.9446 120.565L18.5401 187.405C18.0471 189.713 19.8026 191.89 22.1593 191.89H125.407L126.117 195.148C126.766 198.118 124.493 200.932 121.451 200.932L121.475 200.895Z" fill="#373FEF"/>
<path d="M125.435 191.853H22.1634C19.8188 191.853 18.0753 189.689 18.5683 187.392L32.9728 120.528C33.5018 118.063 32.6842 115.514 30.8686 113.771C22.5843 105.811 16.4642 94.725 13.5063 81.8837C9.37014 63.9562 12.2919 46.0529 21.3338 33.8969C32.564 14.9955 52.1026 2.99583 73.3004 1.3125H73.6732C74.5148 1.33655 75.3685 1.42071 76.2102 1.52893C77.124 1.66119 78.0498 1.76941 78.9516 1.90167C79.8173 2.07 80.647 2.21428 81.4886 2.35857C82.6429 2.59904 83.7611 2.88761 84.9034 3.16416H84.9274C90.4223 4.54689 95.6887 6.71117 100.63 9.57282C104.646 11.701 108.422 14.3823 111.764 17.5205C120.265 25.5043 126.542 36.7345 129.56 49.8283C133.672 67.7678 130.75 85.6711 121.792 97.8151L121.768 97.8392C118.834 102.697 115.36 107.122 111.44 111.005C109.672 112.761 108.927 115.31 109.456 117.739L125.459 191.853H125.435Z" fill="#221F1F"/>
<path d="M71.3871 81.3031C63.0066 81.3031 54.602 76.8423 47.0871 68.4016C44.971 66.0329 44.971 62.4499 47.0871 60.0812C54.602 51.6405 63.0066 47.1797 71.3871 47.1797C79.7677 47.1797 88.1603 51.6405 95.6631 60.0932C97.7673 62.4619 97.7673 66.0329 95.6631 68.4016C88.1723 76.8543 79.7797 81.3151 71.3871 81.3151V81.3031Z" fill="#EFEBE2"/>
<path d="M96.5765 65.2875C88.8572 56.5462 80.1159 51.9531 71.3747 51.9531C62.6334 51.9531 53.9402 56.5462 46.1729 65.2394C45.1028 66.5139 44.4655 67.9207 44.3212 69.4357C44.2731 69.9767 44.2731 70.5058 44.3212 71.0468C44.4655 72.5618 45.1028 74.0287 46.1729 75.195C53.9402 83.9363 62.6334 88.5294 71.3747 88.5294C80.1159 88.5294 88.8572 83.9363 96.5765 75.195C97.5985 74.0287 98.1876 72.6099 98.38 71.143C98.4762 70.5539 98.4762 69.9767 98.38 69.3395C98.1876 67.8726 97.5985 66.4538 96.5765 65.2875ZM47.4113 67.6321C47.5556 67.3916 47.7961 67.1391 48.0005 66.8986C48.0967 66.8025 48.1929 66.6582 48.2891 66.562C49.1187 65.6842 49.9483 64.8065 50.778 64.025C51.5114 63.2915 52.293 62.6062 53.0264 61.9689C53.2669 61.7765 53.5194 61.5841 53.7599 61.3797C54.5895 60.6944 55.4192 60.0571 56.2488 59.48C56.345 59.4319 56.4412 59.3838 56.4893 59.3357C57.4632 58.6984 58.4371 58.1093 59.4231 57.5802C59.916 57.3398 60.397 57.0873 60.89 56.8468C61.3829 56.6063 61.8639 56.4019 62.3569 56.2095C62.8498 56.0171 63.3789 55.8248 63.8718 55.6685C64.1123 55.5723 64.3648 55.4761 64.6053 55.428C65.1464 55.2356 65.7235 55.0913 66.3127 54.9831C66.7575 54.8869 67.1904 54.7907 67.6353 54.6945C68.8617 54.5022 70.1242 54.406 71.3987 54.406C72.6732 54.406 73.8876 54.5022 75.1621 54.6945C75.607 54.7907 76.0399 54.8869 76.4848 54.9831C77.0739 55.0793 77.6511 55.2236 78.1921 55.428C78.4326 55.4761 78.6851 55.5723 78.9256 55.6685C79.4186 55.8127 79.9476 56.0051 80.4406 56.2095C80.9336 56.4019 81.4145 56.5943 81.9075 56.8468C82.4005 57.0873 82.8814 57.3398 83.3744 57.5802C84.3483 58.1213 85.3222 58.6984 86.3082 59.3357C86.3563 59.3838 86.4525 59.4319 86.5486 59.48C87.3783 60.0692 88.2079 60.7064 89.0376 61.3797C89.278 61.5721 89.5305 61.7645 89.771 61.9689C90.5045 62.6062 91.286 63.2915 92.0195 64.025C92.9453 64.9027 93.8711 65.8766 94.7489 66.9107C96.4562 68.8104 96.4562 71.6961 94.7489 73.5959C89.5185 79.4995 83.9034 83.3592 78.1921 85.0665C77.6511 85.2589 77.0739 85.4032 76.4848 85.5114C76.0399 85.6076 75.607 85.7038 75.1621 85.8C73.8876 85.9924 72.6732 86.0886 71.3987 86.0886C70.1242 86.0886 68.8617 85.9924 67.6353 85.8C67.1904 85.7038 66.7575 85.6076 66.3127 85.5114C65.7235 85.4152 65.1464 85.2709 64.6053 85.0665C58.6415 83.3111 52.834 79.1629 47.4113 72.8624C46.4855 71.2512 46.4855 69.2433 47.4113 67.6321Z" fill="#221F1F"/>
<path d="M95.6981 60.1208C95.6981 60.1208 95.65 60.0728 95.6019 60.0247C95.0608 59.4355 94.5318 58.9064 93.9907 58.3173C93.4497 57.7762 92.9206 57.1991 92.3315 56.658C90.1311 54.6019 87.8346 52.8465 85.538 51.4277C85.4899 51.3796 85.4419 51.3796 85.3938 51.3315C84.516 50.7904 83.6864 50.3576 82.8086 49.9127C81.8828 49.4678 80.957 49.083 80.0312 48.7464C79.5382 48.554 79.0572 48.4097 78.6124 48.2534C78.2156 48.1572 77.8789 48.061 77.5422 47.9648C77.0493 47.8686 76.5683 47.7725 76.1234 47.6763C75.5824 47.532 75.0533 47.4839 74.5123 47.3877C73.4902 47.2434 72.4081 47.1953 71.3861 47.1953C70.3641 47.1953 69.2819 47.2434 68.2599 47.3877C67.2379 47.532 66.1558 47.7244 65.1337 48.0249C64.8452 48.1211 64.4965 48.1692 64.2079 48.2654C63.9193 48.3616 63.6668 48.4578 63.3783 48.554C62.9334 48.6983 62.5005 48.8426 62.0076 49.047C61.5146 49.2394 60.9855 49.4918 60.4926 49.6842C59.9515 49.9247 59.4706 50.1772 58.8814 50.4658C58.0998 50.9107 57.2702 51.3916 56.4406 51.9327C55.5147 52.4737 54.637 53.099 53.7593 53.8324C53.1701 54.2773 52.6411 54.7102 52.0519 55.2031C50.9337 56.129 49.8515 57.151 48.7814 58.2812C48.1923 58.8704 47.6632 59.4475 47.1221 60.0367C47.1221 60.0848 47.0741 60.0848 47.026 60.1329C46.1482 61.1549 45.2224 62.2851 44.3447 63.4514C44.2966 63.9925 44.2966 64.5215 44.3447 65.0626C45.2224 66.2289 46.1482 67.3591 47.026 68.3812C48.1442 69.6076 49.2744 70.7739 50.3926 71.844C51.2223 72.6255 52.0519 73.359 52.8815 73.9963C53.3745 74.381 53.8555 74.7778 54.3484 75.1145C54.8414 75.4992 55.3704 75.8479 55.8634 76.1846C57.8594 77.5553 59.9154 78.6735 61.9715 79.455C62.5126 79.6474 63.0416 79.8398 63.5346 79.9961C64.0756 80.1885 64.6047 80.3328 65.0977 80.4891C65.6387 80.6334 66.1678 80.7296 66.6607 80.8258C67.0455 80.9219 67.4423 80.97 67.779 81.0181C68.2238 81.1143 68.6086 81.1624 69.0535 81.1624C69.835 81.2586 70.6166 81.3067 71.3981 81.3067C72.1797 81.3067 72.9131 81.2586 73.6947 81.2105C73.7908 81.2105 73.9351 81.1624 74.0313 81.1624C74.368 81.1143 74.6686 81.0662 74.9571 81.0181C75.3539 80.97 75.7387 80.9219 76.1234 80.8258C76.5683 80.7296 77.0493 80.6334 77.5422 80.5372C77.5903 80.5372 77.6384 80.4891 77.6865 80.4891C78.7086 80.2486 79.7426 79.8999 80.7646 79.4671C80.8608 79.4671 80.957 79.419 81.0532 79.3709C81.4981 79.1785 81.9309 78.9861 82.3277 78.7817C83.3497 78.3368 84.3838 77.7597 85.4058 77.1224C85.7905 76.9301 86.1392 76.7377 86.4759 76.4852C88.8686 74.9702 91.1652 73.0223 93.4136 70.7739C94.1951 69.9923 94.9286 69.2108 95.662 68.3812C96.5879 67.3591 97.5137 66.277 98.3914 65.1588C98.4876 64.5696 98.4876 63.9925 98.3914 63.3552C97.5137 62.237 96.5879 61.1549 95.7101 60.1329L95.6981 60.1208ZM97.165 64.6177C96.3835 65.6398 95.5538 66.6738 94.7242 67.5996C89.4939 73.5033 83.8788 77.3629 78.1675 79.0703C77.6264 79.2627 77.0493 79.407 76.4601 79.5152C76.0152 79.6114 75.5824 79.7075 75.1375 79.8037C73.863 79.9961 72.6486 80.0923 71.3741 80.0923C70.0995 80.0923 68.837 79.9961 67.6106 79.8037C67.1657 79.7075 66.7329 79.6114 66.288 79.5152C65.6989 79.419 65.1217 79.2747 64.5806 79.0703C58.6169 77.3148 52.8094 73.1666 47.3867 66.8662C46.7494 66.1327 46.1122 65.3993 45.535 64.6177C45.3907 64.4735 45.2945 64.3773 45.1984 64.233C45.2945 64.0887 45.4388 63.9444 45.535 63.7881C46.1723 63.0066 46.7614 62.3212 47.3867 61.6358C47.531 61.3954 47.7714 61.1429 47.9758 60.9024C48.072 60.8062 48.1682 60.6619 48.2644 60.5657C49.094 59.688 49.9237 58.8103 50.7533 58.0287C51.4868 57.2953 52.2683 56.6099 53.0018 55.9727C53.2422 55.7803 53.4947 55.5879 53.7352 55.3835C54.5649 54.6981 55.3945 54.0609 56.2241 53.4837C56.3203 53.4356 56.4165 53.3875 56.4646 53.3395C57.4385 52.7022 58.4125 52.113 59.3984 51.584C59.8914 51.3435 60.3723 51.091 60.8653 50.8505C61.3583 50.6101 61.8392 50.4056 62.3322 50.2133C62.8252 50.0209 63.3542 49.8285 63.8472 49.6722C64.0877 49.576 64.3402 49.4798 64.5806 49.4317C65.1217 49.2394 65.6989 49.0951 66.288 48.9868C66.7329 48.8907 67.1657 48.7945 67.6106 48.6983C68.837 48.5059 70.0995 48.4097 71.3741 48.4097C72.6486 48.4097 73.863 48.5059 75.1375 48.6983C75.5824 48.7945 76.0152 48.8907 76.4601 48.9868C77.0493 49.083 77.6264 49.2273 78.1675 49.4317C78.408 49.4798 78.6605 49.576 78.9009 49.6722C79.3939 49.8165 79.923 50.0089 80.4159 50.2133C80.9089 50.4056 81.3899 50.598 81.8828 50.8505C82.3758 51.091 82.8567 51.3435 83.3497 51.584C84.3236 52.125 85.2976 52.7022 86.2835 53.3395C86.3316 53.3875 86.4278 53.4356 86.524 53.4837C87.3536 54.0729 88.1833 54.7102 89.0129 55.3835C89.2534 55.5759 89.5059 55.7683 89.7464 55.9727C90.4798 56.6099 91.2613 57.2953 91.9948 58.0287C92.9206 58.9064 93.8465 59.8804 94.7242 60.9144C95.5538 61.8402 96.3835 62.7661 97.165 63.8001C97.2612 63.9444 97.4055 64.0887 97.5017 64.245C97.4055 64.3893 97.3093 64.4855 97.165 64.6298V64.6177Z" fill="#221F1F"/>
<path d="M71.375 76.1015C77.9225 76.1015 83.2304 70.7936 83.2304 64.246C83.2304 57.6985 77.9225 52.3906 71.375 52.3906C64.8274 52.3906 59.5195 57.6985 59.5195 64.246C59.5195 70.7936 64.8274 76.1015 71.375 76.1015Z" fill="#221F1F"/>
</svg>
