<svg width="615" height="477" viewBox="0 0 615 477" fill="none" xmlns="http://www.w3.org/2000/svg">
<g clip-path="url(#clip0_2931_1482)">
<path d="M541.608 289.294C545.123 287.66 548.097 285.054 550.178 281.784C552.258 278.514 553.359 274.716 553.35 270.84V107.594C553.34 106.102 553.159 104.617 552.81 103.167C557.982 93.7895 560.644 83.2351 560.538 72.5266C560.538 26.0981 529.025 0.519531 471.806 0.519531C424.203 0.519531 396.546 25.2729 387.153 76.1761C386.432 79.9857 387.198 83.9268 389.295 87.1882H101.79C96.3808 87.1966 91.1954 89.3492 87.3704 93.1742C83.5454 96.9992 81.3929 102.185 81.3845 107.594V261.954L73.0064 262.763C67.6212 263.293 62.6665 265.938 59.2303 270.118C55.794 274.298 54.1572 279.671 54.6793 285.057L71.5466 458.014C72.0276 463.061 74.3709 467.749 78.1198 471.164C81.8687 474.578 86.7546 476.475 91.8253 476.483C92.4918 476.483 93.1582 476.483 93.8405 476.388L535.15 433.355C540.535 432.826 545.489 430.18 548.926 426C552.362 421.82 553.999 416.447 553.477 411.061L541.608 289.294ZM471.79 74.3672C472.679 74.3672 472.917 74.6052 473.028 74.7163C474.615 76.3031 474.821 82.0947 474.853 87.1882H468.887C469.68 75.7953 471.711 74.4148 471.806 74.3672H471.79Z" fill="#1C1C1E"/>
<path d="M526.12 222.909L63.1421 268.059C60.5255 268.315 58.6112 270.643 58.8663 273.259L77.8516 467.935C78.1068 470.552 80.4348 472.466 83.0514 472.211L546.029 427.06C548.646 426.805 550.56 424.477 550.305 421.861L531.319 227.185C531.064 224.568 528.736 222.654 526.12 222.909Z" fill="#1C1C1E"/>
<path d="M181.366 372.978C181.394 372.62 181.562 372.288 181.834 372.054C182.106 371.821 182.46 371.705 182.818 371.732C183.176 371.76 183.508 371.928 183.742 372.2C183.975 372.473 184.091 372.827 184.064 373.184L186.238 416.693C186.271 417.393 186.446 418.079 186.752 418.709C187.058 419.339 187.49 419.9 188.019 420.359C188.549 420.817 189.166 421.163 189.834 421.376C190.501 421.589 191.205 421.664 191.902 421.596L220.892 418.772C222.259 418.635 223.516 417.962 224.388 416.9C225.26 415.839 225.674 414.474 225.542 413.107L214.339 298.258C214.275 297.58 214.079 296.922 213.76 296.32C213.442 295.719 213.008 295.186 212.483 294.753C211.958 294.319 211.353 293.994 210.702 293.795C210.051 293.596 209.368 293.527 208.69 293.592L174.956 296.893C173.777 297.009 172.674 297.526 171.83 298.358C170.987 299.19 170.455 300.286 170.322 301.463L163.88 359.205L146.426 303.795C146.071 302.645 145.324 301.655 144.316 300.997C143.307 300.339 142.1 300.055 140.904 300.193L107.185 303.367C106.507 303.43 105.848 303.628 105.246 303.947C104.644 304.267 104.112 304.703 103.679 305.23C103.247 305.756 102.924 306.364 102.727 307.016C102.531 307.669 102.466 308.354 102.536 309.032L113.643 423.881C113.78 425.248 114.453 426.505 115.515 427.377C116.577 428.248 117.941 428.663 119.308 428.53L148.298 425.706C148.996 425.638 149.672 425.429 150.287 425.092C150.901 424.755 151.441 424.297 151.872 423.744C152.304 423.192 152.619 422.558 152.799 421.881C152.978 421.203 153.018 420.497 152.916 419.803L146.569 376.691C146.528 376.367 146.607 376.039 146.792 375.77C146.977 375.5 147.254 375.308 147.571 375.23C147.889 375.151 148.224 375.192 148.513 375.345C148.802 375.497 149.025 375.75 149.139 376.056L163.42 419.835C163.933 421.107 164.844 422.179 166.017 422.89C167.19 423.601 168.562 423.913 169.927 423.779C171.292 423.645 172.577 423.072 173.59 422.147C174.602 421.221 175.287 419.993 175.543 418.645L181.366 372.978Z" fill="#E8E3D8"/>
<path d="M264.989 328.184L266.037 338.847C266.078 339.288 266.207 339.716 266.415 340.108C266.622 340.499 266.905 340.845 267.248 341.127C267.59 341.409 267.984 341.62 268.408 341.749C268.832 341.877 269.277 341.921 269.718 341.877L283.316 340.56C283.79 340.512 284.268 340.559 284.724 340.696C285.179 340.834 285.603 341.061 285.97 341.363C286.337 341.666 286.641 342.038 286.864 342.458C287.087 342.879 287.224 343.339 287.267 343.813L288.283 354.175C288.377 355.118 288.097 356.06 287.504 356.799C286.91 357.538 286.05 358.014 285.109 358.126L271.511 359.459C271.07 359.5 270.641 359.629 270.25 359.837C269.859 360.045 269.512 360.328 269.231 360.67C268.949 361.012 268.738 361.406 268.609 361.83C268.48 362.254 268.436 362.699 268.48 363.14L269.527 373.803C269.571 374.264 269.709 374.712 269.934 375.117C270.158 375.522 270.464 375.877 270.832 376.158C271.2 376.44 271.622 376.642 272.072 376.753C272.522 376.864 272.99 376.881 273.447 376.802L298.962 372.486C299.735 372.359 300.527 372.391 301.287 372.582C302.048 372.773 302.761 373.117 303.382 373.595C304.004 374.072 304.521 374.672 304.902 375.358C305.282 376.043 305.518 376.799 305.594 377.58L308.165 404.919C308.298 406.287 307.883 407.651 307.011 408.713C306.14 409.775 304.883 410.448 303.516 410.584L238.903 416.931C237.536 417.064 236.172 416.649 235.11 415.778C234.048 414.906 233.375 413.649 233.238 412.282L222.036 297.417C221.97 296.739 222.039 296.055 222.238 295.405C222.437 294.754 222.763 294.149 223.196 293.624C223.629 293.099 224.162 292.665 224.763 292.347C225.365 292.028 226.023 291.831 226.701 291.768L291.298 285.421C291.976 285.355 292.661 285.424 293.312 285.622C293.964 285.821 294.57 286.147 295.096 286.58C295.622 287.013 296.058 287.546 296.378 288.147C296.698 288.749 296.897 289.407 296.963 290.086L299.628 317.489C299.719 318.277 299.644 319.075 299.409 319.832C299.174 320.589 298.783 321.289 298.262 321.886C297.74 322.483 297.1 322.965 296.382 323.301C295.664 323.637 294.883 323.819 294.09 323.836L268.226 324.534C267.771 324.552 267.324 324.662 266.912 324.857C266.5 325.052 266.132 325.328 265.83 325.669C265.527 326.01 265.297 326.408 265.153 326.84C265.008 327.273 264.953 327.73 264.989 328.184Z" fill="#E8E3D8"/>
<path d="M394.183 280.63L405.37 395.495C405.437 396.171 405.371 396.855 405.173 397.506C404.976 398.156 404.652 398.761 404.22 399.287C403.788 399.812 403.256 400.246 402.656 400.565C402.055 400.883 401.397 401.08 400.72 401.144L376.062 403.556C375.004 403.659 373.94 403.435 373.015 402.912C372.089 402.39 371.347 401.595 370.889 400.636L352.388 362.189C352.197 361.803 351.874 361.497 351.479 361.328C351.083 361.158 350.639 361.135 350.228 361.263C349.817 361.392 349.465 361.662 349.235 362.027C349.006 362.391 348.914 362.826 348.976 363.252L354.958 400.065C355.07 400.763 355.038 401.478 354.864 402.163C354.691 402.849 354.379 403.493 353.948 404.054C353.518 404.615 352.977 405.083 352.359 405.428C351.742 405.774 351.06 405.99 350.357 406.063L321.462 408.871C320.094 409.004 318.73 408.589 317.668 407.718C316.606 406.846 315.933 405.589 315.797 404.222L304.658 289.357C304.592 288.68 304.66 287.998 304.859 287.348C305.057 286.698 305.381 286.094 305.813 285.569C306.244 285.045 306.775 284.61 307.375 284.291C307.974 283.972 308.631 283.773 309.307 283.708L334.806 281.153C335.864 281.054 336.926 281.281 337.85 281.803C338.775 282.324 339.518 283.117 339.979 284.073L358.164 321.901C358.342 322.308 358.665 322.634 359.07 322.817C359.475 322.999 359.933 323.024 360.356 322.888C360.779 322.752 361.136 322.463 361.358 322.079C361.581 321.694 361.652 321.241 361.559 320.806L355.133 284.787C355.007 284.084 355.028 283.363 355.194 282.669C355.36 281.974 355.668 281.322 356.099 280.752C356.53 280.183 357.074 279.709 357.697 279.36C358.32 279.011 359.008 278.795 359.719 278.725L388.518 275.917C389.2 275.854 389.887 275.925 390.541 276.128C391.195 276.331 391.802 276.66 392.328 277.098C392.854 277.536 393.289 278.073 393.607 278.679C393.926 279.285 394.121 279.948 394.183 280.63Z" fill="#E8E3D8"/>
<path d="M495.386 270.757L498.084 298.51C498.155 299.235 498.073 299.966 497.842 300.657C497.611 301.348 497.237 301.982 496.745 302.518C496.252 303.055 495.651 303.481 494.982 303.769C494.314 304.057 493.591 304.201 492.863 304.19L477.154 303.952C476.425 303.94 475.701 304.082 475.03 304.369C474.359 304.656 473.757 305.082 473.262 305.619C472.768 306.155 472.392 306.79 472.161 307.482C471.929 308.174 471.846 308.907 471.918 309.633L479.582 388.257C479.648 388.933 479.58 389.616 479.381 390.265C479.183 390.915 478.859 391.52 478.427 392.044C477.996 392.569 477.465 393.003 476.865 393.323C476.266 393.642 475.609 393.84 474.933 393.906L445.689 396.762C445.013 396.828 444.33 396.759 443.68 396.561C443.03 396.363 442.426 396.039 441.901 395.607C441.377 395.176 440.943 394.645 440.623 394.045C440.304 393.446 440.106 392.789 440.04 392.113L432.376 313.489C432.305 312.763 432.081 312.06 431.72 311.426C431.358 310.792 430.868 310.242 430.279 309.811C429.691 309.379 429.018 309.077 428.305 308.923C427.591 308.77 426.854 308.768 426.14 308.919L410.764 312.188C410.051 312.341 409.314 312.342 408.601 312.19C407.888 312.039 407.215 311.738 406.626 311.308C406.037 310.878 405.546 310.328 405.184 309.695C404.823 309.062 404.599 308.359 404.528 307.634L401.831 279.881C401.765 279.205 401.833 278.523 402.031 277.873C402.23 277.223 402.554 276.618 402.985 276.094C403.417 275.569 403.948 275.135 404.548 274.816C405.147 274.496 405.804 274.298 406.48 274.233L489.721 266.108C491.089 265.975 492.453 266.39 493.515 267.262C494.577 268.133 495.25 269.391 495.386 270.757Z" fill="#E8E3D8"/>
<path d="M94.0781 459.459C92.6021 459.456 91.179 458.909 90.0812 457.922C88.9834 456.935 88.2879 455.579 88.1278 454.111L71.6414 284.899C71.5625 284.116 71.6393 283.324 71.8672 282.57C72.0951 281.816 72.4697 281.114 72.9695 280.505C73.4693 279.896 74.0845 279.392 74.7796 279.022C75.4748 278.651 76.2363 278.422 77.0205 278.346L514.474 235.694C515.258 235.615 516.049 235.692 516.803 235.92C517.557 236.148 518.259 236.522 518.868 237.022C519.477 237.522 519.981 238.137 520.352 238.832C520.722 239.528 520.952 240.289 521.027 241.073L537.513 410.222C537.664 411.803 537.183 413.38 536.175 414.607C535.167 415.835 533.715 416.614 532.134 416.775L94.6811 459.427L94.0781 459.459ZM515.061 238.138H514.728L77.2585 280.806C76.7965 280.849 76.3477 280.984 75.9379 281.202C75.5281 281.419 75.1653 281.716 74.8704 282.074C74.5755 282.432 74.3543 282.845 74.2195 283.289C74.0847 283.733 74.039 284.2 74.085 284.661L90.5714 453.81C90.6638 454.738 91.1191 455.592 91.8383 456.187C92.5574 456.781 93.4822 457.067 94.4113 456.983L531.88 414.331C532.342 414.288 532.791 414.153 533.201 413.935C533.611 413.718 533.974 413.421 534.269 413.063C534.563 412.705 534.785 412.292 534.919 411.848C535.054 411.404 535.1 410.937 535.054 410.475L518.568 241.327C518.485 240.454 518.079 239.644 517.431 239.054C516.782 238.465 515.937 238.138 515.061 238.138Z" fill="#E8E3D8"/>
<path d="M544.321 91.4395H91.397C88.768 91.4395 86.6367 93.5707 86.6367 96.1997V281.216C86.6367 283.845 88.768 285.976 91.397 285.976H544.321C546.95 285.976 549.081 283.845 549.081 281.216V96.1997C549.081 93.5707 546.95 91.4395 544.321 91.4395Z" fill="#1C1C1E"/>
<path d="M531.563 275.963H104.218C102.648 275.959 101.143 275.335 100.032 274.226C98.92 273.117 98.2916 271.614 98.2832 270.045V109.02C98.2874 107.448 98.914 105.941 100.026 104.829C101.138 103.717 102.645 103.09 104.218 103.086H531.563C533.139 103.086 534.65 103.711 535.765 104.823C536.881 105.936 537.509 107.445 537.514 109.02V270.045C537.505 271.617 536.875 273.123 535.76 274.232C534.645 275.341 533.136 275.963 531.563 275.963ZM104.218 105.45C103.75 105.45 103.286 105.543 102.854 105.722C102.422 105.902 102.029 106.165 101.699 106.497C101.369 106.829 101.107 107.222 100.929 107.655C100.752 108.088 100.661 108.552 100.663 109.02V270.045C100.663 270.511 100.755 270.974 100.934 271.405C101.113 271.836 101.374 272.228 101.704 272.558C102.034 272.888 102.426 273.15 102.857 273.328C103.289 273.507 103.751 273.599 104.218 273.599H531.563C532.507 273.599 533.413 273.225 534.082 272.559C534.751 271.893 535.129 270.989 535.133 270.045V109.02C535.133 108.074 534.757 107.165 534.088 106.496C533.418 105.826 532.51 105.45 531.563 105.45H104.218Z" fill="#E8E3D8"/>
<path d="M204.168 131.443C204.859 131.443 205.543 131.581 206.18 131.849C206.817 132.116 207.394 132.509 207.877 133.002C208.36 133.496 208.74 134.081 208.994 134.723C209.248 135.366 209.372 136.052 209.357 136.743L207.865 194.945C207.324 211.419 200.587 227.082 188.999 238.803C186.253 241.591 182.98 243.805 179.371 245.317C175.761 246.829 171.887 247.608 167.974 247.61H166.134C162.248 247.644 158.395 246.893 154.807 245.402C151.219 243.91 147.969 241.709 145.252 238.93C136.112 229.41 129.86 215.573 128.099 194.945L126.639 136.759C126.622 136.069 126.744 135.383 126.996 134.74C127.248 134.098 127.627 133.513 128.109 133.019C128.591 132.525 129.167 132.133 129.803 131.865C130.439 131.597 131.122 131.459 131.812 131.459H157.581C158.939 131.451 160.245 131.98 161.215 132.931C162.184 133.883 162.737 135.179 162.754 136.537C162.992 154.943 164.103 217.065 168.006 217.065C171.909 217.065 173.052 154.959 173.258 136.537C173.275 135.179 173.828 133.883 174.798 132.931C175.767 131.98 177.073 131.451 178.431 131.459L204.168 131.443Z" fill="#E8E3D8"/>
<path d="M294.185 221.095V240.819C294.185 242.19 293.641 243.506 292.67 244.476C291.7 245.446 290.385 245.991 289.013 245.991H263.18C261.807 245.991 260.49 245.447 259.517 244.477C258.544 243.508 257.996 242.192 257.992 240.819V216.097C257.987 214.612 257.399 213.189 256.354 212.135C255.309 211.081 253.891 210.481 252.406 210.464H250.597V240.85C250.597 242.222 250.052 243.538 249.082 244.508C248.112 245.478 246.796 246.023 245.424 246.023H219.592C218.219 246.023 216.901 245.479 215.929 244.509C214.956 243.539 214.408 242.224 214.403 240.85V136.616C214.408 135.243 214.956 133.927 215.929 132.957C216.901 131.988 218.219 131.443 219.592 131.443H266.338C269.996 131.441 273.618 132.16 276.997 133.559C280.377 134.958 283.447 137.009 286.034 139.595C288.62 142.181 290.671 145.252 292.07 148.632C293.469 152.011 294.188 155.633 294.185 159.291V182.585C294.185 189.217 291.789 198.341 282.888 201.404C282.678 201.487 282.498 201.631 282.371 201.818C282.244 202.005 282.176 202.225 282.176 202.451C282.176 202.676 282.244 202.897 282.371 203.084C282.498 203.27 282.678 203.415 282.888 203.498C291.615 206.592 293.916 214.843 294.17 221.095H294.185ZM257.992 167.637C257.992 166.143 257.398 164.711 256.342 163.654C255.285 162.598 253.853 162.004 252.359 162.004H250.597V194.342H252.39C253.877 194.338 255.302 193.745 256.352 192.692C257.402 191.639 257.992 190.212 257.992 188.725V167.637Z" fill="#E8E3D8"/>
<path d="M375.871 245.991H350.117C348.759 246 347.453 245.471 346.484 244.519C345.515 243.568 344.961 242.272 344.945 240.914C344.945 236.677 344.786 230.124 344.611 222.571C344.591 221.917 344.319 221.296 343.852 220.838C343.385 220.379 342.759 220.119 342.104 220.111H337.249C336.591 220.115 335.96 220.376 335.492 220.839C335.023 221.301 334.754 221.929 334.742 222.587C334.583 230.124 334.488 236.661 334.456 240.898C334.439 242.26 333.884 243.56 332.912 244.515C331.94 245.469 330.63 246 329.267 245.991H303.53C302.837 245.996 302.149 245.861 301.509 245.595C300.868 245.33 300.287 244.938 299.801 244.444C299.314 243.95 298.931 243.363 298.675 242.719C298.419 242.074 298.295 241.385 298.31 240.692L299.785 184.092C301.277 151.468 306.021 131.443 339.677 131.443C373.332 131.443 378.473 150.849 379.568 184.092L381.027 240.692C381.044 241.38 380.924 242.065 380.672 242.707C380.421 243.348 380.044 243.932 379.564 244.426C379.083 244.92 378.509 245.312 377.875 245.581C377.241 245.85 376.559 245.989 375.871 245.991ZM341.47 204.022C341.806 204.022 342.14 203.954 342.449 203.822C342.759 203.69 343.039 203.496 343.272 203.253C343.504 203.01 343.686 202.722 343.804 202.407C343.922 202.092 343.976 201.756 343.961 201.419C343.199 181.315 341.882 162.004 339.708 162.004C337.534 162.004 336.106 181.315 335.345 201.419C335.332 201.757 335.387 202.093 335.508 202.408C335.628 202.723 335.81 203.011 336.044 203.254C336.279 203.497 336.559 203.69 336.87 203.822C337.18 203.954 337.514 204.022 337.852 204.022H341.47Z" fill="#E8E3D8"/>
<path d="M386.423 240.819V136.616C386.423 135.936 386.557 135.262 386.818 134.633C387.079 134.004 387.462 133.433 387.944 132.953C388.426 132.472 388.998 132.092 389.627 131.833C390.257 131.574 390.931 131.441 391.612 131.443H417.444C418.123 131.443 418.796 131.577 419.424 131.837C420.051 132.097 420.621 132.478 421.102 132.958C421.582 133.439 421.963 134.009 422.223 134.637C422.483 135.264 422.617 135.937 422.617 136.616V240.819C422.617 242.191 422.072 243.506 421.102 244.476C420.132 245.446 418.816 245.991 417.444 245.991H391.612C390.931 245.994 390.257 245.861 389.627 245.602C388.998 245.343 388.426 244.963 387.944 244.482C387.462 244.001 387.079 243.43 386.818 242.802C386.557 242.173 386.423 241.499 386.423 240.819Z" fill="#E8E3D8"/>
<path d="M556.285 72.0337C556.285 118.05 509.079 132.188 499.654 150.784C498.842 152.608 497.537 154.169 495.886 155.29C494.234 156.412 492.302 157.05 490.308 157.131H459.588C457.821 157.117 456.086 156.65 454.551 155.775C453.015 154.899 451.73 153.645 450.816 152.132C449.903 150.619 449.392 148.897 449.334 147.131C449.275 145.364 449.669 143.612 450.48 142.041C459.08 124.809 480.121 114.908 480.121 90.8526C480.121 79.904 480.628 69.0347 472.314 69.0347C467.093 69.0347 465.173 76.3655 464.539 87.6791C464.458 89.1131 464.076 90.514 463.418 91.7908C462.76 93.0675 461.84 94.1914 460.719 95.0893C459.598 95.9873 458.301 96.6393 456.911 97.0029C455.522 97.3665 454.071 97.4335 452.654 97.1996L400.751 88.5994C399.394 88.3667 398.098 87.8656 396.937 87.1255C395.777 86.3854 394.775 85.4211 393.992 84.2892C393.209 83.1572 392.66 81.8804 392.376 80.5334C392.093 79.1864 392.081 77.7964 392.341 76.4448C400.037 34.6655 421.109 4.67578 472.314 4.67578C529.485 4.77099 556.285 30.0956 556.285 72.0337ZM435.342 209.494C435.342 201.963 437.576 194.6 441.76 188.337C445.945 182.075 451.893 177.193 458.851 174.311C465.81 171.429 473.467 170.675 480.854 172.144C488.241 173.613 495.027 177.24 500.353 182.566C505.679 187.892 509.306 194.678 510.775 202.065C512.244 209.452 511.49 217.109 508.608 224.068C505.726 231.027 500.844 236.974 494.582 241.159C488.319 245.343 480.956 247.577 473.425 247.577C463.325 247.577 453.638 243.564 446.496 236.423C439.355 229.281 435.342 219.594 435.342 209.494Z" fill="#E8E3D8"/>
<path d="M435.391 209.494C435.391 201.962 437.624 194.6 441.809 188.337C445.993 182.074 451.941 177.193 458.899 174.311C465.858 171.429 473.515 170.674 480.902 172.144C488.289 173.613 495.075 177.24 500.401 182.566C505.727 187.892 509.354 194.678 510.823 202.065C512.293 209.452 511.538 217.109 508.656 224.068C505.774 231.026 500.893 236.974 494.63 241.159C488.368 245.343 481.005 247.576 473.473 247.576C463.373 247.576 453.686 243.564 446.545 236.422C439.403 229.281 435.391 219.594 435.391 209.494Z" fill="#373FEF"/>
</g>
<defs>
<clipPath id="clip0_2931_1482">
<rect width="615" height="476.859" fill="white"/>
</clipPath>
</defs>
</svg>
