<svg id="Calque_1" data-name="Calque 1" xmlns="http://www.w3.org/2000/svg" viewBox="0 0 226.77 340.16"><defs><style>.cls-1{fill:#373fef;}.cls-2,.cls-3{fill:#ede9e0;}.cls-2{stroke:#ede9e0;stroke-linecap:round;stroke-miterlimit:10;stroke-width:2px;}.cls-4{fill:#211e1f;}</style></defs><path class="cls-1" d="M83.66,183l-.07.38a4.34,4.34,0,0,0-1.43-3.61l.44.38A3.09,3.09,0,0,1,83.66,183Z"/><path class="cls-2" d="M180.54,82.41h-52v-7.9a3.79,3.79,0,0,0-4.41-3.74l-78.54,13a3.78,3.78,0,0,0-3.17,3.74V257.39a3.8,3.8,0,0,0,3.07,3.73l78.55,8.26a3.76,3.76,0,0,0,1.42,0v0l55.92-10.16.11-.13a3.78,3.78,0,0,0,2.83-3.66V86.2A3.79,3.79,0,0,0,180.54,82.41Z"/><polygon class="cls-3" points="128.56 259.22 125.47 269.37 181.39 259.22 184.33 255.43 128.56 259.22"/><path class="cls-4" d="M180.54,259.22H111l-17.66-11-15.14-7.38V82.4h102.3a3.79,3.79,0,0,1,3.79,3.8V255.43A3.79,3.79,0,0,1,180.54,259.22Z"/><path class="cls-1" d="M42.44,87.51V257.39a3.78,3.78,0,0,0,3.07,3.72l78.55,8.26a3.78,3.78,0,0,0,4.5-3.72V74.51a3.79,3.79,0,0,0-4.41-3.74l-78.54,13A3.79,3.79,0,0,0,42.44,87.51Z"/><circle class="cls-3" cx="107.36" cy="177.09" r="8.34"/></svg>