<svg id="Calque_1" data-name="Calque 1" xmlns="http://www.w3.org/2000/svg" viewBox="0 0 226.77 340.16"><defs><style>.cls-1{fill:#373fef;}.cls-2{fill:#ede9e0;stroke:#ede9e0;stroke-linecap:round;stroke-miterlimit:10;stroke-width:2px;}.cls-3{fill:#ebe7df;}.cls-4{fill:#201d1e;}.cls-5{fill:#211e1f;}.cls-6{fill:#4957a6;}</style></defs><path class="cls-1" d="M83.66,183l-.07.38a4.34,4.34,0,0,0-1.43-3.61l.44.38A3.09,3.09,0,0,1,83.66,183Z"/><path class="cls-2" d="M182.31,120.09H127v-27a6.51,6.51,0,0,0-6.51-6.51h-76A6.5,6.5,0,0,0,38,93.07V213.56a6.5,6.5,0,0,0,6.51,6.51H99.81v27a6.51,6.51,0,0,0,6.51,6.51h76a6.5,6.5,0,0,0,6.51-6.51V126.6A6.5,6.5,0,0,0,182.31,120.09Z"/><rect class="cls-3" x="37.95" y="86.55" width="89.01" height="133.51" rx="6.51"/><path class="cls-4" d="M124.73,93.38V213.25a4.81,4.81,0,0,1-4.81,4.8H44.64a4.8,4.8,0,0,1-4.8-4.8V93.38a4.81,4.81,0,0,1,4.8-4.81h75.28A4.82,4.82,0,0,1,124.73,93.38Z"/><path class="cls-3" d="M119.92,87.57H44.64a5.81,5.81,0,0,0-5.8,5.81V213.25a5.8,5.8,0,0,0,5.8,5.8h75.28a5.81,5.81,0,0,0,5.81-5.8V93.38A5.82,5.82,0,0,0,119.92,87.57Zm4.81,125.68a4.81,4.81,0,0,1-4.81,4.8H44.64a4.8,4.8,0,0,1-4.8-4.8V93.38a4.81,4.81,0,0,1,4.8-4.81h75.28a4.82,4.82,0,0,1,4.81,4.81Z"/><path class="cls-3" d="M118.09,215H46.48a3.57,3.57,0,0,1-3.57-3.57V95.2a3.57,3.57,0,0,1,3.57-3.57h71.61a3.57,3.57,0,0,1,3.57,3.57V211.42A3.57,3.57,0,0,1,118.09,215ZM46.48,92.13a3.08,3.08,0,0,0-3.07,3.07V211.42a3.08,3.08,0,0,0,3.07,3.07h71.61a3.08,3.08,0,0,0,3.07-3.07V95.2a3.08,3.08,0,0,0-3.07-3.07Z"/><path class="cls-3" d="M188.82,126.6V247.08a6.43,6.43,0,0,1-1.42,4,5.71,5.71,0,0,1-1.13,1.12,6.37,6.37,0,0,1-3.33,1.32l-.63,0h-76a6.51,6.51,0,0,1-6.51-6.52V126.6a6.46,6.46,0,0,1,3-5.47,6.39,6.39,0,0,1,3.52-1h76a6.52,6.52,0,0,1,6.51,6.52Z"/><path class="cls-5" d="M188.82,227c-6,7.47-6.55,16-1.42,24.11a5.71,5.71,0,0,1-1.13,1.12c-6.89-8.36-6-20.25,2.55-27.8Z"/><path class="cls-5" d="M172.8,140.6c4.54-2.61,6.62-6.5,7.53-11.83.74-4.27,3.13-6.66,6.35-7a6.52,6.52,0,0,0-4.37-1.69h-8.45a46.63,46.63,0,0,1,1.27,5.47c.94,6.15-2,10.28-6.08,13.77a41.06,41.06,0,0,1-4.36,3.35c-1.62,1-3.75,2.21-4.89-.22s1.15-3.58,2.77-4.52c3.1-1.82,7-2.48,8-7.13.82-3.73,0-7.22-.8-10.72H167c1,3.69,1.68,7.4-1.13,10.86-2.32,2.85-5.71,4.5-7.76,7.66-2.81,4.33-5.74,8.45-10.49,10.51-1.11.47-2.67,1-2.59,2.53s1.68,2.43,2.93,3.17c3.85,2.29,8.23,1.58,12.33,2.5,2.1.46,4.28,1.06,5,3.58a4.08,4.08,0,0,1-1.87,4.48,83.36,83.36,0,0,1-8.16,5.33c-6.79,3.88-12.81,8.63-16.19,16.42-.91,2.08-1.63,4.39-.41,6.63a3,3,0,0,0,3.21,1.5c2.42-.34,4.36-1.84,6.35-3.21,4.12-2.85,8.14-6.28,13.17-6.6,5.37-.36,9.36,3.72,13.64,6.48,3.63,2.35,5.84,6,5.15,10.78-1.27,8.82-6.33,14.88-12.94,19.59-2.09,1.48-4.5,2.87-7,1.41-2.32-1.33-2-4-1.54-6.22,1-4.78-.66-7.6-4.46-10.21-4.88-3.33-5-6.14-1-9.91,2.87-2.73,6.22-5.59,10.2-4.82,6.1,1.16,9.27,6.32,9.35,13.48,0,.92-.17,2.16.94,2.56a1.6,1.6,0,0,0,1.33-.59,8.9,8.9,0,0,0,1.74-5.13c.33-5.28-3.07-7.66-6.64-9.72-2.8-1.59-5.34-4.35-8.83-3.73-4.62.83-7.78,4.86-11.88,6.89-3.57,1.77-4.09,4.21-1.6,7.53a20.13,20.13,0,0,0,4,4c5.67,4.32,6.34,7.33,2.61,12.85-1.94,2.86-4.45,5.43-5.76,8.57-3,7.24-7.2,12.58-14.37,15.39-4.6,1.81-7.23,5.29-7.61,9h3.77a5.61,5.61,0,0,1,3.38-3.94c6.41-3,10-8.5,13.48-14.37,1.43-2.38,3.4-4.37,6.25-2.9s2.39,4.68,1.84,7.27c-1.15,5.5-.25,11,2.22,13.94h7.47c-5-1.89-7.16-7.78-6.09-14.23,1.49-9.06,7.44-14,13.49-19,5.3-4.42,10-9.28,9.93-17.31a18.86,18.86,0,0,0-5.32-12.78c-4.86-5.31-4.24-11.15-1.77-17.35s4.28-12.49,2-19.32c-.89-2.71-2.92-4.05-4.86-5.6C169.2,145.32,169.1,142.73,172.8,140.6Zm-27.44,49.76c-1,1.08-2.71,2.59-3.81,1-1.59-2.25.52-4.08,1.8-5.58,5.45-6.37,12.39-10.69,18.84-15.7,2.55-2,4.92-4.35,5.67-7.84.69-3.19-1.72-4.22-3.74-5.41-.61-.36-1.63-.47-1.52-1.35,0-.32,1.3-.65,2-.66,3.87-.08,6.35,2.46,6.35,7.54-.35,4.91-3.91,8.86-8.1,12A131.59,131.59,0,0,0,145.36,190.36Zm30.86-32.17c1.39,6.2-1.2,11.39-4.67,16-4,5.32-9.5,8.2-15.42,10.22a3.12,3.12,0,0,1-.61.11,3.09,3.09,0,0,1,.22-.69c2.59-4.22,6.86-6.22,10.43-9.1,5.34-4.3,8.54-12.54,6.26-17.42-1.71-3.64-4.59-5.15-8.79-5.14h-.1c-2.1,0-4.54.94-7,1.7-1.07.33-2.5,1-3.09-.33s.76-2.09,1.7-2.65C162.56,146.62,173.9,147.76,176.22,158.19Z"/><path class="cls-5" d="M117.18,131.43a28.29,28.29,0,0,1,1.19-11.35h2a34,34,0,0,0-1.57,10.13c0,1.32.49,2.77,1.94,3s1.82-1.2,1.93-2.45c.15-1.8.26-3.62.27-5.42a11.21,11.21,0,0,1,1.24-5.25h2.76c-2,2.67-1.79,6.43-2.25,9.86-.33,2.42.08,5.65-3,6.15C118.76,136.55,117.41,134.07,117.18,131.43Z"/><path class="cls-5" d="M142,156.42a11.13,11.13,0,0,1-6.53,13.09c-6,2.51-9,7.06-9,14.15,0,5.52-2,6.91-6.83,5-5.24-2.08-9.71-.59-14,2.69-2.61,2-4.25,2.91-5.69,2.7v-8.58a25.51,25.51,0,0,0,9.72.85c4.58-.5,9.52.2,13.17-3.94a20.18,20.18,0,0,0,3.46-6.63c1.15-3.12,3.43-5.11,5.84-7,3.82-2.92,4.13-6.94,3.24-11.45-.33-1.66-1.18-3.93,1.15-4.51C139,152.2,141.26,153.38,142,156.42Z"/><path class="cls-5" d="M109.43,146.23c-3,1.87-6.35,2.79-9.61,3.94V148.8a13,13,0,0,0,9-4.54c2.74-3,3.55-7,3.73-11,.19-4.38.12-8.8.64-13.13H115a30.09,30.09,0,0,0-.65,12.06C115.23,138.05,114.65,143,109.43,146.23Z"/><path class="cls-5" d="M159.74,131.8c-3.62,2.9-5.94,7.09-8.9,10.65-5.72,6.86-12.62,7.05-20.19,4.3-4.72-1.72-7.58.72-7.42,6.12.27,8.81-1,17.08-6,24.4-2.57,3.79-8.17,5.27-13.7,4.1a25.84,25.84,0,0,1-3.76-1.09v-6.5c1.06.35,2.14.66,3.24.91a14.75,14.75,0,0,0,18.11-14.22c0-7.71-6.44-12.05-12.83-8.69-2.8,1.48-5.35,3.62-8.52,4.14v-2.86c7.49-1,13.7-5.11,19.52-10.12,4-3.47,8.29-5.95,13.6-3.65,2.72,1.17,5,3.55,8.12,3.63,4.17.09,8.9-5.35,10.25-11.66,1.47-6.93-.71-10.2-6.77-9.51a8.23,8.23,0,0,1-6.35-1.67h14.19a17.18,17.18,0,0,1,1.36,4.18c.21.91.6,1.76,1.54,1.92a1.85,1.85,0,0,0,1.85-1.07,5.47,5.47,0,0,0,.56-5H159a13.12,13.12,0,0,1,.22,3c-.14,3.79-2.85,6.1-4.81,8.84-2.58,3.6-4.51,7.75-7.82,10.71-4.86,4.35-9.48,1.55-14.09-.59s-10.63-.69-12.16,3a6.65,6.65,0,0,0-.25,1,4.34,4.34,0,0,0,.89-.25c4.42-2.2,8.77-2.63,13.37-.32,3.86,2,8,2.73,11.79-.29,5.1-4.05,8-10.32,12.54-14.95,2.56-2.6,3.33-6.14,2.89-10a1.23,1.23,0,0,1,0-.19h1.9c.11.54.21,1.08.29,1.63A10.19,10.19,0,0,1,159.74,131.8Z"/><path class="cls-5" d="M160.3,162.07c-.07-.39-.73-.82-1.17-.93-3.76-.79-7.68-.65-11.3-2.33-1.29-.61-1.94.43-2.05,1.68-.5,6.09-3,10.46-8.57,12.55-3.26,1.22-6.5,3-7.27,7.08a54,54,0,0,0-.38,8.83c-.06,3.78-1.87,5.57-5.23,4.88-3-.63-5.86-1.88-8.84-2.09-6.4-.45-10.29,4.26-13.87,9.08a4.82,4.82,0,0,0,.75,6.84c1.41,1.32,2.93.84,4.27-.21,1.61-1.25,3-3,4.72-3.85,9.14-4.21,18-2.19,26.16,2.83,7.25,4.46,8.83,10.56,5.53,16.56-3.06,5.55-8.32,7.15-13.47,9-6.89,2.5-12.93,6-14.79,14.62a14.16,14.16,0,0,1-3.27,7h3.69c.87-5.15,3.73-9.54,7.46-13.54,3.53-3.77,8.41-5.17,12.67-7.63,5.66-3.29,10.43-7.49,11.7-14.82.92-5.37-2.59-8-5.93-10.7-2.41-2-5.5-3.33-6-7.15a6.71,6.71,0,0,1,.34-1.93c.28.16.63.23.82.46.44.53.78,1.15,1.2,1.7,2.63,3.46,6,6,9.19,8.82,4.34,3.82,4.21,8.43.74,15.07-4.55,8.69-12.11,13-19.66,17.49-3.69,2.19-7.2,7-8.25,12.23H123a15.1,15.1,0,0,1,9.8-13c1.75-.64,3.6-1.13,5.3-1.9a10.2,10.2,0,0,0,4.47-3.66c2.8-4.23,4.31-9.32,7.67-13.19,1.59-1.82,3.3-3.77,3-6.58-.36-3.71-3.36-5.21-5.58-7.3-4.12-3.88-9.12-7.09-10.84-13-2.33-8,1.61-14.14,6.27-19.74,4.4-5.29,10.6-7.57,16.05-11.12A2,2,0,0,0,160.3,162.07ZM138,179.5c-2.25,4.42-3,9.24-3.73,14.16-.8,5.84-4.8,8.55-10.1,6.2h0c-7-3.13-12.87-2.28-18.09,3.72-.59.68-1.82,1.67-2.34.69-.88-1.7.49-3.14,1.47-4.36,5-6.25,10.86-7.28,17.84-4,2.68,1.24,6.42,3,8.06-1.82.83-2.45.75-5.27,1.08-7.92.14-3.18,0-6.5,2.32-8.95,1-1.05,2.34-2.05,3.63-1.14S138.5,178.42,138,179.5Z"/><path class="cls-5" d="M135.83,214.25c-1.18,2.78-4,3.9-6.2,2.93-8.08-3.58-14.24.57-20.59,4.94-2.84,2-5.94,3.6-9.22,2.67v-12c3.1,4.42,8,5,14.81,2.45,4.62-1.74,9.21-1.19,13.87-.74,1.58.15,3.77.34,3.78-2.09s-2.31-2.13-3.82-2.39c-5.08-.87-10.06-.06-15,1.24-.87.24-2.38.42-2.56-.78a3,3,0,0,1,2.58-3.34c6.83-.57,13.79-1.67,20.36,1.37A4.3,4.3,0,0,1,135.83,214.25Z"/><path class="cls-5" d="M188.82,161.26a14.89,14.89,0,0,0-2.64,8.22c-.13,3.94-.91,8,1.4,11.51a4.2,4.2,0,0,0,1.24,1.21v-4.32a5.42,5.42,0,0,1-.7-1.59,15.47,15.47,0,0,1,.7-9.59Z"/><path class="cls-5" d="M100.23,136.13l-.42.17v-2.47a2,2,0,0,0,.63-1.25,3.09,3.09,0,0,0-.63-1.87V126.6a6.46,6.46,0,0,1,3-5.47c0,2.69.11,5.39.23,8.07S103,134.87,100.23,136.13Z"/><path class="cls-1" d="M188.83,234.06v12.72a14,14,0,0,1-1.26-7.16A19,19,0,0,1,188.83,234.06Z"/><path class="cls-6" d="M188.83,139.27v8.26a10.35,10.35,0,0,1-.24-1.51A31.67,31.67,0,0,1,188.83,139.27Z"/><path class="cls-1" d="M185.84,131.36C183.31,137,183.24,143,184.5,149c1.36,6.38.07,12.36-1.37,18.48-1.3,5.56-2.49,11.44,1,16.65,1.2,1.8,3.32,2.86,4.71,4.52V213c-1.79,2-4.09,3.53-6.11,5.3-5.55,4.86-10.43,10.21-11.94,18.17-.27,1.45-.19,3.14,1.35,3.58,2,.57,2.64-1.18,2.94-2.86,1.61-9.11,7.3-14.7,13.76-19.72v3q-2.25,1.8-4.53,3.53c-7.41,5.62-8.78,21.22-2.5,28.32h0c.39.44.79.87,1.19,1.29h-4.72a44.79,44.79,0,0,0-8.05-4.16c-3.86-1.45-7.58-3.61-7-8.91.81-7.41,6-11.9,10.48-16.81,3.73-4.11,8.71-6.78,11.91-11.45,4.1-6,3.42-15.77-2-22s-6.83-12.13-3.38-20.15c3-7,3.66-14.5-.89-21.46-1.37-2.11-4-4.2-1.51-7.08a31.76,31.76,0,0,0,5.92-9.41c1-2.53,1.85-5.82,5.08-5.16v3.08a1.53,1.53,0,0,0-.72-.36C187,129.45,186.28,130.37,185.84,131.36Z"/><path class="cls-1" d="M140,217.24c-.92-1-2.12,1.63-3.08,2.75-2.07,2.4-4.47,3.78-7.45,2.44-2.8-1.25-5.52-2-8.49-.75-6.1,2.55-11.33,7.15-18,8.44a11.44,11.44,0,0,1-3.15.15v3.64c6.16.38,11.44-3.2,16.68-7.12,2.28-1.72,4.65-3.44,7.68-3.17.64.06,1.22.38,1.22.94a2,2,0,0,1-.87,1.46c-5.63,3.23-10,8.37-15.46,11.85a12.08,12.08,0,0,1-6.64,1.86,15.55,15.55,0,0,1-2.61-.34v6.67c.15.17.29.35.43.52,3.81,4.77,7.79,4.79,9.93-1.06,3.2-8.76,8.16-15.13,16.74-17.78,4.11-1.29,8.72-1.36,11.83-5.24C140,221,141.48,218.77,140,217.24Z"/><path class="cls-1" d="M114.18,167.3c-4.63,3.56-9.5,3.44-14.36,2.32v-3.55a15.33,15.33,0,0,0,12.08-5c1.15-1.22,2.26-3,1-4.65-1.07-1.32-2.49-.1-3.53.77-3.55,3-6.54,4.67-9.51,5.1v-2.36c3.4-.29,5.54-3,8.09-5,3.15-2.43,6.78-2.09,8.51.64C118.62,159.09,117.48,164.75,114.18,167.3Z"/><path class="cls-1" d="M110.12,125.61c-.05,5.76-.49,11.34-4.05,16-2,2.61-4.13,4-6.25,4.43v-3.83c3.4-1,6.17-5,6.77-9.1.63-4.33.29-8.72.45-13.08h3C110,121.93,110.13,123.77,110.12,125.61Z"/><path class="cls-1" d="M160,198.9c-1.57.62-3.3,1.47-3.66,3.44-.25,1.44,1.24,2,2.15,2.71a11.71,11.71,0,0,1,4.84,7.79c.18,1.29-.34,3.67,2,2.69,3.6-1.51,3.39-5.3,3.71-8.1C169,199.8,165.56,196.71,160,198.9Z"/><path class="cls-1" d="M127.83,153.65c-.84,4-1.63,8-2.31,12-.23,1.37-.1,2.86,1.82,2.65,3.1-.33,4.26-2.57,4.6-5.59a22.45,22.45,0,0,0-.13-7.8c-.26-1.36-.42-3.06-2.13-3.27-1.19-.14-1.64,1-1.85,2Z"/><path class="cls-1" d="M130.33,121.37c-2.83,1.27-3.69,7.72-.87,10.39,3.17,3,7.13,5,10.29,7.15,4.64-.94,6.69-3.79,7.68-7.59,1.2-4.62.21-6.09-3.61-5.4a8.32,8.32,0,0,1-7.13-1.91c-1.88-1.5-3.63-3.86-6.36-2.64Z"/><path class="cls-1" d="M152,243.69c-.2,3.28,0,6.75-2,9.6l-.24.31h-7.2a5.36,5.36,0,0,1,.58-1.82c1.52-3.16,3.1-6.3,4.73-9.39.5-.94,1.18-2.1,2.34-1.81C151.6,240.92,152.08,242.44,152,243.69Z"/></svg>