<svg width="20" height="20" viewBox="0 0 20 20" fill="none" xmlns="http://www.w3.org/2000/svg">
<path d="M3.86684 9.9995C3.97574 10.1142 4.12527 10.1816 4.28334 10.1873C4.45277 10.1905 4.61574 10.1223 4.73251 9.9995L9.3875 5.3445V16.1409C9.3919 16.4773 9.66356 16.749 10 16.7534C10.3364 16.749 10.6081 16.4773 10.6125 16.1409V5.34449L15.2675 9.9995C15.4236 10.16 15.6534 10.225 15.8705 10.17C16.0875 10.1151 16.2587 9.94853 16.3196 9.73311C16.3806 9.51769 16.3219 9.28614 16.1658 9.12566L10.4492 3.409C10.2065 3.17877 9.82614 3.17877 9.58351 3.409L3.86684 9.12566C3.74962 9.24083 3.68359 9.39826 3.68359 9.56258C3.68359 9.7269 3.74962 9.88434 3.86684 9.9995Z" fill="#1C1C1E"/>
</svg>
