<svg width="48" height="48" viewBox="0 0 48 48" fill="none" xmlns="http://www.w3.org/2000/svg">
<path d="M1 18.0009C1 15.7918 2.79086 14.0009 5 14.0009H7C8.10457 14.0009 9 14.8964 9 16.0009V32.0009C9 33.1055 8.10457 34.0009 7 34.0009H5C2.79086 34.0009 1 32.2101 1 30.0009V18.0009Z" fill="#1C1C1E"/>
<path d="M13 16.3755C13 14.9117 13.7995 13.5648 15.0846 12.8639L32.0423 3.61422C33.375 2.88727 35 3.8519 35 5.37001V42.6318C35 44.15 33.375 45.1146 32.0423 44.3876L15.0846 35.138C13.7995 34.437 13 33.0902 13 31.6264V16.3755Z" fill="#1C1C1E"/>
<path d="M45 22.0009C46.1046 22.0009 47 22.8964 47 24.0009C47 25.1055 46.1046 26.0009 45 26.0009H40C38.8954 26.0009 38 25.1055 38 24.0009C38 22.8964 38.8954 22.0009 40 22.0009H45Z" fill="#1C1C1E"/>
<path d="M43.6644 13.0185C44.621 12.4662 45.8442 12.794 46.3965 13.7506C46.9488 14.7071 46.621 15.9303 45.6644 16.4826L41.3343 18.9826C40.3777 19.5349 39.1545 19.2071 38.6023 18.2506C38.05 17.294 38.3777 16.0708 39.3343 15.5185L43.6644 13.0185Z" fill="#1C1C1E"/>
<path d="M45.6644 31.5185C46.621 32.0708 46.9488 33.294 46.3965 34.2506C45.8442 35.2071 44.621 35.5349 43.6644 34.9826L39.3343 32.4826C38.3777 31.9303 38.05 30.7071 38.6023 29.7506C39.1545 28.794 40.3777 28.4662 41.3343 29.0185L45.6644 31.5185Z" fill="#1C1C1E"/>
</svg>
