<svg width="58" height="48" viewBox="0 0 58 48" fill="none" xmlns="http://www.w3.org/2000/svg">
<path d="M1 18.0009C1 15.7918 2.79086 14.0009 5 14.0009H7C8.10457 14.0009 9 14.8964 9 16.0009V32.0009C9 33.1055 8.10457 34.0009 7 34.0009H5C2.79086 34.0009 1 32.2101 1 30.0009V18.0009Z" fill="#1C1C1E"/>
<path d="M13 16.3755C13 14.9117 13.7995 13.5648 15.0846 12.8639L32.0423 3.61422C33.375 2.88727 35 3.8519 35 5.37001V42.6318C35 44.15 33.375 45.1146 32.0423 44.3876L15.0846 35.138C13.7995 34.437 13 33.0902 13 31.6264V16.3755Z" fill="#1C1C1E"/>
<path d="M55.7145 28.8492C56.4955 29.6303 56.4955 30.8966 55.7145 31.6777C54.9334 32.4587 53.6671 32.4587 52.886 31.6777L39.451 18.2426C38.67 17.4616 38.67 16.1953 39.451 15.4142C40.2321 14.6332 41.4984 14.6332 42.2794 15.4142L55.7145 28.8492Z" fill="#1C1C1E"/>
<path d="M39.4144 28.8492C38.6334 29.6303 38.6334 30.8966 39.4144 31.6777C40.1955 32.4587 41.4618 32.4587 42.2429 31.6777L55.6779 18.2426C56.4589 17.4616 56.4589 16.1953 55.6779 15.4142C54.8968 14.6332 53.6305 14.6332 52.8495 15.4142L39.4144 28.8492Z" fill="#1C1C1E"/>
</svg>
