<svg width="183" height="272" viewBox="0 0 183 272" fill="none" xmlns="http://www.w3.org/2000/svg">
<path d="M43.2792 250.321C43.4235 245.235 43.6279 240.149 43.8804 235.075C43.9405 233.765 45.2391 232.707 46.7901 232.707L61.6154 229.833C61.7116 224.759 61.8559 219.673 62.0603 214.599C62.1084 213.288 63.3709 212.23 64.8619 212.23L79.2783 209.104C79.3505 204.018 79.4587 198.932 79.603 193.858L79.8795 191.393C49.8442 169.233 24.943 147.073 1.8213 124.902C1.24416 124.349 1.03976 123.495 1.25619 122.605C3.04773 115.535 4.87534 108.465 6.70295 101.395C7.72497 96.3092 8.77104 91.2352 9.8171 86.1491C10.0335 85.1151 10.8391 84.2253 11.777 83.9127C12.3421 83.7203 12.9072 83.5279 13.4122 83.2153L22.8869 77.2275C23.8007 72.1414 24.6905 67.0674 25.5682 61.9814C25.7967 60.6828 26.8908 59.6247 28.0211 59.6247L38.4096 57.7731C39.0949 52.699 39.7562 47.613 40.3574 42.539C40.5137 41.2284 41.4877 40.1703 42.5458 40.1703L54.5575 38.3306C54.9062 33.2446 55.2068 28.1586 55.4473 23.0845C55.5074 21.7739 56.349 20.7279 57.323 20.7279L68.8297 18.8762C68.7816 13.7902 68.6734 8.71615 68.481 3.6301C68.4329 2.33153 69.1303 1.27344 70.0321 1.27344H124.68C125.678 1.27344 126.748 2.3676 127.145 3.7864C128.383 8.19912 129.55 12.6239 130.68 17.0486C130.788 17.4815 130.716 17.9384 130.475 18.3111L75.1782 103.151L80.0839 107.359C81.3103 107.359 82.2482 108.417 82.176 109.728C81.8995 114.802 81.6109 119.888 81.3103 124.962L103.121 128.581C104.396 128.581 105.43 129.639 105.43 130.938C105.406 136.024 105.382 141.11 105.358 146.184L131.558 149.803C132.904 149.803 134.071 150.861 134.167 152.16C134.515 157.246 134.888 162.32 135.273 167.406C143.906 168.608 152.647 169.81 161.521 171.013H171.032C172.426 171.025 173.797 171.878 174.374 173.105C176.599 177.878 178.883 182.664 181.24 187.449C181.613 188.195 181.613 188.988 181.24 189.626C165.849 216.258 146.311 242.879 127.373 269.499C126.82 270.269 125.786 270.726 124.596 270.726H29.8367C28.1413 270.726 26.8307 269.668 26.9029 268.357C27.1554 264.065 27.4199 259.772 27.7084 255.48C27.7926 254.181 29.1633 253.123 30.7745 253.123L43.2792 250.321Z" fill="#EFEBE2" stroke="#EFEBE2" stroke-width="2" stroke-miterlimit="10"/>
<path d="M120.11 18.8762C103.144 18.8762 86.0462 18.8762 68.8042 18.8762C68.7681 13.7902 68.6599 8.71614 68.4555 3.6301C68.4074 2.33153 69.1048 1.27344 70.0065 1.27344C85.6494 1.27344 101.28 1.27344 116.923 1.27344C118.09 7.14103 119.148 13.0086 120.097 18.8762H120.11Z" fill="#221F1F"/>
<path d="M109.231 38.3293C91.2554 38.3293 73.0274 38.3293 54.5469 38.3293C54.9076 33.2433 55.2082 28.1693 55.4366 23.0832C55.4967 21.7847 56.3384 20.7266 57.3123 20.7266C74.1215 20.7266 90.7985 20.7266 107.343 20.7266C108.065 26.5942 108.69 32.4617 109.219 38.3293H109.231Z" fill="#221F1F"/>
<path d="M96.6656 57.7746C77.5718 57.7746 58.1535 57.7746 38.3984 57.7746C39.0838 52.6886 39.7331 47.6146 40.3463 42.5285C40.5026 41.23 41.4765 40.1719 42.5346 40.1719C60.5943 40.1719 78.4135 40.1719 95.9922 40.1719C96.2928 46.0395 96.5092 51.9071 96.6656 57.7746Z" fill="#221F1F"/>
<path d="M84.605 77.2278C64.381 77.2278 43.7963 77.2278 22.875 77.2278C23.7888 72.1417 24.6786 67.0677 25.5563 61.9817C25.7847 60.6831 26.8789 59.625 27.9971 59.625C47.2832 59.625 66.2567 59.625 84.9296 59.625C84.8815 65.4926 84.7613 71.3602 84.605 77.2278Z" fill="#221F1F"/>
<path d="M72.1725 101.396C50.6379 101.396 28.8028 101.396 6.70312 101.396C7.72514 96.3097 8.77121 91.2357 9.81728 86.1496C10.0938 84.851 11.2842 83.793 12.4866 83.793C33.0953 83.793 53.3914 83.793 73.3748 83.793C73.0141 89.6606 72.6173 95.5282 72.1845 101.396H72.1725Z" fill="#221F1F"/>
<path d="M81.2883 124.962C58.6836 124.962 35.9587 124.962 13.1016 124.962C14.1476 119.095 15.2177 113.227 16.2879 107.359H80.0498C81.2762 107.359 82.2141 108.417 82.142 109.716C81.8654 114.802 81.5768 119.876 81.2762 124.962H81.2883Z" fill="#221F1F"/>
<path d="M105.335 146.185C81.6602 146.185 58.0575 146.185 34.5391 146.185C35.3567 140.317 36.1743 134.45 37.0039 128.582C59.1276 128.582 81.1552 128.582 103.086 128.582C104.361 128.582 105.395 129.64 105.395 130.939C105.371 136.025 105.347 141.099 105.323 146.185H105.335Z" fill="#221F1F"/>
<path d="M135.247 167.407C110.141 167.407 85.3361 167.407 60.8438 167.407C61.3487 161.54 61.8658 155.672 62.4068 149.805H131.519C132.866 149.805 134.032 150.863 134.129 152.161C134.477 157.247 134.85 162.321 135.235 167.407H135.247Z" fill="#221F1F"/>
<path d="M164.19 188.626C137.341 188.626 111.021 188.626 85.2539 188.626C85.3982 182.759 85.5665 176.891 85.7829 171.023C110.672 171.023 135.898 171.023 161.484 171.023C162.362 176.891 163.252 182.759 164.178 188.626H164.19Z" fill="#221F1F"/>
<path d="M161.508 209.103C133.409 209.103 105.982 209.103 79.2656 209.103C79.3378 204.017 79.446 198.943 79.5903 193.857C79.6263 192.558 80.8528 191.5 82.3076 191.5C107.305 191.5 132.831 191.5 158.875 191.5C159.717 197.368 160.594 203.235 161.496 209.103H161.508Z" fill="#221F1F"/>
<path d="M146.201 229.833C117.284 229.833 89.0879 229.833 61.6016 229.833C61.6978 224.747 61.842 219.673 62.0464 214.587C62.0945 213.289 63.357 212.23 64.86 212.23C90.5668 212.23 116.959 212.23 144 212.23C144.698 218.098 145.431 223.966 146.213 229.833H146.201Z" fill="#221F1F"/>
<path d="M130.177 250.322C100.695 250.322 71.7174 250.322 43.2812 250.322C43.4255 245.235 43.642 240.161 43.8824 235.075C43.9426 233.777 45.2411 232.719 46.7922 232.719C73.2324 232.719 100.346 232.719 128.121 232.719C128.746 238.586 129.431 244.454 130.189 250.322H130.177Z" fill="#221F1F"/>
<path d="M116.959 270.724C87.9218 270.724 58.8845 270.724 29.8351 270.724C28.1397 270.724 26.8291 269.665 26.9013 268.367C27.1538 264.074 27.4183 259.782 27.6948 255.489C27.779 254.191 29.1497 253.133 30.7609 253.133C58.2953 253.133 86.2625 253.133 114.687 253.133C115.348 259 116.105 264.868 116.959 270.736V270.724Z" fill="#221F1F"/>
<path d="M75.142 103.163L130.451 18.3231C130.704 17.9384 130.776 17.4815 130.668 17.0366C129.55 12.6239 128.371 8.19912 127.145 3.7864C126.748 2.3676 125.666 1.27344 124.668 1.27344C122.083 1.27344 119.522 1.27344 116.937 1.27344C118.103 7.14103 119.161 13.0086 120.111 18.8762C115.891 19.4894 111.634 20.1026 107.342 20.7279C108.063 26.5955 108.688 32.4631 109.217 38.3306C104.841 38.9439 100.44 39.5571 95.9792 40.1823C96.2798 46.0499 96.5083 51.9175 96.6525 57.7851C92.7809 58.3983 88.8612 59.0115 84.9174 59.6367C84.8693 65.5043 84.761 71.3719 84.5927 77.2395C80.9255 79.4278 77.1741 81.6162 73.3505 83.8045C72.9898 89.6721 72.593 95.5397 72.1602 101.407C73.1461 101.996 74.1321 102.586 75.13 103.175" fill="#373FEF"/>
<path d="M1.82224 124.902C24.968 147.085 49.9052 169.269 79.9766 191.465C81.7441 190.515 83.5116 189.565 85.2671 188.615C85.4114 182.748 85.5797 176.88 85.7961 171.013C77.3795 169.81 69.0831 168.608 60.8589 167.394C61.3639 161.526 61.8809 155.658 62.422 149.791C53.0555 148.588 43.7731 147.386 34.5509 146.172C35.3685 140.304 36.1861 134.436 37.0158 128.569C29.02 127.366 21.0482 126.164 13.1126 124.95C14.1586 119.082 15.2287 113.214 16.2988 107.347C13.0765 105.351 9.87816 103.367 6.71591 101.371C4.8883 108.441 3.06069 115.511 1.26915 122.581C1.0407 123.471 1.25713 124.324 1.83427 124.878L1.82224 124.902Z" fill="#373FEF"/>
<path d="M60.8558 167.406C69.08 168.609 77.3764 169.811 85.793 171.025C110.682 171.025 135.908 171.025 161.495 171.025C152.621 169.823 143.88 168.621 135.247 167.406C110.141 167.406 85.3361 167.406 60.8438 167.406H60.8558Z" fill="#EFEBE2"/>
<path d="M34.5391 146.184C58.0575 146.184 81.6601 146.184 105.335 146.184C114.786 147.386 124.32 148.588 133.976 149.803H62.4221C53.0556 148.6 43.7733 147.398 34.5511 146.184H34.5391Z" fill="#EFEBE2"/>
<path d="M13.1094 124.961C21.0571 126.163 29.0168 127.366 37.0126 128.58C59.9058 128.58 82.7149 128.58 105.416 128.58C97.3237 127.378 89.2798 126.175 81.2961 124.961C58.6914 124.961 35.9665 124.961 13.1094 124.961Z" fill="#EFEBE2"/>
<path d="M6.70312 101.398C9.86537 103.394 13.0637 105.378 16.2861 107.374H82.2724C78.8697 105.378 75.503 103.394 72.1725 101.398C50.6379 101.398 28.8028 101.398 6.70312 101.398Z" fill="#EFEBE2"/>
<path d="M10.2969 83.7915C14.5533 81.6032 18.7496 79.4149 22.8737 77.2266C43.795 77.2266 64.3677 77.2266 84.6037 77.2266C80.9364 79.4149 77.185 81.6032 73.3615 83.7915C52.6806 83.7915 31.6511 83.7915 10.2969 83.7915Z" fill="#EFEBE2"/>
<path d="M25.9648 59.6251C30.1491 59.0119 34.2853 58.3987 38.3974 57.7734C58.1524 57.7734 77.5708 57.7734 96.6645 57.7734C92.7929 58.3866 88.8731 58.9999 84.9293 59.6251C65.6072 59.6251 45.9483 59.6251 25.9648 59.6251Z" fill="#EFEBE2"/>
<path d="M40.6211 40.172C45.3104 39.5588 49.9395 38.9455 54.5446 38.3203C73.0251 38.3203 91.2531 38.3203 109.229 38.3203C104.852 38.9335 100.439 39.5467 95.9905 40.172C77.7985 40.172 59.3421 40.172 40.6211 40.172Z" fill="#EFEBE2"/>
<path d="M55.5312 20.7267C59.9921 20.1134 64.4168 19.5002 68.8055 18.875C86.0355 18.875 103.145 18.875 120.111 18.875C115.891 19.4882 111.634 20.1014 107.342 20.7267C90.2198 20.7267 72.9537 20.7267 55.5312 20.7267Z" fill="#EFEBE2"/>
<path d="M79.6719 191.503C81.5356 190.541 83.3992 189.591 85.2509 188.629C111.018 188.629 137.338 188.629 164.187 188.629C162.431 189.591 160.664 190.541 158.884 191.503C131.915 191.503 105.511 191.503 79.6719 191.503Z" fill="#EFEBE2"/>
<path d="M62.1445 212.232C67.8558 211.186 73.5551 210.14 79.2664 209.094C105.983 209.094 133.409 209.094 161.509 209.094C155.677 210.14 149.834 211.186 143.99 212.232C115.999 212.232 88.705 212.232 62.1445 212.232Z" fill="#EFEBE2"/>
<path d="M43.9883 232.71C49.8679 231.748 55.7355 230.798 61.6151 229.836C89.0894 229.836 117.285 229.836 146.214 229.836C140.178 230.798 134.142 231.748 128.118 232.71C99.3697 232.71 71.3183 232.71 44.0003 232.71H43.9883Z" fill="#EFEBE2"/>
<path d="M27.8633 253.122C33.0215 252.184 38.1556 251.258 43.2777 250.32C71.7139 250.32 100.691 250.32 130.173 250.32C125.015 251.258 119.857 252.196 114.699 253.122C85.2767 253.122 56.3355 253.122 27.8633 253.122Z" fill="#EFEBE2"/>
<path d="M161.496 171.016C164.658 171.016 167.832 171.016 171.007 171.016C172.402 171.016 173.772 171.869 174.349 173.096C176.574 177.881 178.858 182.655 181.215 187.44C181.588 188.186 181.588 188.979 181.215 189.628C165.825 216.249 146.286 242.87 127.336 269.502C126.795 270.26 125.749 270.729 124.559 270.729C122.022 270.729 119.497 270.729 116.96 270.729C116.106 264.861 115.349 258.993 114.688 253.126C119.846 252.188 125.004 251.262 130.162 250.324C129.405 244.457 128.719 238.589 128.094 232.722C134.13 231.76 140.154 230.81 146.19 229.848C145.408 223.98 144.675 218.113 143.977 212.245C149.821 211.199 155.664 210.153 161.496 209.107C160.594 203.239 159.716 197.372 158.875 191.504C160.654 190.542 162.422 189.592 164.177 188.63C163.251 182.763 162.35 176.895 161.484 171.028L161.496 171.016Z" fill="#373FEF"/>
</svg>
