<svg width="20" height="20" viewBox="0 0 20 20" fill="none" xmlns="http://www.w3.org/2000/svg">
<path d="M15.657 5.83268C15.2934 5.83268 14.9987 6.12743 14.9987 6.49102V13.8577C14.9987 15.4087 13.7414 16.666 12.1904 16.666H7.45703C5.90603 16.666 4.6487 15.4087 4.6487 13.8577V6.49102C4.6487 6.12743 4.35395 5.83268 3.99036 5.83268C3.62678 5.83268 3.33203 6.12743 3.33203 6.49102V13.8577C3.35488 16.1426 5.21369 17.9828 7.4987 17.9827H12.232C14.5008 17.9601 16.3345 16.1264 16.357 13.8577V6.49102C16.3574 6.30895 16.2823 6.13486 16.1497 6.01013C16.0171 5.8854 15.8387 5.82116 15.657 5.83268Z" fill="#1C1C1E"/>
<path fill-rule="evenodd" clip-rule="evenodd" d="M15.657 4.64935H3.99036C3.62678 4.64935 3.33203 4.3546 3.33203 3.99102C3.33203 3.62743 3.62678 3.33268 3.99036 3.33268H6.1987L7.18203 2.26602C7.55792 1.88386 8.07099 1.66783 8.60703 1.66602H11.0404C11.5686 1.66601 12.0752 1.87584 12.4487 2.24935L13.4487 3.33268H15.657C16.0206 3.33268 16.3154 3.62743 16.3154 3.99102C16.3154 4.3546 16.0206 4.64935 15.657 4.64935ZM11.0404 2.98268H8.60703C8.44044 2.98274 8.2799 3.04517 8.15703 3.15768L7.9987 3.32435H11.6487L11.4904 3.15768C11.3684 3.04373 11.2073 2.98107 11.0404 2.98268Z" fill="#1C1C1E"/>
<path d="M6.6987 7.32435V9.82435C6.6987 10.1695 6.97852 10.4493 7.3237 10.4493C7.66888 10.4493 7.9487 10.1695 7.9487 9.82435V7.32435C7.9487 6.97917 7.66888 6.69935 7.3237 6.69935C6.97852 6.69935 6.6987 6.97917 6.6987 7.32435Z" fill="#1C1C1E"/>
<path d="M9.1987 7.32435V13.991C9.1987 14.3362 9.47852 14.616 9.8237 14.616C10.1689 14.616 10.4487 14.3362 10.4487 13.991V7.32435C10.4487 6.97917 10.1689 6.69935 9.8237 6.69935C9.47852 6.69935 9.1987 6.97917 9.1987 7.32435Z" fill="#1C1C1E"/>
<path d="M11.6987 7.32435V9.82435C11.6987 10.1695 11.9785 10.4493 12.3237 10.4493C12.6689 10.4493 12.9487 10.1695 12.9487 9.82435V7.32435C12.9487 6.97917 12.6689 6.69935 12.3237 6.69935C11.9785 6.69935 11.6987 6.97917 11.6987 7.32435Z" fill="#1C1C1E"/>
</svg>
